<svg width="10" height="8" viewBox="0 0 10 8" fill="none" xmlns="http://www.w3.org/2000/svg">
<path fill-rule="evenodd" clip-rule="evenodd" d="M3.41955 0.0747824C2.10011 0.293218 0.889589 1.00578 0.339779 2.35687C-0.114555 3.47335 -0.135097 4.7023 0.411321 5.79606C0.92098 6.81625 1.89734 7.45943 2.93213 7.7786C4.84281 8.36794 7.07114 7.77563 8.24853 6.06249C8.30771 5.97638 8.28588 5.85859 8.19977 5.79941C8.11365 5.74023 7.99587 5.76206 7.93669 5.84817C6.86601 7.40604 4.81923 7.96469 3.04366 7.41703C2.07448 7.11809 1.19979 6.52766 0.749819 5.62696C0.258613 4.64371 0.27105 3.52966 0.69026 2.4995C1.17725 1.30277 2.25281 0.651476 3.48136 0.44809C4.71317 0.244162 6.07317 0.496945 7.07604 1.08406C8.09749 1.68206 8.61912 2.71556 8.77019 3.90021C8.83012 4.37008 8.83501 4.82092 8.71039 5.25762C8.54751 5.82836 8.28705 6.18274 7.84668 6.58695C7.7697 6.6576 7.76458 6.77728 7.83524 6.85426C7.90589 6.93124 8.02557 6.93636 8.10255 6.86571C8.57974 6.42771 8.8874 6.01619 9.07425 5.36146C9.21861 4.85558 9.20868 4.34741 9.14554 3.85234C8.9843 2.58798 8.41811 1.43129 7.26721 0.757516C6.18563 0.124317 4.73573 -0.143112 3.41955 0.0747824Z" fill="#8B2AB9"/>
</svg>
