<svg width="348" height="134" viewBox="0 0 348 134" fill="none" xmlns="http://www.w3.org/2000/svg">
<path d="M325.737 85.1308C278.346 85.1308 232.275 85.0971 183.981 85.0971C163.246 85.0971 141.61 84 120.801 84C107.303 84 96.6004 85.3032 83.1026 85.3032C68.556 85.3032 48.0094 84.927 33.6885 85.136" stroke="#8B2AB9" stroke-width="4" stroke-linecap="round" stroke-linejoin="round"/>
<path d="M328 85.2559C327.883 85.0359 328 79.0889 328 75.7516C326.631 72.5908 327.419 69.3399 327.419 65.747C327.419 59.5556 327.419 51.175 327.419 45" stroke="#8B2AB9" stroke-width="4" stroke-linecap="round" stroke-linejoin="round"/>
<path d="M322.979 46.2141C295.328 46.2141 268.728 46.2141 238.981 46.2141C214.11 46.2141 190.56 47 165.201 47C153.331 47 140.375 46.2141 128.505 46.2141C117.019 46.2141 98.8347 46.2141 85.5933 46.2141C63.1883 46.2141 43.6362 46.2141 32.1529 46.2141" stroke="#8B2AB9" stroke-width="4" stroke-linecap="round" stroke-linejoin="round"/>
<path d="M31.9999 86.494C31.9999 83.1239 31.9999 79.4275 31.9999 76.1205C31.9999 72.5265 32.6734 70.1928 31.9999 66.2409C31.9999 59.6698 31.9999 53.4534 31.9999 46.9759" stroke="#8B2AB9" stroke-width="4" stroke-linecap="round" stroke-linejoin="round"/>
<path d="M35.583 47.4699C36.7812 57.9206 36.9333 76.1205 36.9333 86" stroke="#8B2AB9" stroke-width="4" stroke-linecap="round" stroke-linejoin="round"/>
<path d="M323.07 45C323.07 55.5079 319.62 70.0037 324.056 85.506" stroke="#8B2AB9" stroke-width="4" stroke-linecap="round" stroke-linejoin="round"/>
<path d="M324.572 45.988C325.737 55.6174 326.319 75.1544 326.319 85.0058" stroke="#8B2AB9" stroke-width="4" stroke-linecap="round" stroke-linejoin="round"/>
<path opacity="0.2" d="M106.622 59.8863C106.622 59.3115 107.756 59.0629 107.756 59.7465C107.71 63.1643 106.374 66.3336 105.861 69.6738C105.783 70.2175 104.618 70.4661 104.727 69.798C104.975 68.2445 105.379 66.7375 105.783 65.2306C104.028 65.2461 102.241 65.5257 100.517 65.2772C100.191 66.6754 99.8487 68.0736 99.6934 69.5184C99.6312 70.0932 98.5437 70.3107 98.637 69.5495C98.8079 67.9182 99.2584 66.3025 99.6157 64.6713C99.942 63.1643 100.408 61.5486 100.392 59.9951C100.361 59.4202 101.449 58.9697 101.464 59.6844C101.496 61.1758 101.123 62.6827 100.765 64.1431C102.49 64.3916 104.245 64.1275 105.954 64.1275C105.97 64.1275 106.016 64.1275 106.047 64.1275C106.358 62.7293 106.591 61.3311 106.622 59.8863ZM110.171 69.13C110.901 69.0057 111.461 68.1979 111.833 67.6231C112.626 66.2715 112.626 64.6402 113.154 63.1954C113.138 63.1643 113.092 63.1643 113.061 63.1333C112.921 63.0867 112.797 63.0711 112.672 63.04C112.362 62.9624 112.02 62.9624 111.709 63.04C111.026 63.242 110.451 63.6459 110.031 64.2363C109.255 65.3238 108.773 66.8463 109.13 68.1823C109.255 68.6639 109.565 69.2232 110.171 69.13ZM114.925 67.9182C115.251 67.157 115.966 67.9648 115.733 68.5397C115.469 69.1921 114.972 70.1398 114.148 70.2175C113.527 70.2952 113.107 69.7048 112.921 69.1455C112.797 68.8348 112.75 68.4775 112.719 68.1047C112.377 68.8038 111.927 69.4718 111.197 69.9534C110.544 70.3884 109.674 70.6059 109.037 70C108.354 69.363 108.12 68.3688 108.089 67.4522C108.074 65.619 108.866 63.242 110.56 62.2477C111.383 61.7817 112.284 61.6108 113.185 61.9059C113.449 61.9992 113.667 62.1234 113.838 62.2633C114.133 62.2633 114.412 62.6517 114.304 63.04C113.791 64.5625 113.62 66.2248 113.651 67.8095C113.651 68.058 113.651 69.0213 114.086 68.9746C114.537 68.9591 114.785 68.26 114.925 67.9182ZM126.618 61.9992C127.348 61.9992 127.037 63.1488 126.447 63.1643C125.064 63.1643 124.66 64.5936 124.489 65.7432C124.318 67.0172 124.443 68.8348 126.012 69.0523C126.649 69.1611 126.152 70.2952 125.577 70.2175C123.852 69.9534 123.34 68.2134 123.402 66.6598C122.905 66.6598 122.423 66.6288 121.91 66.6288C121.77 67.7473 121.693 68.8659 121.584 69.9845C121.506 70.5593 120.295 70.5593 120.372 69.8757C120.465 68.7882 120.559 67.7007 120.699 66.6132C120.264 66.5822 119.782 66.6132 119.487 66.7997C119.425 66.8307 119.378 66.8463 119.316 66.8463C118.881 68.4464 117.995 70.1243 116.24 70.1709C115.447 70.202 115.789 69.2077 116.442 69.1766C117.824 69.13 118.259 66.7531 118.399 65.6966C118.492 65.0597 118.617 64.112 118.337 63.5061C118.104 63.1022 117.452 63.242 117.063 63.242C116.271 63.242 116.613 62.2477 117.265 62.2477C117.964 62.2477 119.005 62.1079 119.378 62.8847C119.766 63.5993 119.704 64.6247 119.595 65.4481C119.999 65.3549 120.512 65.3704 120.9 65.3704C121.087 64.314 121.382 63.2731 121.802 62.2477C122.035 61.7195 123.2 61.9059 122.936 62.5584C122.547 63.4906 122.283 64.4227 122.112 65.4015C122.578 65.417 123.013 65.417 123.464 65.417C123.495 65.417 123.51 65.4481 123.557 65.4481C123.899 63.8168 124.707 62.0302 126.618 61.9992ZM135.544 62.0768C135.933 61.4088 136.445 62.0768 136.336 62.6206C135.886 64.9665 135.342 67.3123 135.125 69.7204C135.078 70.4971 134.13 70.4195 134.208 69.6427C134.363 67.9648 134.643 66.3025 134.985 64.6557C134.13 65.7122 133.198 66.7064 132.313 67.7473C132.173 67.9493 131.955 67.9493 131.769 67.7939C131.179 67.39 130.883 66.5356 130.619 65.9141C130.433 65.4947 130.278 65.1063 130.091 64.7024C130.06 64.6557 130.045 64.6247 130.045 64.5781C129.92 65.0131 129.796 65.4325 129.734 65.7432C129.408 66.9706 129.004 68.1823 128.584 69.4252C128.351 70.1554 127.466 69.8602 127.714 69.13C128.056 68.0891 128.413 67.0482 128.708 65.9763C128.91 65.2616 129.33 64.0654 129.143 63.2731C128.755 62.8381 129.314 61.7972 129.78 62.2322C129.998 62.4186 130.122 62.6827 130.169 62.9779C130.65 63.1488 130.946 64.112 131.085 64.4849C131.35 65.0597 131.598 65.9297 132.033 66.489C133.245 65.0597 134.596 63.7081 135.544 62.0768ZM142.879 67.5143C142.926 67.6231 142.926 67.7473 142.833 67.8716C142.739 68.3532 142.693 68.8659 142.693 69.3786C142.693 69.9534 141.528 70.3262 141.543 69.6116C141.543 69.4252 141.543 69.2232 141.574 69.0523C140.58 69.8136 139.321 70.3729 138.249 69.767C137.286 69.2077 137.24 67.7939 137.333 66.8307C137.457 65.3704 137.908 63.9877 138.125 62.5429C138.218 61.9526 139.415 62.2788 139.321 62.9002C139.151 64.0188 138.809 65.0907 138.638 66.1938C138.545 66.7841 138.467 67.39 138.545 67.9648C138.56 68.2755 138.591 68.8193 138.886 69.0368C139.213 69.2698 140.067 68.695 140.331 68.5241C140.844 68.1668 141.326 67.7784 141.745 67.3123C141.761 67.2657 141.807 67.2347 141.838 67.2191C142.149 65.7122 142.584 64.2363 142.615 62.6827C142.615 62.0768 143.78 61.7195 143.749 62.4497C143.734 64.1586 143.19 65.8365 142.879 67.5143ZM157.224 62.0768C157.613 61.4088 158.125 62.0768 158.017 62.6206C157.566 64.9665 157.022 67.3123 156.805 69.7204C156.758 70.4971 155.81 70.4195 155.888 69.6427C156.043 67.9648 156.323 66.3025 156.665 64.6557C155.81 65.7122 154.878 66.7064 153.993 67.7473C153.853 67.9493 153.635 67.9493 153.449 67.7939C152.859 67.39 152.564 66.5356 152.299 65.9141C152.113 65.4947 151.958 65.1063 151.771 64.7024C151.74 64.6557 151.725 64.6247 151.725 64.5781C151.6 65.0131 151.476 65.4325 151.414 65.7432C151.088 66.9706 150.684 68.1823 150.264 69.4252C150.031 70.1554 149.146 69.8602 149.394 69.13C149.736 68.0891 150.093 67.0482 150.389 65.9763C150.59 65.2616 151.01 64.0654 150.824 63.2731C150.435 62.8381 150.994 61.7972 151.46 62.2322C151.678 62.4186 151.802 62.6827 151.849 62.9779C152.33 63.1488 152.626 64.112 152.765 64.4849C153.03 65.0597 153.278 65.9297 153.713 66.489C154.925 65.0597 156.277 63.7081 157.224 62.0768ZM164.45 64.5315C164.808 63.9256 164.497 63.1799 163.891 62.8692C163.145 62.4808 162.291 62.7449 161.732 63.3508C161.172 63.9256 160.784 64.6868 160.551 65.4481C161.172 65.4481 161.778 65.4325 162.384 65.3393C162.99 65.2616 164.078 65.1374 164.45 64.5315ZM164.792 62.1856C165.538 62.7138 166.066 63.5838 165.74 64.5315C165.351 65.5568 164.14 65.9607 163.145 66.1627C162.213 66.3336 161.266 66.3802 160.302 66.3802C160.209 66.9395 160.163 67.5143 160.302 68.0425C160.691 69.4718 162.431 69.798 163.456 68.7727C163.86 68.3688 164.932 68.7727 164.404 69.332C162.99 70.7457 159.945 70.7457 159.184 68.5863C158.795 67.4677 159.013 66.2093 159.401 65.1218C159.79 64.0809 160.349 62.9624 161.328 62.3254C162.338 61.704 163.751 61.4554 164.792 62.1856ZM172.659 62.4497C172.97 61.8904 174.042 62.0302 173.623 62.7293C172.457 64.749 172.784 67.3123 172.287 69.5184C172.147 70.1243 171.013 70.2796 171.184 69.5029C171.401 68.5707 171.463 67.5764 171.572 66.6132C170.5 66.6443 169.428 66.7531 168.372 66.7375C168.154 67.7007 167.859 68.6795 167.517 69.6116C167.3 70.2175 166.259 70.1709 166.523 69.4252C166.896 68.3843 167.175 67.3123 167.393 66.2559C167.331 65.9763 167.377 65.6966 167.548 65.5413C167.657 64.8422 167.766 64.1431 167.828 63.444C167.781 63.3663 167.766 63.2731 167.812 63.1177C167.828 63.009 167.859 62.9002 167.874 62.7759C167.952 62.2943 169.04 61.9059 168.993 62.5895C168.931 63.5527 168.776 64.547 168.605 65.5257C169.646 65.5257 170.671 65.4015 171.712 65.4015C171.852 64.3606 172.116 63.3663 172.659 62.4497ZM180.821 62.9468C180.821 63.0711 180.774 63.2109 180.666 63.3042C180.137 65.417 179.749 67.5454 179.345 69.6738C179.174 70.4505 178.273 70.233 178.413 69.4873C178.832 67.4522 179.19 65.3704 179.702 63.3508C179.656 63.2886 179.609 63.2109 179.609 63.1177C179.625 63.2886 179.625 63.1799 179.454 63.1643C179.345 63.1333 179.221 63.1333 179.065 63.1333C178.879 63.1177 178.677 63.1177 178.491 63.1643C177.76 63.2575 176.922 63.5993 176.471 64.2518C175.648 65.5413 176.844 66.9239 178.242 66.3181C178.957 65.9918 179.267 66.8773 178.568 67.1881H178.537C178.522 67.2036 178.522 67.2347 178.491 67.2347C178.46 67.2502 178.444 67.3123 178.397 67.3279C178.351 67.4056 178.242 67.4522 178.18 67.4832C177.201 68.1979 176.253 69.0057 175.492 69.9534C175.29 70.1864 174.98 70.3418 174.653 70.233C174.42 70.1398 174.28 69.8291 174.436 69.6116C175.119 68.7882 175.896 68.058 176.72 67.3745C176.207 67.2813 175.756 67.0327 175.43 66.6288C174.731 65.7122 174.902 64.547 175.632 63.677C176.409 62.7759 177.621 62.2477 178.786 62.1701C179.438 62.1234 180.712 62.0768 180.821 62.9468ZM193.286 62.7604C193.441 63.7081 192.975 64.8266 192.758 65.7432C192.447 66.9706 192.059 68.2445 192.416 69.5184C192.587 70.0777 191.515 70.6836 191.329 70.0621C190.723 67.9182 191.795 65.7898 192.121 63.7081C192.183 63.444 192.292 63.242 192.012 63.1954C191.624 63.1488 191.189 63.3197 190.816 63.444C190.039 63.7236 189.216 64.1586 188.548 64.6091C188.517 64.6247 188.485 64.6557 188.47 64.6557C188.423 65.0441 188.346 65.4015 188.252 65.7898C188.004 67.0482 187.662 68.3066 187.274 69.5495C187.087 70.1087 185.891 70.0311 186.124 69.3475C186.481 68.2445 186.777 67.1259 187.01 65.9763C187.134 65.3238 187.274 64.6713 187.336 64.0188C187.351 63.7081 187.398 63.242 187.227 63.0245C186.792 62.5118 187.942 62.0302 188.315 62.4963C188.548 62.7604 188.563 63.1488 188.563 63.5061C189.262 63.0711 190.024 62.7138 190.816 62.4186C191.282 62.2477 191.81 62.1079 192.323 62.1545C192.665 62.1856 193.224 62.3409 193.286 62.7604ZM195.529 63.2575C195.762 62.9002 196.399 62.9468 196.585 63.2265C197.315 62.574 198.185 61.937 199.118 61.9526C200.329 61.9992 201.277 62.9468 201.432 64.1275C201.743 66.3802 200.547 69.0057 198.418 70C196.772 70.7457 195.311 69.9223 194.83 68.2289C194.379 66.6132 194.566 64.6713 195.529 63.2575ZM196.849 64.345C196.647 64.547 196.352 64.5625 196.135 64.4693C195.777 65.417 195.731 66.5511 195.917 67.4988C196.088 68.26 196.632 69.7359 197.673 69.3009C199.288 68.6173 200.221 66.7686 200.267 65.1063C200.283 64.4227 200.019 62.8536 199.024 62.9158C198.185 62.9779 197.455 63.8168 196.849 64.345ZM209.047 62.0924C209.357 62.0613 209.466 62.4808 209.419 62.6983C208.751 65.0441 208.052 67.4522 207.648 69.8446C207.524 70.5437 206.545 70.6059 206.67 69.798C207.058 67.6231 207.664 65.4325 208.27 63.3042C207.54 63.3042 206.794 63.2265 206.11 63.3508C205.411 65.9297 204.961 69.363 201.947 70.0932C201.652 70.1709 201.325 70.1087 201.123 69.8446C200.953 69.6271 201.03 69.2854 201.294 69.2232C204.106 68.5397 204.37 64.8732 205.054 62.574C205.116 62.2943 205.442 62.2322 205.722 62.3099C205.784 62.2633 205.846 62.2322 205.924 62.2167C206.918 61.9681 208.037 62.1701 209.047 62.0924ZM216.247 62.4497C216.558 61.8904 217.63 62.0302 217.21 62.7293C216.045 64.749 216.371 67.3123 215.874 69.5184C215.734 70.1243 214.6 70.2796 214.771 69.5029C214.989 68.5707 215.051 67.5764 215.16 66.6132C214.088 66.6443 213.016 66.7531 211.959 66.7375C211.742 67.7007 211.447 68.6795 211.105 69.6116C210.887 70.2175 209.846 70.1709 210.111 69.4252C210.483 68.3843 210.763 67.3123 210.981 66.2559C210.918 65.9763 210.965 65.6966 211.136 65.5413C211.245 64.8422 211.353 64.1431 211.416 63.444C211.369 63.3663 211.353 63.2731 211.4 63.1177C211.416 63.009 211.447 62.9002 211.462 62.7759C211.54 62.2943 212.627 61.9059 212.581 62.5895C212.519 63.5527 212.363 64.547 212.192 65.5257C213.233 65.5257 214.259 65.4015 215.299 65.4015C215.439 64.3606 215.703 63.3663 216.247 62.4497ZM219.515 63.2575C219.748 62.9002 220.385 62.9468 220.571 63.2265C221.302 62.574 222.172 61.937 223.104 61.9526C224.315 61.9992 225.263 62.9468 225.418 64.1275C225.729 66.3802 224.533 69.0057 222.405 70C220.758 70.7457 219.297 69.9223 218.816 68.2289C218.365 66.6132 218.552 64.6713 219.515 63.2575ZM220.835 64.345C220.634 64.547 220.338 64.5625 220.121 64.4693C219.764 65.417 219.717 66.5511 219.903 67.4988C220.074 68.26 220.618 69.7359 221.659 69.3009C223.275 68.6173 224.207 66.7686 224.253 65.1063C224.269 64.4227 224.005 62.8536 223.01 62.9158C222.172 62.9779 221.441 63.8168 220.835 64.345ZM231.918 62.1234C232.618 62.2788 232.105 63.3352 231.53 63.2265C230.489 63.009 229.277 63.1022 228.47 63.879C227.646 64.6713 227.211 65.7898 227.196 66.9239C227.196 67.825 227.522 68.6795 228.454 68.9436C229.371 69.2077 230.365 68.897 231.219 68.5241C231.965 68.1823 231.965 69.2854 231.375 69.5184C230.272 70.0311 228.796 70.4505 227.6 69.9068C226.512 69.4252 226.046 68.2911 226.124 67.1259C226.263 64.0965 228.718 61.4088 231.918 62.1234ZM243.341 63.475C243.512 64.5781 243.248 65.7898 243.03 66.8618C242.828 67.825 242.564 68.8038 242.424 69.767C242.331 70.3573 241.119 70.2486 241.213 69.5961C241.477 67.8095 242.129 66.054 242.16 64.2208C242.16 64.0033 242.207 63.5372 242.067 63.3508C242.005 63.3663 241.912 63.3974 241.943 63.3974C241.741 63.475 241.57 63.5683 241.399 63.6615C240.56 64.1897 239.83 64.9509 238.929 65.3549C238.867 65.8675 238.758 66.3491 238.665 66.8307C238.447 67.825 238.214 68.8038 237.966 69.767C237.764 70.5437 236.925 69.8913 237.065 69.2543C237.406 67.9804 237.826 66.6443 237.981 65.2927C237.826 65.1218 237.888 64.8422 238.059 64.7024C238.09 64.4072 238.105 64.0965 238.09 63.8013C238.09 63.7081 238.09 63.5372 238.059 63.444C237.702 63.5372 237.36 63.7391 237.049 63.91C236.272 64.314 235.542 64.7956 234.765 65.184C234.734 65.184 234.719 65.215 234.688 65.215C234.408 66.7686 234.128 68.3222 233.771 69.8602C233.631 70.4661 232.59 70.6836 232.761 69.8913C233.289 67.5454 233.647 65.1684 234.159 62.807C234.299 62.2011 235.34 61.9836 235.185 62.7915C235.107 63.0867 235.061 63.3974 234.983 63.7081C235.729 63.2731 236.459 62.7915 237.282 62.4186C237.624 62.2788 238.043 62.0924 238.401 62.2788C238.758 62.4497 238.929 62.9779 238.975 63.3508C239.038 63.5838 239.038 63.8324 239.038 64.0965C240.514 63.0556 242.984 61.2068 243.341 63.475ZM248.873 67.0172C248.982 66.1627 247.941 66.1006 247.304 66.2093C246.651 66.3647 246.092 66.7064 245.704 67.2036C245.517 67.9338 245.408 68.7416 245.843 68.9591C247.164 69.6116 248.717 68.3222 248.873 67.0172ZM249.82 65.9297C250.411 66.5511 250.038 67.5764 249.65 68.1979C249.121 69.0523 248.345 69.7514 247.335 69.9534C246.511 70.1243 245.237 70.1243 244.663 69.363C244.243 68.8504 244.305 68.1823 244.445 67.5764C244.321 67.4832 244.305 67.3279 244.399 67.1414C244.476 67.0327 244.538 66.9395 244.616 66.8152C244.973 65.4481 245.439 64.0343 245.688 62.6361C245.797 62.0458 246.993 62.0302 246.915 62.6983C246.9 62.7759 246.9 62.8536 246.869 62.9468C246.869 62.9934 246.838 63.04 246.822 63.0867C246.651 63.9411 246.387 64.7645 246.17 65.6034C246.434 65.4947 246.729 65.3859 246.993 65.3393C247.878 65.1684 249.168 65.1684 249.82 65.9297ZM258.747 68.0425C259.478 67.1414 260.223 65.3704 259.819 64.2363C259.384 63.0711 258.095 63.1488 257.132 63.5527C257.054 63.677 256.961 63.8013 256.806 63.8479C256.572 63.9411 256.464 64.2674 256.371 64.4849C256.2 64.8266 256.013 65.184 255.858 65.5257C255.578 66.1938 255.376 67.0172 255.547 67.7473C255.671 68.3998 256.138 69.2077 256.93 69.1611C257.629 69.1145 258.312 68.5707 258.747 68.0425ZM260.907 63.879C261.249 65.7588 260.254 68.0736 258.825 69.2854C258.126 69.8602 257.132 70.5127 256.153 70.2175C255.205 69.9379 254.584 69.0834 254.491 68.1202C254.429 67.6541 254.429 67.2191 254.506 66.7841C253.994 66.8307 253.512 66.8618 252.999 66.8773C252.937 66.8773 252.828 66.8773 252.735 66.9084C252.564 67.7473 252.393 68.6173 252.285 69.5029C252.207 70.0777 250.995 70.1243 251.073 69.4718C251.213 68.2911 251.477 67.0948 251.741 65.9141C251.958 64.8888 252.378 63.8013 252.424 62.7604C252.456 62.1701 253.683 62.1079 253.667 62.7759C253.605 63.7236 253.248 64.7179 253.03 65.6656C253.108 65.65 253.17 65.65 253.248 65.65C253.729 65.619 254.196 65.5879 254.646 65.5257C254.724 65.5257 254.77 65.5257 254.817 65.5413C254.895 65.3549 254.972 65.184 255.034 65.0131C255.314 64.4538 255.594 63.677 256.091 63.1954C256.153 63.0556 256.277 62.9002 256.417 62.8381C257.846 61.9059 260.487 61.7195 260.907 63.879Z" fill="#8B2AB9"/>
<path fill-rule="evenodd" clip-rule="evenodd" d="M335.736 0.121794C337.018 -0.294569 338.4 0.391036 338.822 1.65313C338.863 1.77455 338.903 1.89628 338.942 2.0183C340.087 2.21766 340.957 3.2027 340.957 4.38785C340.957 7.70693 342.152 10.6222 343.582 14.1106C343.825 14.7031 344.075 15.3121 344.326 15.9424C346.492 21.3649 348.965 28.4315 347.616 35.1538C346.722 39.6077 343.991 42.9183 340.274 44.3041C336.563 45.688 332.27 45.0037 328.547 42.2882C326.974 41.1411 325.856 39.4697 325.135 37.8145C324.409 36.1471 324 34.2998 324 32.6146C324 29.0687 326.06 26.3565 327.567 24.3719C327.773 24.1 327.969 23.8419 328.148 23.5971C328.764 22.7551 329.471 21.8828 330.135 21.0625C330.446 20.6791 330.747 20.3071 331.026 19.9549C331.954 18.7816 332.745 17.6906 333.323 16.5845C335.485 12.4447 335.674 7.61703 334.181 3.16092C333.758 1.89882 334.454 0.538156 335.736 0.121794ZM338.966 15.7236C338.621 16.7642 338.19 17.7878 337.669 18.7856C336.877 20.3017 335.858 21.6778 334.882 22.912C334.524 23.365 334.181 23.7872 333.852 24.1936C333.235 24.9548 332.662 25.6604 332.115 26.4092C331.888 26.7196 331.67 27.0134 331.462 27.2936C329.88 29.4281 328.887 30.7679 328.887 32.6146C328.887 33.5841 329.135 34.7884 329.627 35.9181C330.124 37.0601 330.785 37.9313 331.456 38.4209C334.033 40.3008 336.597 40.5289 338.543 39.8032C340.484 39.0795 342.211 37.2587 342.821 34.2205C343.861 29.0386 341.972 23.198 339.778 17.7037C339.563 17.165 339.335 16.6147 339.103 16.0528C339.057 15.9435 339.012 15.8338 338.966 15.7236Z" fill="#8B2AB9"/>
<path fill-rule="evenodd" clip-rule="evenodd" d="M32.0391 94.4599C34.511 94.0113 37.8399 93.5596 40.9495 94.8303C42.0002 95.2597 43.0919 95.926 43.7463 97.0364C44.1802 97.7726 44.3251 98.5318 44.2848 99.2442C48.2108 99.2443 52.396 99.3225 56.5908 101.55C58.9289 102.792 61.0813 105.054 62.1967 107.656C63.342 110.327 63.4968 113.709 61.0918 116.524C58.5382 119.512 54.8691 121.256 51.2538 122.265C47.7479 123.243 44.066 123.593 40.96 123.618C38.5454 128.267 34.5778 132.024 28.5224 133.388C20.8939 135.105 11.9649 133.257 6.30725 127.248C2.30632 122.999 0.678331 116.337 0.420188 110.958C0.207731 110.51 0.0784802 110.033 0.0269728 109.55C-0.185155 107.561 0.884522 105.699 2.15985 104.467C4.27614 102.423 6.89818 101.133 9.39163 100.173C10.6477 99.6892 11.9177 99.2727 13.1144 98.8896C13.341 98.8171 13.564 98.7461 13.7838 98.6761L13.7838 98.6761L13.7839 98.676C14.7466 98.3694 15.6464 98.0827 16.5056 97.7798C17.0936 97.5725 17.7066 97.596 18.2465 97.803C22.7241 96.5591 27.3523 95.3106 32.0391 94.4599ZM42.9467 118.477C45.2083 118.345 47.6268 118.01 49.8981 117.376C53.0093 116.508 55.6054 115.147 57.2509 113.221C58.0538 112.282 58.1676 111.102 57.5494 109.66C56.9013 108.149 55.5678 106.748 54.2239 106.034C51.1385 104.396 48.0662 104.322 43.9578 104.319C44.4124 108.925 44.1967 113.918 42.9467 118.477ZM38.1237 99.9023C38.0755 99.6777 38.0586 99.4534 38.0701 99.2341C36.6245 98.9279 34.9201 99.0935 32.9398 99.4529C28.1063 100.33 23.2969 101.662 18.4223 103.02C17.9206 103.16 17.4121 103.138 16.9523 102.985C16.3985 103.167 15.8384 103.346 15.2862 103.521L15.2844 103.522L15.2827 103.522C15.0712 103.59 14.8608 103.657 14.6523 103.724C13.468 104.103 12.3155 104.482 11.2043 104.91C8.96324 105.773 7.07171 106.767 5.66885 108.122C5.53816 108.248 5.43048 108.373 5.34372 108.491C13.5826 108.875 22.1632 106.979 30.1483 104.209C30.9321 103.937 34.6169 102.343 37.2337 100.555C37.5635 100.329 37.8611 100.111 38.1237 99.9023ZM37.948 117.558C39.0551 113.787 39.3163 109.508 38.9821 105.461C36.1121 107.232 32.7895 108.662 31.8016 109.005C23.6883 111.819 14.6671 113.886 5.75279 113.586C6.32783 117.47 7.7102 121.348 9.98507 123.764C14.1835 128.223 21.1677 129.843 27.4143 128.437C33.0621 127.165 36.3371 123.044 37.948 117.558Z" fill="#8B2AB9"/>
</svg>
