<svg width="33" height="34" viewBox="0 0 33 34" fill="none" xmlns="http://www.w3.org/2000/svg">
<path d="M14.919 16.6022C14.9887 16.3464 14.8379 16.0826 14.5822 16.0128C14.3265 15.9431 14.0626 16.0938 13.9929 16.3496C13.7643 17.1877 13.5548 18.0304 13.347 18.867L13.3158 18.9923C13.0971 19.872 12.8791 20.7447 12.6388 21.6098C12.6143 21.6979 12.5899 21.7984 12.5635 21.9072C12.4999 22.169 12.4248 22.4786 12.309 22.7785C12.2293 22.9846 12.1471 23.1367 12.0694 23.2285C12.0326 23.2721 12.0069 23.2899 11.9957 23.296C11.9947 23.2965 11.9939 23.2969 11.9932 23.2973L11.9918 23.2979C11.65 23.2851 11.2453 23.0109 10.8192 22.5104C10.4122 22.0322 10.0749 21.4542 9.85146 21.0513C9.3752 20.1929 9.11478 19.1701 8.85226 18.139L8.82503 18.032C8.75955 17.7752 8.49824 17.62 8.24137 17.6855C7.9845 17.751 7.82935 18.0123 7.89482 18.2691C7.90732 18.3182 7.91988 18.3676 7.93253 18.4174C8.18593 19.4143 8.47375 20.5468 9.01204 21.517C9.23989 21.9277 9.61539 22.5771 10.0883 23.1326C10.5413 23.6648 11.183 24.2305 11.9608 24.2574C12.3404 24.2704 12.6202 24.0638 12.8024 23.8484C12.9813 23.6369 13.1097 23.3697 13.2044 23.1243C13.3454 22.7594 13.4494 22.3309 13.5144 22.0633C13.5347 21.9798 13.5511 21.912 13.5637 21.8667C13.808 20.9873 14.029 20.1025 14.2474 19.2239L14.2777 19.1018C14.4863 18.2626 14.6934 17.4294 14.919 16.6022Z" fill="#58405C"/>
<path d="M9.68277 23.2813C9.59362 23.0316 9.31897 22.9016 9.06933 22.9907C8.81969 23.0799 8.68959 23.3545 8.77875 23.6042C8.89952 23.9423 8.98313 24.2943 9.0601 24.6685C9.08419 24.7856 9.10808 24.9074 9.1325 25.0319C9.18371 25.2929 9.23722 25.5657 9.29946 25.8303C9.36017 26.0883 9.61857 26.2483 9.87661 26.1876C10.1346 26.1268 10.2946 25.8684 10.2339 25.6104C10.1756 25.3627 10.1284 25.1216 10.0793 24.8712L10.0793 24.871C10.054 24.7422 10.0283 24.6109 10.0004 24.4751C9.92049 24.0869 9.82625 23.683 9.68277 23.2813Z" fill="#58405C"/>
<path d="M14.7963 21.1715C15.0518 21.1006 15.3163 21.2501 15.3873 21.5055L16.0572 23.9171C16.1281 24.1726 15.9786 24.4371 15.7232 24.5081C15.4677 24.579 15.2032 24.4295 15.1322 24.1741L14.4623 21.7625C14.3914 21.5071 14.5409 21.2425 14.7963 21.1715Z" fill="#58405C"/>
<path d="M13.5252 27.8674C13.6905 27.798 13.8087 27.7967 13.8959 27.8159C13.9877 27.8361 14.0853 27.8883 14.1903 27.9864C14.4122 28.1938 14.5986 28.5418 14.7471 28.9131C14.8456 29.1592 15.1249 29.279 15.371 29.1805C15.6171 29.0821 15.7369 28.8027 15.6384 28.5566C15.4779 28.1553 15.2281 27.6424 14.8458 27.2851C14.6486 27.1008 14.4022 26.9446 14.1028 26.8785C13.7988 26.8115 13.4787 26.8458 13.1536 26.9823C12.6445 27.196 12.254 27.5103 12.0046 27.9366C11.7576 28.3587 11.6754 28.8452 11.6988 29.3596C11.7108 29.6244 11.9352 29.8293 12.2001 29.8172C12.4649 29.8052 12.6698 29.5808 12.6577 29.316C12.6401 28.9276 12.7056 28.6393 12.8331 28.4214C12.9581 28.2078 13.1687 28.017 13.5252 27.8674Z" fill="#58405C"/>
<path fill-rule="evenodd" clip-rule="evenodd" d="M13.6751 12.8943C10.3278 13.4484 7.25677 15.2561 5.86194 18.6838C4.70932 21.5162 4.65721 24.634 6.04343 27.4088C7.3364 29.9969 9.81335 31.6286 12.4386 32.4383C17.2858 33.9334 22.939 32.4308 25.9259 28.0847C26.076 27.8662 26.0207 27.5674 25.8022 27.4172C25.5837 27.2671 25.2849 27.3225 25.1348 27.541C22.4186 31.4932 17.226 32.9104 12.7215 31.521C10.2628 30.7627 8.04372 29.2648 6.90218 26.9797C5.65602 24.4853 5.68758 21.659 6.75108 19.0456C7.98654 16.0096 10.7152 14.3573 13.8319 13.8413C16.9569 13.324 20.4072 13.9652 22.9514 15.4547C25.5427 16.9718 26.8661 19.5937 27.2493 22.5991C27.4014 23.7911 27.4138 24.9349 27.0976 26.0428C26.6844 27.4907 26.0236 28.3897 24.9064 29.4152C24.7112 29.5944 24.6982 29.898 24.8774 30.0933C25.0567 30.2886 25.3603 30.3016 25.5556 30.1224C26.7662 29.0112 27.5467 27.9672 28.0207 26.3062C28.3869 25.0228 28.3617 23.7336 28.2016 22.4777C27.7925 19.2701 26.3561 16.3356 23.4364 14.6263C20.6925 13.0199 17.0142 12.3415 13.6751 12.8943Z" fill="#58405C"/>
<path d="M24.7927 3.20778C23.997 2.60843 22.93 2.2923 21.9823 2.24912C21.7175 2.23705 21.493 2.44193 21.481 2.70674C21.4689 2.97155 21.6738 3.196 21.9386 3.20807C22.732 3.24422 23.6025 3.51302 24.2151 3.97453C24.3594 4.08321 24.5861 4.27741 24.7369 4.47756C24.8128 4.57843 24.8478 4.65255 24.8588 4.69556L24.8594 4.69785C24.8084 4.76575 24.7198 4.84224 24.575 4.92398C24.418 5.01263 24.2236 5.09173 23.9992 5.17063C23.8642 5.21808 23.7501 5.25516 23.6324 5.29343C23.5312 5.32633 23.4272 5.36012 23.305 5.40212C23.077 5.48049 22.8345 5.5722 22.6279 5.68985C22.3155 5.86783 22.078 6.08882 21.931 6.36106C21.7825 6.63591 21.7483 6.92175 21.7737 7.18909C21.8168 7.64282 22.0448 8.10761 22.2208 8.46652L22.2209 8.46666C22.2367 8.49884 22.2521 8.53017 22.2668 8.56056C22.3828 8.79895 22.67 8.89824 22.9084 8.78232C23.1468 8.66641 23.2461 8.37918 23.1301 8.14079L23.1115 8.10255C22.9073 7.68266 22.7552 7.36996 22.7294 7.09833C22.718 6.97853 22.7355 6.89141 22.7755 6.81736C22.8169 6.74071 22.9049 6.63687 23.1031 6.52397C23.2271 6.45333 23.3979 6.38526 23.617 6.30995C23.6957 6.28291 23.7965 6.24988 23.903 6.215C24.044 6.16881 24.1949 6.11936 24.3175 6.07626C24.5593 5.99126 24.8163 5.89015 25.047 5.75988C25.2763 5.63042 25.5092 5.45594 25.6726 5.20968C25.8395 4.95832 25.8471 4.68531 25.7887 4.45728C25.7335 4.24188 25.6174 4.05099 25.5036 3.9C25.275 3.59644 24.9676 3.33954 24.7927 3.20778Z" fill="#58405C"/>
<path d="M21.8658 10.3343C21.6612 10.1658 21.3587 10.195 21.1902 10.3996C21.0216 10.6042 21.0509 10.9067 21.2555 11.0753L21.5198 11.293C21.7244 11.4616 22.0269 11.4323 22.1955 11.2277C22.364 11.0231 22.3348 10.7206 22.1302 10.5521L21.8658 10.3343Z" fill="#58405C"/>
<path d="M19.614 1.61602C19.6377 1.28109 19.45 1.00532 19.1947 1.00008C18.9394 0.994831 18.7132 1.26209 18.6895 1.59702C18.608 2.74753 18.3569 3.81871 18.0842 4.98171C18.0213 5.24997 17.9573 5.52312 17.8939 5.80326C17.8199 6.13046 17.9589 6.45386 18.2044 6.52559C18.4499 6.59732 18.7089 6.39023 18.7829 6.06303C18.8399 5.81098 18.8997 5.55663 18.9601 5.29979C19.2352 4.12933 19.5226 2.90716 19.614 1.61602Z" fill="#58405C"/>
<path d="M18.2843 8.5669C18.0796 8.38647 17.7885 8.469 17.6342 8.75123C17.4798 9.03345 17.5207 9.40851 17.7255 9.58893L17.9126 9.75377C18.1174 9.93419 18.4084 9.85167 18.5628 9.56944C18.7171 9.28721 18.6762 8.91216 18.4714 8.73174L18.2843 8.5669Z" fill="#58405C"/>
<path d="M14.919 16.6022C14.9887 16.3464 14.8379 16.0826 14.5822 16.0128C14.3265 15.9431 14.0626 16.0938 13.9929 16.3496C13.7643 17.1877 13.5548 18.0304 13.347 18.867L13.3158 18.9923C13.0971 19.872 12.8791 20.7447 12.6388 21.6098C12.6143 21.6979 12.5899 21.7984 12.5635 21.9072C12.4999 22.169 12.4248 22.4786 12.309 22.7785C12.2293 22.9846 12.1471 23.1367 12.0694 23.2285C12.0326 23.2721 12.0069 23.2899 11.9957 23.296C11.9947 23.2965 11.9939 23.2969 11.9932 23.2973L11.9918 23.2979C11.65 23.2851 11.2453 23.0109 10.8192 22.5104C10.4122 22.0322 10.0749 21.4542 9.85146 21.0513C9.3752 20.1929 9.11478 19.1701 8.85226 18.139L8.82503 18.032C8.75955 17.7752 8.49824 17.62 8.24137 17.6855C7.9845 17.751 7.82935 18.0123 7.89482 18.2691C7.90732 18.3182 7.91988 18.3676 7.93253 18.4174C8.18593 19.4143 8.47375 20.5468 9.01204 21.517C9.23989 21.9277 9.61539 22.5771 10.0883 23.1326C10.5413 23.6648 11.183 24.2305 11.9608 24.2574C12.3404 24.2704 12.6202 24.0638 12.8024 23.8484C12.9813 23.6369 13.1097 23.3697 13.2044 23.1243C13.3454 22.7594 13.4494 22.3309 13.5144 22.0633C13.5347 21.9798 13.5511 21.912 13.5637 21.8667C13.808 20.9873 14.029 20.1025 14.2474 19.2239L14.2777 19.1018C14.4863 18.2626 14.6934 17.4294 14.919 16.6022Z" stroke="#58405C" stroke-width="0.3" stroke-linecap="round"/>
<path d="M9.68277 23.2813C9.59362 23.0316 9.31897 22.9016 9.06933 22.9907C8.81969 23.0799 8.68959 23.3545 8.77875 23.6042C8.89952 23.9423 8.98313 24.2943 9.0601 24.6685C9.08419 24.7856 9.10808 24.9074 9.1325 25.0319C9.18371 25.2929 9.23722 25.5657 9.29946 25.8303C9.36017 26.0883 9.61857 26.2483 9.87661 26.1876C10.1346 26.1268 10.2946 25.8684 10.2339 25.6104C10.1756 25.3627 10.1284 25.1216 10.0793 24.8712L10.0793 24.871C10.054 24.7422 10.0283 24.6109 10.0004 24.4751C9.92049 24.0869 9.82625 23.683 9.68277 23.2813Z" stroke="#58405C" stroke-width="0.3" stroke-linecap="round"/>
<path d="M14.7963 21.1715C15.0518 21.1006 15.3163 21.2501 15.3873 21.5055L16.0572 23.9171C16.1281 24.1726 15.9786 24.4371 15.7232 24.5081C15.4677 24.579 15.2032 24.4295 15.1322 24.1741L14.4623 21.7625C14.3914 21.5071 14.5409 21.2425 14.7963 21.1715Z" stroke="#58405C" stroke-width="0.3" stroke-linecap="round"/>
<path d="M13.5252 27.8674C13.6905 27.798 13.8087 27.7967 13.8959 27.8159C13.9877 27.8361 14.0853 27.8883 14.1903 27.9864C14.4122 28.1938 14.5986 28.5418 14.7471 28.9131C14.8456 29.1592 15.1249 29.279 15.371 29.1805C15.6171 29.0821 15.7369 28.8027 15.6384 28.5566C15.4779 28.1553 15.2281 27.6424 14.8458 27.2851C14.6486 27.1008 14.4022 26.9446 14.1028 26.8785C13.7988 26.8115 13.4787 26.8458 13.1536 26.9823C12.6445 27.196 12.254 27.5103 12.0046 27.9366C11.7576 28.3587 11.6754 28.8452 11.6988 29.3596C11.7108 29.6244 11.9352 29.8293 12.2001 29.8172C12.4649 29.8052 12.6698 29.5808 12.6577 29.316C12.6401 28.9276 12.7056 28.6393 12.8331 28.4214C12.9581 28.2078 13.1687 28.017 13.5252 27.8674Z" stroke="#58405C" stroke-width="0.3" stroke-linecap="round"/>
<path fill-rule="evenodd" clip-rule="evenodd" d="M13.6751 12.8943C10.3278 13.4484 7.25677 15.2561 5.86194 18.6838C4.70932 21.5162 4.65721 24.634 6.04343 27.4088C7.3364 29.9969 9.81335 31.6286 12.4386 32.4383C17.2858 33.9334 22.939 32.4308 25.9259 28.0847C26.076 27.8662 26.0207 27.5674 25.8022 27.4172C25.5837 27.2671 25.2849 27.3225 25.1348 27.541C22.4186 31.4932 17.226 32.9104 12.7215 31.521C10.2628 30.7627 8.04372 29.2648 6.90218 26.9797C5.65602 24.4853 5.68758 21.659 6.75108 19.0456C7.98654 16.0096 10.7152 14.3573 13.8319 13.8413C16.9569 13.324 20.4072 13.9652 22.9514 15.4547C25.5427 16.9718 26.8661 19.5937 27.2493 22.5991C27.4014 23.7911 27.4138 24.9349 27.0976 26.0428C26.6844 27.4907 26.0236 28.3897 24.9064 29.4152C24.7112 29.5944 24.6982 29.898 24.8774 30.0933C25.0567 30.2886 25.3603 30.3016 25.5556 30.1224C26.7662 29.0112 27.5467 27.9672 28.0207 26.3062C28.3869 25.0228 28.3617 23.7336 28.2016 22.4777C27.7925 19.2701 26.3561 16.3356 23.4364 14.6263C20.6925 13.0199 17.0142 12.3415 13.6751 12.8943Z" stroke="#58405C" stroke-width="0.3" stroke-linecap="round"/>
<path d="M24.7927 3.20778C23.997 2.60843 22.93 2.2923 21.9823 2.24912C21.7175 2.23705 21.493 2.44193 21.481 2.70674C21.4689 2.97155 21.6738 3.196 21.9386 3.20807C22.732 3.24422 23.6025 3.51302 24.2151 3.97453C24.3594 4.08321 24.5861 4.27741 24.7369 4.47756C24.8128 4.57843 24.8478 4.65255 24.8588 4.69556L24.8594 4.69785C24.8084 4.76575 24.7198 4.84224 24.575 4.92398C24.418 5.01263 24.2236 5.09173 23.9992 5.17063C23.8642 5.21808 23.7501 5.25516 23.6324 5.29343C23.5312 5.32633 23.4272 5.36012 23.305 5.40212C23.077 5.48049 22.8345 5.5722 22.6279 5.68985C22.3155 5.86783 22.078 6.08882 21.931 6.36106C21.7825 6.63591 21.7483 6.92175 21.7737 7.18909C21.8168 7.64282 22.0448 8.10761 22.2208 8.46652L22.2209 8.46666C22.2367 8.49884 22.2521 8.53017 22.2668 8.56056C22.3828 8.79895 22.67 8.89824 22.9084 8.78232C23.1468 8.66641 23.2461 8.37918 23.1301 8.14079L23.1115 8.10255C22.9073 7.68266 22.7552 7.36996 22.7294 7.09833C22.718 6.97853 22.7355 6.89141 22.7755 6.81736C22.8169 6.74071 22.9049 6.63687 23.1031 6.52397C23.2271 6.45333 23.3979 6.38526 23.617 6.30995C23.6957 6.28291 23.7965 6.24988 23.903 6.215C24.044 6.16881 24.1949 6.11936 24.3175 6.07626C24.5593 5.99126 24.8163 5.89015 25.047 5.75988C25.2763 5.63042 25.5092 5.45594 25.6726 5.20968C25.8395 4.95832 25.8471 4.68531 25.7887 4.45728C25.7335 4.24188 25.6174 4.05099 25.5036 3.9C25.275 3.59644 24.9676 3.33954 24.7927 3.20778Z" stroke="#58405C" stroke-width="0.3" stroke-linecap="round"/>
<path d="M21.8658 10.3343C21.6612 10.1658 21.3587 10.195 21.1902 10.3996C21.0216 10.6042 21.0509 10.9067 21.2555 11.0753L21.5198 11.293C21.7244 11.4616 22.0269 11.4323 22.1955 11.2277C22.364 11.0231 22.3348 10.7206 22.1302 10.5521L21.8658 10.3343Z" stroke="#58405C" stroke-width="0.3" stroke-linecap="round"/>
<path d="M19.614 1.61602C19.6377 1.28109 19.45 1.00532 19.1947 1.00008C18.9394 0.994831 18.7132 1.26209 18.6895 1.59702C18.608 2.74753 18.3569 3.81871 18.0842 4.98171C18.0213 5.24997 17.9573 5.52312 17.8939 5.80326C17.8199 6.13046 17.9589 6.45386 18.2044 6.52559C18.4499 6.59732 18.7089 6.39023 18.7829 6.06303C18.8399 5.81098 18.8997 5.55663 18.9601 5.29979C19.2352 4.12933 19.5226 2.90716 19.614 1.61602Z" stroke="#58405C" stroke-width="0.3" stroke-linecap="round"/>
<path d="M18.2843 8.5669C18.0796 8.38647 17.7885 8.469 17.6342 8.75123C17.4798 9.03345 17.5207 9.40851 17.7255 9.58893L17.9126 9.75377C18.1174 9.93419 18.4084 9.85167 18.5628 9.56944C18.7171 9.28721 18.6762 8.91216 18.4714 8.73174L18.2843 8.5669Z" stroke="#58405C" stroke-width="0.3" stroke-linecap="round"/>
</svg>
