<svg width="226" height="100" viewBox="0 0 226 100" fill="none" xmlns="http://www.w3.org/2000/svg">
<path d="M102.286 67.5177C107.208 66.6728 109.816 67.5177 117.345 66.7663C118.763 66.9676 120.505 66.7663 122.006 66.7663C123.537 66.7663 128.818 66.7663 130.252 66.7663" stroke="#8B2AB9" stroke-width="2.4845" stroke-linecap="round" stroke-linejoin="round"/>
<path d="M102.286 67.8036C103.069 73.0052 102.645 79.4761 102.645 84.7478C102.645 86.8142 102.645 88.5515 102.645 92.3553C102.645 93.3927 102.645 94.4092 102.645 95.4675" stroke="#8B2AB9" stroke-width="2.4845" stroke-linecap="round" stroke-linejoin="round"/>
<path d="M103.003 95.8133C107.306 94.8912 110.594 95.4675 118.062 95.4675C121.591 95.4675 128.243 94.8912 131.686 94.8912" stroke="#8B2AB9" stroke-width="2.4845" stroke-linecap="round" stroke-linejoin="round"/>
<path d="M130.252 67.4578C130.371 73.1111 130.969 75.3227 130.969 80.944C130.969 82.757 130.969 87.8218 130.969 89.589C130.969 90.6153 130.969 94.4301 131.686 95.4675" stroke="#8B2AB9" stroke-width="2.4845" stroke-linecap="round" stroke-linejoin="round"/>
<path d="M129.894 66.3452C129.894 68.4253 130.023 70.4896 130.009 72.5722C129.994 74.6347 129.906 76.6395 130.21 78.6913C130.466 80.4177 130.536 82.2029 130.686 83.9411C130.796 85.2126 130.644 86.4903 130.587 87.7543C130.543 88.7287 130.445 89.7453 130.571 90.7168C130.749 92.0854 130.757 93.4855 130.757 94.8661" stroke="#8B2AB9" stroke-width="2.4845" stroke-linecap="round" stroke-linejoin="round"/>
<path d="M102.322 67.011C102.307 67.9185 102.207 68.8202 102.207 69.7299C102.207 70.7568 102.189 71.7646 102.035 72.7818C101.966 73.2332 101.983 73.6871 101.948 74.1412C101.891 74.8772 101.842 75.6172 101.894 76.3546C102.016 78.0848 102.035 79.7949 102.035 81.5304C102.035 85.0575 102.265 88.5754 102.265 92.1009C102.265 93.2152 102.189 92.2741 102.38 93.377C102.442 93.738 102.285 94.7672 102.38 95.1218C102.433 95.3203 102.286 95.9523 102.286 96.1592" stroke="#8B2AB9" stroke-width="2.4845" stroke-linecap="round" stroke-linejoin="round"/>
<path d="M107.306 84.8026C107.818 85.2032 108.374 85.5335 108.9 85.9169C109.274 86.1904 109.588 86.548 109.971 86.8078C110.475 87.15 110.818 87.7148 111.22 88.1613C111.433 88.3971 111.672 88.7009 111.915 88.9071C112.11 89.0732 112.233 89.5307 112.477 89.5974" stroke="#8B2AB9" stroke-width="1.24225" stroke-linecap="round" stroke-linejoin="round"/>
<path d="M112.325 88.2058C113.709 87.4755 114.974 86.3661 116.206 85.4111C117.317 84.5498 118.363 83.5474 119.532 82.7676C120.763 81.9465 121.976 81.0496 123.137 80.1315C123.959 79.4824 124.777 78.7809 125.682 78.247C127.489 77.1809 129.241 75.947 130.741 74.4743C131.504 73.7258 132.239 72.886 133.12 72.299" stroke="#8B2AB9" stroke-width="1.24225" stroke-linecap="round" stroke-linejoin="round"/>
<path d="M106.589 82.7323C107.444 83.4907 108.079 84.4211 108.884 85.215C109.085 85.4121 109.175 85.6861 109.368 85.8882C109.51 86.0368 109.688 86.155 109.836 86.3006C110.073 86.5344 110.301 86.7961 110.515 87.0503C110.895 87.503 111.363 87.8939 111.757 88.3136C111.893 88.4578 112.479 89.1028 112.396 89.0784" stroke="#8B2AB9" stroke-width="1.24225" stroke-linecap="round" stroke-linejoin="round"/>
<path d="M113.042 88.8974C113.881 88.0964 114.91 87.6317 115.819 86.925C116.657 86.2737 117.411 85.5207 118.26 84.8868C120.618 83.1282 122.886 81.2632 125.235 79.4931C126.826 78.2945 128.492 77.1681 129.962 75.8229C130.491 75.338 131.039 74.8702 131.599 74.4214C131.888 74.1906 132.115 73.9087 132.403 73.6822" stroke="#8B2AB9" stroke-width="1.24225" stroke-linecap="round" stroke-linejoin="round"/>
<path d="M111.405 87.8767C112.833 86.7408 114.257 85.674 115.589 84.4263C116.331 83.7311 117.106 83.0126 117.933 82.417C119.832 81.0476 121.957 80.0781 123.946 78.8512C125.167 78.0978 126.317 77.2744 127.479 76.4366C127.876 76.1499 128.344 76.0067 128.742 75.7293C128.933 75.5966 129.443 75.3611 129.515 75.1464" stroke="#8B2AB9" stroke-width="1.24225" stroke-linecap="round" stroke-linejoin="round"/>
<path d="M107.57 83.2959C108.262 84.8352 109.53 86.0664 110.381 87.5157C110.658 87.9876 110.852 88.5052 111.192 88.942C111.354 89.1502 111.749 89.6877 112.044 89.6877" stroke="#8B2AB9" stroke-width="1.24225" stroke-linecap="round" stroke-linejoin="round"/>
<path d="M105.103 81.5932C105.578 81.8043 105.966 82.0792 106.399 82.3567C106.539 82.4469 106.652 82.5742 106.807 82.6052" stroke="#8B2AB9" stroke-width="1.24225" stroke-linecap="round" stroke-linejoin="round"/>
<path fill-rule="evenodd" clip-rule="evenodd" d="M111.088 2.64908C110.42 1.49764 109.412 0.428566 107.972 0.0993441C106.474 -0.243263 105.052 0.332712 103.862 1.32878C102.236 2.68973 101.43 4.4575 101.6 6.28913C101.766 8.07584 102.833 9.63075 104.348 10.6963C105.132 11.2473 106.221 11.0686 106.78 10.2973C106.823 10.2383 106.862 10.1774 106.896 10.1152C107.912 10.0082 108.876 9.60586 109.628 9.05244C111.385 7.75887 112.582 5.22193 111.088 2.64908ZM105.541 6.35788C105.402 6.22092 105.245 6.11194 105.078 6.03095C105.076 6.01271 105.074 5.99458 105.072 5.97655C105.021 5.42375 105.22 4.69727 106.12 3.94425C106.811 3.36643 107.133 3.4315 107.183 3.44294C107.292 3.46777 107.635 3.61769 108.061 4.35215C108.464 5.04583 108.269 5.76676 107.54 6.30321C106.764 6.87393 105.989 6.79929 105.541 6.35788Z" fill="#8B2AB9"/>
<path fill-rule="evenodd" clip-rule="evenodd" d="M87.7721 9.86621C89.1898 10.3172 90.6352 11.3012 91.3804 12.4425C92.1836 13.6725 92.3283 14.9938 91.9152 16.1714C91.524 17.2868 90.688 18.1229 89.7867 18.6148C89.0585 19.0123 88.123 19.27 87.1749 19.1345C86.6046 19.4111 85.9005 19.3695 85.357 18.9682C84.4455 18.2952 83.4012 17.1953 82.7554 15.9216C82.1163 14.6611 81.6942 12.827 82.8632 11.1647C84.1845 9.28569 86.3862 9.42528 87.7721 9.86621ZM85.7741 14.1725C85.7945 14.1693 85.8151 14.1664 85.8357 14.1638C86.7911 14.0463 87.6624 14.7134 87.7819 15.654C87.7854 15.6817 87.7893 15.7059 87.7934 15.7271C87.8644 15.7138 87.9669 15.6832 88.0961 15.6127C88.3719 15.4621 88.5532 15.2399 88.6195 15.051C88.6639 14.9243 88.7064 14.6952 88.4474 14.2987C88.2259 13.9595 87.5204 13.3936 86.7 13.1325C86.3163 13.0105 86.0435 13.0011 85.8932 13.027C85.789 13.0449 85.7651 13.0685 85.7299 13.1186C85.6153 13.2816 85.5232 13.5821 85.7741 14.1725Z" fill="#8B2AB9"/>
<path fill-rule="evenodd" clip-rule="evenodd" d="M80.1518 47.7536C80.2547 48.143 80.4871 48.468 80.7929 48.6935C81.2569 49.3058 82.0985 49.5571 82.8499 49.2545C87.0155 47.5768 91.1143 45.7561 95.1813 43.9496L96.2247 43.4862C100.645 41.5239 105.037 39.5918 109.511 37.8567C110.407 37.5092 110.847 36.5126 110.494 35.6307C110.395 35.3832 110.244 35.171 110.059 35.0015C110.6 34.7102 110.967 34.1446 110.967 33.4946C110.967 27.9774 110.93 21.0803 108.94 15.4207C108.799 15.0201 108.547 14.4461 108.034 14.0355C107.743 13.8025 107.356 13.6141 106.891 13.5746C106.434 13.5359 106.044 13.6525 105.754 13.797C105.235 14.0561 104.898 14.4742 104.716 14.7273C104.505 15.0202 104.325 15.3465 104.175 15.6482C103.875 16.2543 103.614 16.9406 103.422 17.4692C103.348 17.6752 103.28 17.8695 103.224 18.0288L103.177 18.1606C103.137 18.2744 103.113 18.341 103.1 18.3755C103.088 18.4089 103.087 18.412 103.093 18.3985C102.879 18.8595 102.672 19.3125 102.468 19.7583C101.503 21.8704 100.611 23.8212 99.4019 25.7029C98.9549 26.3988 98.6258 26.5947 98.4994 26.6456C98.4236 26.6761 98.3271 26.6998 98.1007 26.6066C97.476 26.3493 96.6329 25.5075 95.7232 24.1939C95.7005 24.1612 95.6615 24.1014 95.6091 24.0212C95.389 23.6839 94.9333 22.9856 94.4666 22.4193C94.1684 22.0576 93.7776 21.6344 93.3195 21.3083C92.9057 21.0138 92.1031 20.5618 91.1154 20.7778C90.1911 20.9801 89.6474 21.6243 89.3609 22.0993C89.0685 22.5843 88.8989 23.1232 88.793 23.5684C88.5784 24.4707 88.5301 25.4106 88.5217 25.8587C88.4977 27.1338 88.4263 28.4043 88.3527 29.7114L88.3279 30.1535C88.247 31.6039 88.1703 33.0969 88.1703 34.6083C88.1703 34.758 88.1744 34.9298 88.179 35.1181C88.191 35.6221 88.206 36.2449 88.1525 36.8821C88.1378 37.0576 88.1193 37.2087 88.0988 37.3358C87.858 37.3028 87.5631 37.2297 87.1988 37.1039C86.8565 36.9857 86.5072 36.8413 86.121 36.679L86.0289 36.6402C85.6855 36.4957 85.2988 36.3328 84.9274 36.2008C82.0433 35.1755 79.1039 34.0373 76.2694 32.8711L76.2675 32.8704L76.2618 32.868L76.2418 32.8594L76.1765 32.8311C76.1256 32.8089 76.0623 32.7812 75.9856 32.7475L75.9716 32.7414C75.8072 32.6692 75.5921 32.5748 75.3457 32.4683C74.8546 32.2561 74.2291 31.9914 73.6085 31.7487C73.0042 31.5125 72.3418 31.2722 71.7974 31.1309C71.5492 31.0664 71.1911 30.9855 70.8316 30.9833C70.6671 30.9823 70.3113 30.9932 69.9297 31.1684C69.4484 31.3895 68.9598 31.8724 68.8725 32.6028C68.7676 33.4803 69.0538 34.2785 69.3466 34.8664C69.6501 35.4756 70.0613 36.0552 70.4461 36.5525C70.7263 36.9147 71.0327 37.2832 71.3015 37.6065C71.3982 37.7227 71.4902 37.8335 71.5742 37.9356C71.9292 38.3675 72.1406 38.648 72.2442 38.8294C73.7213 41.4147 75.9644 44.188 78.2229 46.1644C78.4624 46.374 78.7485 46.5843 78.9772 46.7525L79 46.7692C79.2516 46.9542 79.4732 47.1171 79.6763 47.2841C79.8831 47.4542 80.0206 47.5884 80.1046 47.6909C80.1281 47.7195 80.143 47.7404 80.1518 47.7536ZM106.443 19.3671C106.392 19.51 106.326 19.694 106.264 19.8257C106.069 20.246 105.875 20.6717 105.679 21.1013C104.711 23.2202 103.701 25.4317 102.349 27.5375C101.677 28.5833 100.852 29.4069 99.8192 29.8228C98.7357 30.259 97.6678 30.1493 96.755 29.7733C95.1013 29.0922 93.7668 27.4625 92.8424 26.1277C92.7563 26.0034 92.6674 25.8676 92.5732 25.7236L92.5726 25.7228C92.4235 25.4949 92.2611 25.2467 92.0755 24.9917C92.0296 25.3574 92.012 25.7027 92.0078 25.9223C91.9826 27.2647 91.9074 28.5999 91.8343 29.8983L91.8094 30.3418C91.7285 31.7921 91.6571 33.2009 91.6571 34.6083C91.6571 34.6607 91.6593 34.7497 91.6623 34.8668C91.6745 35.3502 91.6988 36.3129 91.6275 37.1644C91.5826 37.6999 91.4918 38.3467 91.2766 38.9233C91.093 39.4156 90.6036 40.4209 89.4142 40.6811C88.1505 40.9576 86.9426 40.6531 86.0448 40.3431C85.5804 40.1827 85.1337 39.9964 84.7519 39.8359L84.6822 39.8066C84.3123 39.6511 84.0158 39.5263 83.7432 39.4294C80.7976 38.3822 77.8043 37.223 74.9249 36.0383C74.8237 35.9967 74.6636 35.9264 74.4579 35.836L74.2637 35.7508L74.2847 35.7763C74.6219 36.1866 75.0153 36.6777 75.2832 37.1465C76.578 39.4127 78.5804 41.8846 80.5393 43.5988C80.6508 43.6964 80.8154 43.8197 81.0774 44.0123L81.113 44.0385C81.3448 44.2089 81.6336 44.4211 81.9113 44.6494C82.1625 44.856 82.5122 45.1575 82.829 45.5487C86.49 44.0443 90.1097 42.4364 93.7566 40.8166L94.7916 40.3569C99.143 38.4254 103.537 36.4913 108.027 34.7431C107.69 34.4301 107.48 33.9865 107.48 33.4946C107.48 28.8749 107.433 23.8084 106.443 19.3671ZM107.596 16.6672C107.596 16.6677 107.592 16.6737 107.582 16.6837C107.591 16.6718 107.596 16.6668 107.596 16.6672ZM105.609 16.4513C105.606 16.4467 105.604 16.4429 105.603 16.4401C105.601 16.4362 105.6 16.4341 105.6 16.4338C105.6 16.4335 105.603 16.4389 105.609 16.4513ZM87.9781 37.7982C87.9779 37.7973 87.9823 37.7867 87.9922 37.7691C87.9834 37.7903 87.9784 37.7991 87.9781 37.7982ZM91.2593 24.0781C91.2457 24.0712 91.2387 24.0664 91.2385 24.0658C91.2384 24.0652 91.2452 24.0687 91.2593 24.0781Z" fill="#8B2AB9"/>
<path fill-rule="evenodd" clip-rule="evenodd" d="M70.5919 25.6217C70.5919 24.5378 69.9201 23.825 69.3682 23.444C68.8259 23.0696 68.1914 22.8534 67.6593 22.7225C66.6249 22.4682 65.3652 22.3953 64.5592 22.5576C62.1202 23.0487 60.3018 24.5708 59.0277 26.2433C58.45 27.0016 58.6061 28.0774 59.3764 28.6461C59.6939 28.8806 60.0661 28.9922 60.4345 28.9895L60.4345 29.0013C60.4345 29.9492 61.215 30.7176 62.1779 30.7176C63.3154 30.7176 65.1992 30.551 66.8642 29.9625C68.4073 29.417 70.5919 28.1773 70.5919 25.6217ZM65.686 26.7317C64.7468 27.0637 63.6187 27.2204 62.7484 27.2683C63.492 26.5799 64.3295 26.1076 65.2579 25.9206C65.262 25.9199 65.3151 25.9112 65.4259 25.9066C65.5352 25.902 65.6729 25.9026 65.8309 25.9112C66.1518 25.9287 66.5036 25.9764 66.8144 26.0529C66.8401 26.0592 66.8649 26.0656 66.8888 26.0719C66.6972 26.2696 66.3411 26.5002 65.686 26.7317Z" fill="#8B2AB9"/>
<path fill-rule="evenodd" clip-rule="evenodd" d="M220.122 72.8837C220.576 73.172 220.852 73.396 221.018 73.554C220.864 73.6707 220.65 73.8085 220.365 73.9607C218.667 74.8685 216.031 75.4967 214.417 75.8813C214.259 75.9189 214.111 75.9542 213.975 75.9872C212.803 76.2704 212.083 77.4497 212.366 78.6213C212.61 79.6292 213.517 80.303 214.511 80.2913C215.733 80.8327 217.173 81.9015 218.228 83.2246C219.327 84.6037 219.76 85.9298 219.579 86.9996C219.564 87.0863 219.549 87.1498 219.536 87.1952C219.413 87.2001 219.17 87.1882 218.772 87.0823C217.509 86.7471 216.001 85.8312 215.265 85.2932C214.786 84.9429 214.212 84.8165 213.667 84.8945C213.618 84.8565 213.569 84.8197 213.519 84.784C212.536 84.0853 211.174 84.315 210.475 85.2972C209.776 86.2793 210.006 87.6419 210.988 88.3406C211.069 88.398 211.36 88.6845 211.704 89.2811C212.024 89.8366 212.292 90.4905 212.432 91.1056C212.58 91.7509 212.545 92.1604 212.487 92.3428C212.484 92.3526 212.482 92.3608 212.48 92.3677C212.471 92.4036 212.47 92.4078 212.366 92.4408C211.888 92.5922 211.118 92.5365 210.162 92.0754C209.225 91.6238 208.415 90.9225 207.968 90.2935C207.27 89.3109 205.907 89.0803 204.925 89.7784C203.942 90.4765 203.712 91.8389 204.41 92.8215C205.319 94.1022 206.724 95.2636 208.266 96.0069C209.787 96.7407 211.757 97.2121 213.684 96.602C215.231 96.1119 216.217 95.0077 216.644 93.6747C216.925 92.798 216.948 91.8871 216.848 91.0512C217.114 91.1453 217.383 91.2296 217.651 91.301C218.645 91.5649 219.998 91.7504 221.281 91.2291C222.762 90.6271 223.613 89.3201 223.882 87.7282C224.353 84.9487 223.142 82.3872 221.641 80.504C221.164 79.9048 220.631 79.3409 220.066 78.8239C220.894 78.5297 221.709 78.1921 222.423 77.81C223.069 77.4648 223.739 77.0306 224.293 76.4809C224.847 75.932 225.404 75.1454 225.549 74.1126C225.859 71.9021 224.182 70.2919 222.464 69.2C219.181 67.113 214.695 66.353 211.195 66.3337C211.046 66.3329 210.642 66.3525 210.131 66.3956C210.372 64.3349 210.101 62.1694 209.361 60.2699C208.174 57.2229 205.593 54.4801 201.563 54.2854C197.213 54.0753 194.429 57.1671 193.425 60.438C192.746 62.6501 192.759 65.2825 193.749 67.5599C193.176 67.5993 192.607 67.6432 192.049 67.6862L192.047 67.6863L192.046 67.6864C191.703 67.7129 191.364 67.739 191.031 67.7636C189.554 67.8725 188.141 67.9547 186.736 67.9326C184.583 67.8988 182.517 67.7826 180.391 67.6631C178.722 67.5692 177.016 67.4733 175.203 67.4135C171.254 67.2833 167.179 67.3537 163.187 68.1607C162.006 68.3996 161.242 69.5509 161.481 70.7324C161.719 71.9138 162.871 72.6779 164.052 72.4391C167.552 71.7316 171.232 71.6499 175.059 71.776C176.614 71.8273 178.274 71.9188 179.956 72.0114C182.222 72.1363 184.527 72.2633 186.667 72.297C188.275 72.3223 189.847 72.2276 191.352 72.1167C191.717 72.0898 192.076 72.0621 192.431 72.0347L192.437 72.0343C193.547 71.9487 194.614 71.8665 195.696 71.8203C195.71 71.8225 195.728 71.8256 195.752 71.8301L195.769 71.8334C195.855 71.8509 196.214 71.9235 196.556 71.9259C197.038 71.9292 197.763 71.8119 198.393 71.2258C198.948 70.7103 199.163 70.0707 199.262 69.6391C199.287 69.5319 199.303 69.4247 199.312 69.3183C199.511 68.5653 199.299 67.73 198.69 67.162C197.419 65.9786 196.965 63.7804 197.597 61.7189C198.212 59.7179 199.592 58.5602 201.352 58.6452C203.185 58.7338 204.538 59.9143 205.294 61.8542C206.072 63.8524 206.019 66.2562 205.243 67.9319C205.081 68.2802 205.02 68.6492 205.046 69.0067C205.019 69.1831 205.012 69.3737 205.029 69.5788C205.086 70.2417 205.403 70.7166 205.65 70.9919C205.893 71.2641 206.159 71.4481 206.358 71.5672C207.371 72.1757 208.68 71.8654 209.316 70.8783C209.689 70.8233 210.09 70.7805 210.443 70.7498C210.809 70.718 211.056 70.705 211.14 70.7005C211.166 70.6992 211.177 70.6986 211.171 70.6986C214.248 70.7155 217.805 71.4107 220.122 72.8837ZM221.252 73.8348C221.251 73.8348 221.247 73.8283 221.242 73.8152C221.25 73.8282 221.252 73.8348 221.252 73.8348ZM219.497 87.2946C219.497 87.2938 219.499 87.2876 219.507 87.278C219.501 87.2905 219.497 87.2953 219.497 87.2946Z" fill="#8B2AB9"/>
<path fill-rule="evenodd" clip-rule="evenodd" d="M5.87772 76.0014C5.42419 76.2897 5.14813 76.5137 4.98262 76.6717C5.13661 76.7884 5.35011 76.9262 5.63474 77.0784C7.3327 77.9862 9.96898 78.6144 11.5831 78.999C11.7409 79.0366 11.8889 79.0719 12.0254 79.1049C13.1969 79.3881 13.9171 80.5674 13.6339 81.739C13.3902 82.747 12.4833 83.4208 11.4887 83.409C10.2673 83.9504 8.82676 85.0192 7.77213 86.3423C6.67292 87.7214 6.24022 89.0475 6.42134 90.1173C6.43602 90.204 6.45103 90.2675 6.46413 90.3129C6.58761 90.3178 6.82989 90.3059 7.22847 90.2C8.4909 89.8648 9.9993 88.9489 10.7352 88.4109C11.2142 88.0606 11.7884 87.9342 12.3328 88.0122C12.3819 87.9742 12.4314 87.9374 12.4815 87.9017C13.4637 87.203 14.8263 87.4327 15.525 88.4149C16.2237 89.397 15.994 90.7596 15.0119 91.4584C14.9312 91.5157 14.6405 91.8022 14.2963 92.3988C13.9758 92.9543 13.7083 93.6082 13.5676 94.2233C13.42 94.8686 13.4547 95.2781 13.5132 95.4605C13.5164 95.4706 13.5185 95.4789 13.5202 95.486C13.5291 95.5219 13.53 95.5255 13.6342 95.5585C14.1125 95.71 14.8821 95.6542 15.8383 95.1931C16.7747 94.7415 17.5853 94.0402 18.0321 93.4113C18.7302 92.4286 20.0927 92.198 21.0753 92.8961C22.0579 93.5942 22.2885 94.9566 21.5905 95.9392C20.6806 97.2199 19.2756 98.3813 17.7344 99.1246C16.213 99.8584 14.2429 100.33 12.3164 99.7197C10.7688 99.2296 9.78358 98.1254 9.35647 96.7924C9.07556 95.9157 9.05202 95.0048 9.1518 94.1689C8.886 94.263 8.61749 94.3473 8.34886 94.4187C7.35508 94.6826 6.0019 94.8681 4.71947 94.3468C3.23851 93.7448 2.38719 92.4378 2.11769 90.8459C1.64715 88.0664 2.85784 85.5049 4.35884 83.6217C4.83649 83.0225 5.36864 82.4586 5.93396 81.9416C5.10617 81.6473 4.29148 81.3098 3.57679 80.9277C2.93111 80.5825 2.261 80.1483 1.70693 79.5986C1.15368 79.0497 0.595891 78.2631 0.451058 77.2303C0.141089 75.0198 1.81851 73.4096 3.53619 72.3177C6.81955 70.2307 11.3051 69.4707 14.8057 69.4515C14.9538 69.4506 15.3579 69.4702 15.8689 69.5133C15.6278 67.4526 15.8991 65.2872 16.6391 63.3876C17.826 60.3406 20.4069 57.5978 24.4373 57.4031C28.7874 57.193 31.5715 60.2848 32.5756 63.5557C33.2546 65.7678 33.2414 68.4002 32.2509 70.6777C32.8246 70.717 33.3932 70.7609 33.9509 70.8039C34.2949 70.8305 34.6348 70.8567 34.9691 70.8813C36.4462 70.9902 37.8592 71.0724 39.2642 71.0503C41.4171 71.0165 43.4832 70.9003 45.6091 70.7807C47.278 70.6869 48.984 70.591 50.7975 70.5312C54.7457 70.4011 58.8206 70.4714 62.8127 71.2785C63.9942 71.5173 64.7583 72.6687 64.5195 73.8501C64.2806 75.0315 63.1292 75.7956 61.9478 75.5568C58.4483 74.8493 54.7682 74.7676 50.9413 74.8937C49.3858 74.945 47.7256 75.0365 46.044 75.1291C43.778 75.254 41.473 75.381 39.3328 75.4147C37.7251 75.44 36.1529 75.3453 34.6483 75.2344C34.282 75.2074 33.9219 75.1796 33.5661 75.1522L33.5624 75.1519C32.453 75.0664 31.3857 74.9842 30.3037 74.938C30.2903 74.9402 30.2718 74.9433 30.2477 74.9478L30.2311 74.9511C30.1449 74.9686 29.7863 75.0412 29.444 75.0436C28.9625 75.0469 28.237 74.9296 27.6066 74.3435C27.0521 73.828 26.8371 73.1884 26.7376 72.7568C26.7129 72.6493 26.6965 72.5419 26.6881 72.4352C26.4896 71.6824 26.7012 70.8475 27.3106 70.2798C28.5807 69.0963 29.0356 66.8981 28.4028 64.8366C27.7886 62.8356 26.4085 61.6779 24.6479 61.7629C22.8151 61.8515 21.462 63.032 20.7063 64.9719C19.9279 66.9701 19.9808 69.3739 20.7573 71.0496C20.9187 71.3979 20.9805 71.7669 20.9544 72.1244C20.9809 72.3008 20.9884 72.4914 20.9707 72.6965C20.9137 73.3594 20.5968 73.8344 20.3507 74.1096C20.1073 74.3818 19.8409 74.5658 19.6424 74.6849C18.6289 75.2934 17.3198 74.9831 16.6845 73.996C16.3107 73.941 15.9102 73.8982 15.557 73.8675C15.1911 73.8357 14.9441 73.8227 14.8599 73.8182C14.834 73.8169 14.8233 73.8163 14.8297 73.8163C11.7523 73.8332 8.19512 74.5284 5.87772 76.0014ZM4.74861 76.9525C4.74927 76.9525 4.75297 76.946 4.75773 76.9329C4.75032 76.9459 4.74794 76.9525 4.74861 76.9525ZM4.70778 76.4172L4.71022 76.421C4.70806 76.418 4.70713 76.4165 4.70721 76.4165L4.70778 76.4172ZM6.50324 90.4123C6.50357 90.4115 6.50064 90.4053 6.4935 90.3957C6.49934 90.4082 6.50292 90.413 6.50324 90.4123Z" fill="#8B2AB9"/>
</svg>
