<svg width="33" height="32" viewBox="0 0 33 32" fill="none" xmlns="http://www.w3.org/2000/svg">
<path d="M4.07135 16.4971C4.07135 18.464 5.17211 20.1673 6.37438 21.6484C7.99529 23.6452 10.6616 24.8355 13.1368 25.2865C16.5942 25.9163 20.0896 25.1729 23.106 23.4079C25.7133 21.8822 27.7718 19.1197 28.2512 16.1039C29.3149 9.41339 22.7489 3.87422 16.415 4.00217C13.222 4.06667 10.0101 5.32287 7.85292 7.73556C6.6188 9.1159 5.59059 10.6832 4.86413 12.3864C4.15644 14.0457 4.05649 15.6436 4 17.4265M12.9003 21.1814C11.5852 21.4522 10.1658 19.7876 11.0775 18.6273C11.9522 17.514 13.7195 18.1763 14.318 19.2236M14.5205 19.2911C14.1413 19.4571 14.7578 18.4649 14.8056 18.3985C15.2686 17.7543 15.9734 17.0652 16.7146 16.7633C18.45 16.0563 17.4103 18.4464 17.1534 19.0886M17.2884 18.9536C17.9971 18.5175 19.3192 18.2915 19.9851 18.9573C20.6914 19.6636 19.3076 20.2834 18.8412 20.4388M18.5036 20.7089C19.0006 20.536 20.4353 20.8634 20.1764 21.669C19.9902 22.2483 19.2036 22.5992 18.6386 22.5992M12.9678 21.249C13.126 21.427 12.9472 21.4696 12.859 21.6053C12.4645 22.2121 12.1302 22.8498 11.7001 23.4355C10.6189 24.9077 9.26082 26.3153 8.51208 28M11.3015 12.6149C11.4218 13.141 11.3691 13.698 11.3691 14.2352M20.0179 12.0001C20.1036 11.9252 20.154 12.7413 20.1562 12.8836C20.1624 13.2835 20.2254 13.675 20.2254 14.0744" stroke="#58405C" stroke-width="1.2" stroke-linecap="round"/>
</svg>
