<svg width="312" height="253" viewBox="0 0 312 253" fill="none" xmlns="http://www.w3.org/2000/svg">
<path fill-rule="evenodd" clip-rule="evenodd" d="M40.049 77.061C33.0135 74.7158 24.9368 78.2495 18.5544 83.6026C11.0841 89.868 8.46024 97.0061 7.27084 106.918C7.04053 108.837 5.29797 110.206 3.37875 109.976C1.45953 109.746 0.0903931 108.003 0.320709 106.084C1.63379 95.1413 4.74475 86.0487 14.0561 78.2392C20.999 72.4161 31.6697 66.8892 42.2626 70.4202C53.3988 74.1323 60.2436 81.9163 65.2765 90.6064C67.7799 94.9288 69.873 99.5403 71.8244 104.035C72.272 105.066 72.7107 106.087 73.1451 107.099L73.1455 107.1L73.1458 107.1C74.63 110.555 76.063 113.891 77.6216 117.081C78.4702 118.818 77.7503 120.914 76.0135 121.762C74.2768 122.611 72.1809 121.891 71.3323 120.154C69.6909 116.795 68.1668 113.246 66.6707 109.763L66.6664 109.753C66.2439 108.769 65.8236 107.791 65.4035 106.823C63.4688 102.367 61.5082 98.067 59.2191 94.1147C54.6673 86.2553 48.9731 80.0357 40.049 77.061ZM269.835 118.515C276.961 117.028 284.373 117.137 291.514 119.896C296.002 121.63 300.835 124.692 304.636 128.641C308.418 132.571 311.465 137.691 311.674 143.529C312.151 156.882 307.042 166.36 300.413 176.302C299.341 177.91 297.168 178.345 295.56 177.273C293.951 176.201 293.517 174.028 294.589 172.419C300.985 162.825 305.075 154.883 304.678 143.779C304.553 140.262 302.672 136.695 299.592 133.495C296.532 130.315 292.57 127.808 288.991 126.425C283.37 124.253 277.372 124.093 271.266 125.368C261.84 127.336 252.612 131.857 246.557 138.943C246.265 139.284 245.842 139.746 245.403 140.225L245.402 140.226L245.402 140.227L245.401 140.227L245.386 140.244C245.245 140.398 245.103 140.553 244.963 140.707C244.341 141.389 243.667 142.142 243.036 142.904C242.397 143.677 241.858 144.393 241.481 145C241.22 145.421 241.12 145.658 241.087 145.737C241.078 145.757 241.074 145.767 241.073 145.766C241.072 145.766 241.072 145.765 241.072 145.764C240.822 147.645 239.112 148.99 237.216 148.78C235.295 148.566 233.911 146.836 234.124 144.915C234.282 143.496 234.981 142.198 235.535 141.306C236.15 140.316 236.912 139.326 237.642 138.443C238.381 137.549 239.145 136.698 239.788 135.992C239.987 135.774 240.168 135.577 240.331 135.398L240.332 135.398L240.332 135.397L240.333 135.396C240.732 134.961 241.028 134.638 241.235 134.395C248.566 125.817 259.356 120.703 269.835 118.515ZM206.803 206.707C206.398 204.817 204.538 203.613 202.647 204.018C193.683 205.939 182.923 210.853 179.147 221.483C175.81 230.875 178.56 241.571 187.129 247.452C195.352 253.095 206.461 254.382 215.772 250.308C218.843 248.965 221.901 246.463 224.326 243.665C225.816 241.944 227.189 239.97 228.203 237.894C230.182 239.083 232.513 239.963 234.665 240.617C237.476 241.47 240.344 242.041 242.518 242.37C244.356 242.649 247.802 242.891 250.757 242.221C252.199 241.895 254.069 241.233 255.417 239.728C256.996 237.964 257.317 235.675 256.633 233.41C255.485 229.613 253.166 225.765 250.236 222.626C247.316 219.499 243.552 216.826 239.358 215.753C237.486 215.274 235.579 216.404 235.1 218.277C234.621 220.149 235.751 222.056 237.623 222.535C240.15 223.181 242.809 224.929 245.119 227.403C247.351 229.794 249.034 232.627 249.86 235.206C249.706 235.264 249.494 235.33 249.21 235.395C247.47 235.789 245.007 235.667 243.566 235.449C241.636 235.157 239.111 234.651 236.699 233.919C234.299 233.19 232.325 232.329 231.115 231.435C231.088 231.393 231.047 231.326 230.992 231.227C230.918 231.095 230.853 230.967 230.763 230.792L230.762 230.791L230.705 230.679L230.702 230.672C230.606 230.487 230.441 230.165 230.251 229.866L230.239 229.848C230.116 229.654 229.61 228.853 228.661 228.355C228.036 228.026 227.146 227.792 226.14 228.018C225.195 228.23 224.565 228.755 224.213 229.133C223.599 229.794 223.319 230.564 223.2 230.905C223.042 231.361 222.907 231.881 222.786 232.429C222.352 234.382 221.003 236.809 219.035 239.082C217.075 241.344 214.82 243.084 212.966 243.895C205.96 246.961 197.401 246.012 191.09 241.68C185.407 237.781 183.355 230.549 185.743 223.827C188.268 216.719 195.875 212.629 204.114 210.863C206.004 210.458 207.208 208.597 206.803 206.707ZM48.2061 157.13C47.6146 156.835 46.9023 156.455 46.1026 156.028C43.3841 154.578 39.6562 152.589 36.2331 151.54C33.9759 150.848 32.7651 150.88 32.3412 151.021C32.2837 151.17 32.1604 151.62 32.229 152.58C32.4254 155.329 34.165 157.685 36.8689 160.201C37.4365 160.372 37.9564 160.601 38.4162 160.879C38.7944 161.107 39.2053 161.413 39.5695 161.816C39.7844 162.053 40.5916 162.969 40.5964 164.382C40.5995 165.28 40.2562 166.328 39.3658 167.104C38.5738 167.794 37.7078 167.954 37.2173 167.988C36.2934 168.052 35.5478 167.76 35.2137 167.615C34.7321 167.405 34.2513 167.113 33.7765 166.763C29.5521 166.427 25.6776 168.058 23.2534 170.709C20.7485 173.448 19.682 177.37 21.5369 181.856C22.9899 185.37 24.9528 189.098 27.4357 192.149C29.925 195.209 32.7596 197.377 35.9315 198.208C39.515 199.146 43.4045 197.777 47.65 194.741C51.1864 192.212 54.407 188.946 57.3255 185.985C57.8951 185.407 58.4532 184.841 58.9999 184.294C60.3667 182.928 62.5828 182.928 63.9496 184.294C65.3164 185.661 65.3164 187.877 63.9496 189.244C63.4713 189.722 62.9619 190.24 62.4245 190.786L62.4244 190.786C59.5214 193.737 55.7994 197.519 51.7218 200.435C46.9081 203.878 40.7878 206.716 34.158 204.979C29.0603 203.644 25.0547 200.315 22.0058 196.567C18.9504 192.812 16.6769 188.422 15.068 184.531C12.1388 177.446 13.8152 170.657 18.0875 165.985C20.6057 163.231 23.9842 161.249 27.7555 160.317C26.4336 158.267 25.4464 155.873 25.2468 153.079C25.116 151.248 25.308 149.458 26.0763 147.893C26.8911 146.233 28.2165 145.111 29.7769 144.506C32.5521 143.431 35.8064 144.088 38.2847 144.848C42.4621 146.128 47.1742 148.652 49.8263 150.073C50.4585 150.412 50.9737 150.688 51.3366 150.869C53.0656 151.734 53.7664 153.836 52.9019 155.565C52.0374 157.294 49.9351 157.995 48.2061 157.13Z" fill="#8B2AB9" fill-opacity="0.3"/>
<path d="M128.323 42.1992C122.844 57.2381 115.04 72.8905 111.688 88.6459C111.359 90.1916 109.846 95.7604 112.529 96.0287C123.158 97.0916 134.819 91.0876 144.303 86.7768" stroke="#8B2AB9" stroke-opacity="0.3" stroke-width="7" stroke-linecap="round"/>
<path d="M107.295 51.4511C109.676 56.5105 110.588 62.1696 112.342 67.4318" stroke="#8B2AB9" stroke-opacity="0.3" stroke-width="7" stroke-linecap="round"/>
<path d="M159.443 36.3116C161.313 42.8006 163.275 49.2327 165.33 55.6566" stroke="#8B2AB9" stroke-opacity="0.3" stroke-width="7" stroke-linecap="round"/>
<path d="M145.232 132.459C148.68 135.77 154.14 136.211 158.439 134.616C164.466 132.38 166.697 127.376 167.016 121.312" stroke="#8B2AB9" stroke-opacity="0.3" stroke-width="7" stroke-linecap="round"/>
<path d="M81.6578 95.3617C86.9888 113.921 92.1995 128.678 106.995 141.756C113.523 147.527 121.26 152.118 129.516 154.931C149.706 161.811 172.337 161.839 193.083 157.634C211.254 153.951 230.139 144.337 240.716 128.75C252.328 111.638 254.749 86.5045 248.543 66.9846C241.804 45.7909 230.19 26.4625 210.369 15.4101C185.06 1.29777 157.878 1.50439 130.867 11.1874C109.06 19.0052 92.0433 35.0785 81.151 55.4422C70.4946 75.3651 73.5202 98.7798 81.6578 118.672" stroke="#8B2AB9" stroke-opacity="0.3" stroke-width="7" stroke-linecap="round"/>
</svg>
