<svg width="288" height="219" viewBox="0 0 288 219" fill="none" xmlns="http://www.w3.org/2000/svg">
<path fill-rule="evenodd" clip-rule="evenodd" d="M249.773 8.27624C249.068 8.72799 248.359 9.41278 247.549 10.2228C246.242 11.5294 245.297 13.3388 244.351 15.6058C241.759 21.8174 239.722 28.2382 237.638 34.8081L237.638 34.8083L237.637 34.8094L237.637 34.8107C237.135 36.3917 236.631 37.9814 236.115 39.5789C235.605 41.1622 234.072 42.131 232.482 41.9918C231.762 42.0534 231.016 41.893 230.352 41.4848C228.035 40.0589 223.489 38.0519 219.797 37.6624C217.925 37.4651 216.886 37.7498 216.417 38.0631C216.197 38.2099 215.6 38.6607 215.625 40.6519C215.672 44.3331 217.576 47.0811 220.732 49.246C223.972 51.4689 228.276 52.8611 232.229 53.5965C232.695 53.6832 233.122 53.8585 233.496 54.1017C233.699 54.0533 233.91 54.0226 234.126 54.0112C236.056 53.9096 237.704 55.3921 237.805 57.3224C238.223 65.2555 237.918 72.9993 237.615 80.7033L237.615 80.7037C237.54 82.6063 237.465 84.5064 237.401 86.4064C236.835 103.259 236.763 120.13 236.763 137.051C236.763 138.984 235.196 140.551 233.263 140.551C231.33 140.551 229.763 138.984 229.763 137.051C229.763 120.122 229.835 103.15 230.405 86.1714C230.472 84.1809 230.549 82.2206 230.625 80.2813C230.889 73.554 231.143 67.0797 230.932 60.4753C226.477 59.6449 221.123 58.003 216.772 55.0183C212.331 51.9718 208.709 47.3316 208.626 40.7405C208.58 37.0981 209.808 34.0604 212.528 32.2427C215 30.5915 218.015 30.4358 220.531 30.701C224.018 31.0688 227.729 32.376 230.636 33.7276L230.925 32.8173L230.925 32.8169C233.015 26.2238 235.168 19.4351 237.891 12.9099C238.901 10.4901 240.272 7.60008 242.599 5.27308L242.641 5.23063C243.384 4.48764 244.584 3.28779 245.997 2.38208C247.434 1.46179 249.64 0.490665 252.2 1.1307C256.702 2.25616 259.009 6.36579 260.238 9.54304C260.947 11.3764 261.453 13.3151 261.829 15.046C263.874 14.1684 265.988 13.478 268.207 13.1477C271.924 12.5944 275.725 13.0784 279.843 14.9608C285.226 17.4217 287.34 22.1099 287.429 26.7845C287.513 31.2538 285.801 35.8358 283.525 39.2498C282.453 40.8582 280.28 41.2928 278.671 40.2205C277.063 39.1483 276.628 36.9753 277.701 35.3669C279.376 32.853 280.481 29.6491 280.43 26.9165C280.382 24.3889 279.408 22.459 276.932 21.3271C273.982 19.9785 271.547 19.7277 269.238 20.0714C266.824 20.4307 264.34 21.4681 261.326 23.0639C259.803 23.8701 257.955 23.4399 256.93 22.1271C256.275 21.6136 255.799 20.8656 255.643 19.9811L255.619 19.8452C255.221 17.5856 254.7 14.6304 253.709 12.0673C252.635 9.2911 251.474 8.17958 250.528 7.92838C250.463 7.93419 250.235 7.9805 249.773 8.27624ZM250.548 7.92815C250.548 7.92848 250.544 7.92872 250.535 7.92785C250.544 7.92738 250.548 7.92781 250.548 7.92815ZM33.8535 34.7103C34.6369 35.0063 35.4729 35.5293 36.4331 36.1541C37.9819 37.1618 39.2807 38.7364 40.6757 40.7584C44.4979 46.2987 47.8203 52.1587 51.2198 58.1547L51.2205 58.1561L51.2216 58.1579C52.0395 59.6005 52.8618 61.051 53.6967 62.5068C54.5244 63.95 56.2242 64.5806 57.7509 64.1151C58.4687 64.0262 59.1653 63.7148 59.7297 63.1781C61.7015 61.3033 65.7332 58.3986 69.2653 57.253C71.0554 56.6724 72.1309 56.7358 72.6545 56.9452C72.8998 57.0434 73.5777 57.3607 73.9653 59.3139C74.6819 62.925 73.3879 66.0078 70.7488 68.7792C68.039 71.6247 64.1163 73.878 60.4014 75.4159C59.9635 75.5972 59.582 75.8571 59.2664 76.1725C59.0575 76.1673 58.8452 76.1808 58.6314 76.2144C56.7219 76.5147 55.4174 78.3061 55.7176 80.2156C56.9517 88.0632 58.8533 95.5762 60.7452 103.05C61.2124 104.896 61.679 106.74 62.1349 108.586C66.1779 124.956 69.7413 141.447 73.2446 158.001C73.6449 159.892 75.5024 161.1 77.3935 160.7C79.2846 160.3 80.4932 158.442 80.0929 156.551C76.5878 139.989 73.0039 123.4 68.9307 106.907C68.4537 104.976 67.973 103.076 67.4976 101.196L67.4968 101.193L67.4961 101.19C65.8449 94.6635 64.2559 88.382 63.0946 81.8771C67.2811 80.1422 72.1796 77.4273 75.8181 73.6064C79.5318 69.7065 82.1145 64.417 80.8314 57.9514C80.1224 54.3784 78.2918 51.6608 75.2539 50.4458C72.4943 49.3421 69.5116 49.8141 67.1057 50.5945C63.7704 51.6762 60.4106 53.7235 57.846 55.6478L57.3749 54.8166C53.9644 48.7992 50.4527 42.6034 46.4376 36.7834C44.9486 34.6251 43.0092 32.0815 40.2508 30.2868L40.2005 30.254C39.3199 29.6809 37.898 28.7554 36.3273 28.1621C34.7314 27.5591 32.3721 27.0658 30 28.2221C25.8287 30.2552 24.4222 34.7536 23.8783 38.1163C23.5645 40.0567 23.4699 42.0584 23.4607 43.8296C21.2784 43.3943 19.0678 43.1566 16.8282 43.2929C13.0769 43.5212 9.45878 44.7817 5.82005 47.4758C1.063 50.998 -0.0351503 56.0225 0.846449 60.614C1.68936 65.004 4.31295 69.1321 7.24655 72.001C8.62856 73.3525 10.8445 73.3277 12.196 71.9457C13.5475 70.5637 13.5227 68.3478 12.1407 66.9963C9.98063 64.8839 8.23625 61.9782 7.72088 59.2941C7.24419 56.8114 7.79745 54.7216 9.98545 53.1016C12.5923 51.1714 14.9233 50.4218 17.2534 50.2799C19.6892 50.1317 22.3341 50.6323 25.6136 51.5695C27.2702 52.0429 28.9894 51.2393 29.7195 49.7428C30.2544 49.1047 30.5648 48.2746 30.5343 47.3769L30.5296 47.239C30.4517 44.9459 30.3497 41.9467 30.7885 39.234C31.2638 36.2957 32.1695 34.9679 33.043 34.5263C33.1077 34.5185 33.3406 34.5166 33.8535 34.7103ZM33.0235 34.5302C33.0236 34.5305 33.028 34.5298 33.0359 34.5273C33.0272 34.5286 33.0233 34.5299 33.0235 34.5302Z" fill="#8B2AB9" fill-opacity="0.3"/>
<path d="M76.4455 156.328C76.4455 183.251 99.9674 202.316 123.918 209.874C147.598 217.346 171.493 217.569 193.688 205.239C209.599 196.399 224.263 180.304 229.492 162.641C234.976 144.118 230.129 123.911 217.744 109.335C202.586 91.4961 181.483 85.1536 158.443 85.998C116.533 87.534 77.0473 115.718 73.5684 159.205" stroke="#8B2AB9" stroke-opacity="0.3" stroke-width="7" stroke-linecap="round"/>
<path d="M146.568 185.968C156.491 188.302 169.119 189.659 176.107 180.924" stroke="#8B2AB9" stroke-opacity="0.3" stroke-width="7" stroke-linecap="round"/>
<path d="M115.568 147.871C117.666 152.738 118.643 153.936 123.84 155.304C127.697 156.319 131.656 155.684 135.408 154.465C142.915 152.025 146.857 147.56 146.857 139.78" stroke="#8B2AB9" stroke-opacity="0.3" stroke-width="7" stroke-linecap="round"/>
<path d="M170.592 137.082C173.314 142.365 177.444 147.332 183.809 147.332C190.743 147.332 194.007 140.947 194.868 134.924" stroke="#8B2AB9" stroke-opacity="0.3" stroke-width="7" stroke-linecap="round"/>
</svg>
