<svg width="366" height="101" viewBox="0 0 366 101" fill="none" xmlns="http://www.w3.org/2000/svg">
<rect x="74.7367" y="53.8892" width="216.528" height="39.81" stroke="#8B2AB9" stroke-width="0.970976"/>
<path d="M291.319 93.3201C256.298 93.3201 222.252 93.2866 186.563 93.2866C171.24 93.2866 157.317 93.3253 141.939 93.3253C131.965 93.3253 121.99 93.4916 112.015 93.4916C101.265 93.4916 86.0816 93.1174 75.4986 93.3253" stroke="#8B2AB9" stroke-width="3.8839" stroke-linecap="round" stroke-linejoin="round"/>
<path d="M291.319 93.4445C291.232 93.2257 291.319 87.3105 291.319 83.9909C290.305 80.847 290.889 77.6136 290.889 74.0398C290.889 67.8815 290.889 59.5457 290.889 53.4037" stroke="#8B2AB9" stroke-width="1.94195" stroke-linecap="round" stroke-linejoin="round"/>
<path d="M289.281 54.6113C268.848 54.6113 249.19 54.6113 227.208 54.6113C208.828 54.6113 191.659 54.6113 172.918 54.6113C164.147 54.6113 154.339 54.6113 145.567 54.6113C137.079 54.6113 123.641 54.6113 113.856 54.6113C97.2986 54.6113 82.8498 54.6113 74.3637 54.6113" stroke="#8B2AB9" stroke-width="3.8839" stroke-linecap="round" stroke-linejoin="round"/>
<path d="M74.2514 93.6933C74.2513 90.3413 74.2514 86.6646 74.2514 83.3752C74.2513 79.8005 74.7503 77.4792 74.2514 73.5485C74.2513 67.0124 74.2514 60.8293 74.2513 54.3863" stroke="#8B2AB9" stroke-width="1.94195" stroke-linecap="round" stroke-linejoin="round"/>
<path d="M74.2514 55.8604C75.1368 66.2552 75.2493 84.3579 75.2493 94.1847" stroke="#8B2AB9" stroke-width="3.8839" stroke-linecap="round" stroke-linejoin="round"/>
<path d="M291.045 53.895C291.045 64.2193 289.299 78.4619 291.544 93.6933" stroke="#8B2AB9" stroke-width="3.8839" stroke-linecap="round" stroke-linejoin="round"/>
<path d="M290.458 54.3864C291.319 63.9643 291.75 83.397 291.75 93.1958" stroke="#8B2AB9" stroke-width="0.970976" stroke-linecap="round" stroke-linejoin="round"/>
<path opacity="0.2" d="M95.3948 72.2626C96.0162 71.548 95.6589 70.5693 94.8355 70.1809C93.9655 69.7614 92.9712 69.8236 92.0391 69.9323C91.7905 71.2839 91.4487 72.5889 91.0448 73.8783C91.6352 73.7851 92.2411 73.6764 92.8159 73.5055C93.6859 73.2569 94.7734 72.9462 95.3948 72.2626ZM94.4005 77.9642C95.1462 77.2806 94.9909 76.1621 94.2141 75.5407C93.748 75.1678 93.1577 74.9037 92.5362 74.8105C91.8837 74.9658 91.2623 75.0591 90.6254 75.1212C90.1282 76.5505 89.6311 77.9331 89.1805 79.378C89.9729 79.3624 90.7496 79.2692 91.5264 79.1138C92.4896 78.9119 93.6393 78.6478 94.4005 77.9642ZM96.4823 72.5423C96.0628 73.3967 95.2394 73.9094 94.3694 74.2512C94.5559 74.3444 94.7268 74.4532 94.8821 74.593C95.9541 75.3698 96.4357 76.8767 95.5968 78.0264C94.7734 79.1449 93.3286 79.6421 92.0236 79.9528C90.7807 80.2324 89.4913 80.4033 88.2018 80.3412C87.6425 80.3101 87.8289 79.7819 88.1863 79.5178C88.1863 79.4246 88.1863 79.3624 88.2018 79.2692C88.6523 77.7933 89.1805 76.3174 89.6932 74.8571C89.5534 74.5308 89.6311 74.0803 89.9729 73.9871C90.4234 72.62 90.8429 71.2218 91.107 69.7769C90.8739 69.4662 90.8429 68.8914 91.2623 68.8448C92.5673 68.6428 94.1675 68.4253 95.3482 69.2487C96.2959 69.9168 97.0571 71.4237 96.4823 72.5423ZM100.939 78.741C101.343 78.5546 102.632 77.7001 102.197 77.1408C101.716 76.4883 100.597 76.4728 99.8981 76.6282C99.8204 76.6592 99.7582 76.6592 99.6961 76.6282C99.2922 76.7524 98.8727 76.8301 98.4688 76.8456C98.3756 77.5292 98.3445 78.3526 98.9504 78.7721C99.5252 79.176 100.333 79.0362 100.939 78.741ZM101.856 73.288C100.24 72.5578 99.2456 74.1891 98.7795 75.6183C99.6339 75.5407 100.504 75.1989 101.234 74.7949C101.716 74.4998 102.85 73.7541 101.856 73.288ZM102.275 75.696C103.409 76.2398 103.44 77.4515 102.803 78.4303C102.197 79.3469 101.156 80.0304 100.069 80.2013C99.0747 80.3412 98.0804 79.9372 97.692 78.9585C97.3191 78.0264 97.3968 76.566 97.9406 75.2299C98.3756 74.1114 98.9504 72.7132 100.116 72.1539C101.017 71.7344 102.368 71.781 102.943 72.6821C103.673 73.723 102.896 74.9348 102.011 75.5717C102.073 75.5873 102.182 75.6339 102.275 75.696ZM109.66 74.4998C110.018 73.8939 109.707 73.1482 109.101 72.8375C108.355 72.4491 107.501 72.7132 106.942 73.3191C106.382 73.8939 105.994 74.6551 105.761 75.4164C106.382 75.4164 106.988 75.4008 107.594 75.3076C108.2 75.2299 109.288 75.1057 109.66 74.4998ZM110.002 72.1539C110.748 72.6821 111.276 73.5521 110.95 74.4998C110.561 75.5251 109.35 75.929 108.355 76.131C107.423 76.3019 106.476 76.3485 105.512 76.3485C105.419 76.9078 105.373 77.4826 105.512 78.0108C105.901 79.4401 107.641 79.7663 108.666 78.741C109.07 78.3371 110.142 78.741 109.614 79.3003C108.2 80.714 105.155 80.714 104.394 78.5546C104.005 77.436 104.223 76.1776 104.611 75.0901C105 74.0492 105.559 72.9307 106.538 72.2937C107.548 71.6723 108.961 71.4237 110.002 72.1539ZM115.197 78.6167C115.757 77.9487 116.052 77.0476 116.223 76.1465C116.347 75.3542 116.456 74.5464 116.658 73.7541C116.611 73.7696 116.58 73.7696 116.533 73.8007C116.269 73.8162 116.005 73.6298 116.052 73.3346C116.192 72.7287 114.918 72.853 114.591 72.9773C113.985 73.2103 113.55 73.6764 113.24 74.2357C112.68 75.261 112.416 76.5815 112.727 77.7312C112.882 78.2594 113.162 78.9585 113.721 79.176C114.281 79.4246 114.84 79.0828 115.197 78.6167ZM112.603 85.2349C113.675 85.4368 114.669 84.5668 115.026 83.6192C115.353 82.8113 115.539 82.019 115.694 81.1645C114.716 81.7238 113.644 82.1122 112.712 82.7492C112.292 83.0133 111.671 83.3706 111.5 83.8833C111.282 84.4892 112.106 85.1106 112.603 85.2349ZM117.17 72.8996C117.512 72.8064 117.838 72.9928 117.698 73.5055C117.621 73.7696 117.574 74.0492 117.512 74.3289C117.559 74.3755 117.574 74.4998 117.559 74.6551C117.45 75.261 117.341 75.9601 117.139 76.6282C116.953 78.4769 116.906 80.3412 116.487 82.1433C116.192 83.3706 115.757 84.5824 114.809 85.4835C114.032 86.2292 112.805 86.7729 111.764 86.2292C111.034 85.8408 110.335 85.064 110.459 84.1785C110.552 83.4017 111.08 82.7647 111.671 82.2831C112.898 81.2578 114.42 80.8072 115.788 79.9528C115.803 79.9372 115.834 79.9372 115.85 79.9062C115.881 79.6887 115.912 79.4712 115.927 79.2537C115.663 79.5488 115.368 79.813 115.011 79.9994C114.25 80.4188 113.364 80.5587 112.634 79.9528C112.028 79.3935 111.671 78.5546 111.562 77.7467C111.344 76.0223 111.904 73.9405 113.209 72.7753C113.892 72.1539 114.793 71.6878 115.741 71.781C116.409 71.8432 117.17 72.1694 117.17 72.8996ZM124.273 77.4826C124.32 77.5914 124.32 77.7156 124.226 77.8399C124.133 78.3215 124.087 78.8342 124.087 79.3469C124.087 79.9217 122.921 80.2946 122.937 79.5799C122.937 79.3935 122.937 79.1915 122.968 79.0206C121.974 79.7819 120.715 80.3412 119.643 79.7353C118.68 79.176 118.634 77.7623 118.727 76.799C118.851 75.3387 119.302 73.956 119.519 72.5112C119.612 71.9209 120.809 72.2471 120.715 72.8685C120.545 73.9871 120.203 75.0591 120.032 76.1621C119.939 76.7524 119.861 77.3583 119.939 77.9331C119.954 78.2439 119.985 78.7876 120.28 79.0051C120.607 79.2381 121.461 78.6633 121.725 78.4924C122.238 78.1351 122.72 77.7467 123.139 77.2806C123.155 77.234 123.201 77.203 123.232 77.1874C123.543 75.6805 123.978 74.2046 124.009 72.651C124.009 72.0451 125.174 71.6878 125.143 72.418C125.128 74.1269 124.584 75.8048 124.273 77.4826ZM136.695 73.4433C136.866 74.5464 136.602 75.7582 136.384 76.8301C136.182 77.7933 135.918 78.7721 135.778 79.7353C135.685 80.3256 134.473 80.2169 134.566 79.5644C134.83 77.7778 135.483 76.0223 135.514 74.1891C135.514 73.9716 135.561 73.5055 135.421 73.3191C135.359 73.3346 135.265 73.3657 135.297 73.3657C135.095 73.4433 134.924 73.5366 134.753 73.6298C133.914 74.158 133.184 74.9192 132.283 75.3232C132.221 75.8358 132.112 76.3174 132.019 76.799C131.801 77.7933 131.568 78.7721 131.319 79.7353C131.117 80.5121 130.279 79.8596 130.418 79.2226C130.76 77.9487 131.18 76.6126 131.335 75.261C131.18 75.0901 131.242 74.8105 131.413 74.6707C131.444 74.3755 131.459 74.0648 131.444 73.7696C131.444 73.6764 131.444 73.5055 131.413 73.4123C131.055 73.5055 130.714 73.7075 130.403 73.8783C129.626 74.2823 128.896 74.7639 128.119 75.1523C128.088 75.1523 128.072 75.1833 128.041 75.1833C127.762 76.7369 127.482 78.2905 127.125 79.8285C126.985 80.4344 125.944 80.6519 126.115 79.8596C126.643 77.5137 127.001 75.1367 127.513 72.7753C127.653 72.1694 128.694 71.9519 128.539 72.7598C128.461 73.055 128.414 73.3657 128.337 73.6764C129.082 73.2414 129.812 72.7598 130.636 72.3869C130.978 72.2471 131.397 72.0607 131.754 72.2471C132.112 72.418 132.283 72.9462 132.329 73.3191C132.391 73.5521 132.391 73.8007 132.391 74.0648C133.867 73.0239 136.337 71.1751 136.695 73.4433ZM143.174 74.4998C143.532 73.8939 143.221 73.1482 142.615 72.8375C141.869 72.4491 141.015 72.7132 140.455 73.3191C139.896 73.8939 139.508 74.6551 139.275 75.4164C139.896 75.4164 140.502 75.4008 141.108 75.3076C141.714 75.2299 142.801 75.1057 143.174 74.4998ZM143.516 72.1539C144.262 72.6821 144.79 73.5521 144.464 74.4998C144.075 75.5251 142.863 75.929 141.869 76.131C140.937 76.3019 139.989 76.3485 139.026 76.3485C138.933 76.9078 138.886 77.4826 139.026 78.0108C139.415 79.4401 141.155 79.7663 142.18 78.741C142.584 78.3371 143.656 78.741 143.128 79.3003C141.714 80.714 138.669 80.714 137.908 78.5546C137.519 77.436 137.737 76.1776 138.125 75.0901C138.514 74.0492 139.073 72.9307 140.052 72.2937C141.061 71.6723 142.475 71.4237 143.516 72.1539ZM160.468 73.4433C160.639 74.5464 160.375 75.7582 160.158 76.8301C159.956 77.7933 159.692 78.7721 159.552 79.7353C159.459 80.3256 158.247 80.2169 158.34 79.5644C158.604 77.7778 159.257 76.0223 159.288 74.1891C159.288 73.9716 159.334 73.5055 159.195 73.3191C159.132 73.3346 159.039 73.3657 159.07 73.3657C158.868 73.4433 158.697 73.5366 158.527 73.6298C157.688 74.158 156.957 74.9192 156.056 75.3232C155.994 75.8358 155.885 76.3174 155.792 76.799C155.575 77.7933 155.342 78.7721 155.093 79.7353C154.891 80.5121 154.052 79.8596 154.192 79.2226C154.534 77.9487 154.953 76.6126 155.109 75.261C154.953 75.0901 155.015 74.8105 155.186 74.6707C155.217 74.3755 155.233 74.0648 155.217 73.7696C155.217 73.6764 155.217 73.5055 155.186 73.4123C154.829 73.5055 154.487 73.7075 154.177 73.8783C153.4 74.2823 152.67 74.7639 151.893 75.1523C151.862 75.1523 151.846 75.1833 151.815 75.1833C151.536 76.7369 151.256 78.2905 150.899 79.8285C150.759 80.4344 149.718 80.6519 149.889 79.8596C150.417 77.5137 150.774 75.1367 151.287 72.7753C151.427 72.1694 152.468 71.9519 152.312 72.7598C152.235 73.055 152.188 73.3657 152.11 73.6764C152.856 73.2414 153.586 72.7598 154.41 72.3869C154.751 72.2471 155.171 72.0607 155.528 72.2471C155.885 72.418 156.056 72.9462 156.103 73.3191C156.165 73.5521 156.165 73.8007 156.165 74.0648C157.641 73.0239 160.111 71.1751 160.468 73.4433ZM166.948 74.4998C167.305 73.8939 166.995 73.1482 166.389 72.8375C165.643 72.4491 164.788 72.7132 164.229 73.3191C163.67 73.8939 163.282 74.6551 163.049 75.4164C163.67 75.4164 164.276 75.4008 164.882 75.3076C165.488 75.2299 166.575 75.1057 166.948 74.4998ZM167.29 72.1539C168.035 72.6821 168.564 73.5521 168.237 74.4998C167.849 75.5251 166.637 75.929 165.643 76.131C164.711 76.3019 163.763 76.3485 162.8 76.3485C162.707 76.9078 162.66 77.4826 162.8 78.0108C163.188 79.4401 164.928 79.7663 165.954 78.741C166.358 78.3371 167.43 78.741 166.901 79.3003C165.488 80.714 162.443 80.714 161.681 78.5546C161.293 77.436 161.51 76.1776 161.899 75.0901C162.287 74.0492 162.847 72.9307 163.825 72.2937C164.835 71.6723 166.249 71.4237 167.29 72.1539ZM174.815 72.3869C174.101 73.49 173.324 74.7639 172.314 75.7426C172.749 76.0223 173.06 76.6592 173.277 77.001C173.712 77.6846 174.178 78.3837 174.427 79.1294C174.613 79.7197 173.401 79.9838 173.215 79.3935C173.013 78.8187 172.656 78.2283 172.314 77.7312C172.112 77.4049 171.926 77.0787 171.677 76.7835C171.63 76.7058 171.568 76.6126 171.491 76.5349C171.491 76.5194 171.459 76.5194 171.459 76.4883C171.413 76.4883 171.397 76.4728 171.366 76.4728C171.18 76.5815 170.962 76.6903 170.729 76.7835C170.574 76.8456 170.45 76.8301 170.356 76.7524C170.154 77.7778 170.015 78.7876 169.906 79.8285C169.813 80.5897 168.912 80.4654 168.989 79.6887C169.253 77.1253 169.766 74.5464 170.589 72.1073C170.854 71.3305 171.661 71.8898 171.444 72.5578C171.102 73.5521 170.807 74.5774 170.589 75.5873C172.221 74.8726 173.231 73.055 174.147 71.6257C174.598 70.9421 175.172 71.8587 174.815 72.3869ZM181.058 72.0918C181.757 72.2471 181.244 73.3035 180.669 73.1948C179.629 72.9773 178.417 73.0705 177.609 73.8473C176.786 74.6396 176.351 75.7582 176.335 76.8923C176.335 77.7933 176.661 78.6478 177.593 78.9119C178.51 79.176 179.504 78.8653 180.359 78.4924C181.104 78.1506 181.104 79.2537 180.514 79.4867C179.411 79.9994 177.935 80.4188 176.739 79.8751C175.651 79.3935 175.185 78.2594 175.263 77.0942C175.403 74.0648 177.857 71.3771 181.058 72.0918ZM192.48 73.4433C192.651 74.5464 192.387 75.7582 192.17 76.8301C191.968 77.7933 191.704 78.7721 191.564 79.7353C191.471 80.3256 190.259 80.2169 190.352 79.5644C190.616 77.7778 191.269 76.0223 191.3 74.1891C191.3 73.9716 191.346 73.5055 191.206 73.3191C191.144 73.3346 191.051 73.3657 191.082 73.3657C190.88 73.4433 190.709 73.5366 190.538 73.6298C189.699 74.158 188.969 74.9192 188.068 75.3232C188.006 75.8358 187.897 76.3174 187.804 76.799C187.587 77.7933 187.354 78.7721 187.105 79.7353C186.903 80.5121 186.064 79.8596 186.204 79.2226C186.546 77.9487 186.965 76.6126 187.121 75.261C186.965 75.0901 187.027 74.8105 187.198 74.6707C187.229 74.3755 187.245 74.0648 187.229 73.7696C187.229 73.6764 187.229 73.5055 187.198 73.4123C186.841 73.5055 186.499 73.7075 186.188 73.8783C185.412 74.2823 184.681 74.7639 183.905 75.1523C183.874 75.1523 183.858 75.1833 183.827 75.1833C183.547 76.7369 183.268 78.2905 182.91 79.8285C182.771 80.4344 181.73 80.6519 181.901 79.8596C182.429 77.5137 182.786 75.1367 183.299 72.7753C183.439 72.1694 184.48 71.9519 184.324 72.7598C184.246 73.055 184.2 73.3657 184.122 73.6764C184.868 73.2414 185.598 72.7598 186.421 72.3869C186.763 72.2471 187.183 72.0607 187.54 72.2471C187.897 72.418 188.068 72.9462 188.115 73.3191C188.177 73.5521 188.177 73.8007 188.177 74.0648C189.653 73.0239 192.123 71.1751 192.48 73.4433ZM194.268 78.6012C194.423 78.7099 194.439 78.8653 194.439 79.0362C194.439 79.2226 194.315 79.4246 194.206 79.5799C194.19 79.6265 194.159 79.6731 194.144 79.7042C194.144 79.7353 194.113 79.7508 194.082 79.7819V79.813L194.066 79.8285C194.035 79.8596 194.035 79.8751 194.004 79.9062C193.833 80.0615 193.569 80.1858 193.351 80.0926C193.32 80.0926 193.289 80.0926 193.243 80.0926C193.041 80.0615 192.854 79.8751 192.854 79.6731C192.854 79.5022 192.885 79.4246 192.932 79.2692C192.994 79.0672 193.196 78.943 193.367 78.8342C193.491 78.7876 193.6 78.741 193.724 78.6789C193.88 78.5856 194.066 78.539 194.268 78.6012ZM198.245 78.6322C198.401 78.7565 198.447 78.943 198.354 79.0983C198.276 79.2381 198.199 79.378 198.074 79.4712C198.043 79.5022 198.012 79.5178 197.997 79.5488C197.966 79.6576 197.888 79.7353 197.81 79.7819C197.655 79.9838 197.36 80.0926 197.096 80.0304C197.002 80.0149 196.862 79.9528 196.8 79.8751C196.692 79.8285 196.583 79.7508 196.536 79.6576C196.412 79.378 196.412 78.9896 196.692 78.7876C196.862 78.6633 197.158 78.5856 197.375 78.5856C197.453 78.5856 197.515 78.5856 197.562 78.5856C197.515 78.5856 197.639 78.5546 197.562 78.5856H197.577C197.795 78.508 198.074 78.4769 198.245 78.6322ZM201.772 79.3158C201.772 79.5488 201.725 79.8596 201.523 80.0149C201.445 80.1081 201.337 80.1547 201.244 80.2169C200.933 80.4654 200.591 80.1547 200.529 79.813C200.451 79.6576 200.42 79.4712 200.467 79.3158C200.498 79.2381 200.529 79.176 200.576 79.1138C200.544 79.1449 200.544 79.1449 200.544 79.176C200.544 79.1449 200.576 79.1138 200.576 79.0983C200.591 79.0362 200.653 78.9896 200.7 78.943C200.855 78.7876 201.011 78.7099 201.244 78.6322C201.383 78.5856 201.601 78.741 201.679 78.8653C201.741 78.9896 201.803 79.1449 201.772 79.3158Z" fill="#8B2AB9"/>
<path fill-rule="evenodd" clip-rule="evenodd" d="M9.64616 65.5056C9.81785 65.335 9.93124 65.2729 9.97705 65.2524C10.0001 65.242 10.0122 65.2393 10.0149 65.2388C10.0164 65.2385 10.0176 65.2383 10.019 65.2382C10.0202 65.2381 10.0215 65.238 10.0233 65.238C10.0407 65.2383 10.2163 65.2523 10.59 65.5206C11.228 65.9788 11.7916 66.6577 12.4265 67.4225L12.4265 67.4225L12.4266 67.4227C12.6282 67.6655 12.8369 67.9169 13.0574 68.1726C13.7927 69.0253 15.0841 69.124 15.9419 68.3932C16.7997 67.6624 16.899 66.3788 16.1638 65.5262C16.06 65.4058 15.9349 65.2537 15.7916 65.0795L15.7916 65.0794C15.1376 64.2841 14.1041 63.0273 12.986 62.2243C12.2577 61.7014 11.2676 61.1884 10.0806 61.1719C8.81797 61.1543 7.68869 61.7003 6.75319 62.6302C4.60645 64.7639 3.8354 67.1584 4.04534 69.6112C4.16709 71.0337 4.6141 72.4167 5.20366 73.7211C4.2006 74.5252 3.07338 75.6502 2.3159 76.9936C1.43409 78.5575 0.937925 80.677 2.14608 82.7961C3.45107 85.0851 5.73892 85.8387 7.65278 86.0925C8.01976 86.1412 8.39938 86.1738 8.78118 86.1948C8.39646 86.9511 8.09293 87.7731 7.92044 88.6685C7.74426 89.583 7.68739 90.7372 7.86801 91.8634C8.04242 92.9508 8.48922 94.3149 9.59747 95.2821C10.7994 96.331 12.2197 96.4855 13.4681 96.1729C14.6078 95.8875 15.6207 95.2213 16.4113 94.5808C17.3069 93.8553 18.1249 92.9879 18.7652 92.2436C19.4739 93.3195 20.3134 94.1771 21.3101 94.7298C22.5771 95.4324 23.9325 95.5481 25.2177 95.2102C27.5988 94.584 29.5663 92.4672 30.9899 90.2436C32.1268 88.468 32.8404 86.6167 33.1835 84.7301C35.0669 87.6763 37.2044 90.7377 39.661 93.3034C43.7712 97.596 49.0838 100.83 55.9722 99.8111C62.0848 98.9073 66.0208 93.9697 68.6085 88.8546C71.1558 83.8193 72.6916 78.0288 73.7393 74.0787L73.7394 74.0785L73.8291 73.7404C74.1174 72.6546 73.4655 71.5421 72.3731 71.2556C71.2807 70.9691 70.1615 71.617 69.8732 72.7028L69.8141 72.9254L69.8141 72.9255L69.814 72.9258C68.7491 76.9385 67.3053 82.3786 64.9533 87.0277C62.5242 91.8295 59.4302 95.1885 55.3702 95.7889C50.316 96.5362 46.2484 94.2845 42.6247 90.4999C39.4737 87.2092 36.8926 83.0079 34.4904 79.0979L34.4898 79.0971C34.0865 78.4406 33.6883 77.7924 33.2932 77.1581C33.0856 76.8248 32.7969 76.5719 32.4681 76.4091C32.0298 75.5343 31.0068 75.0778 30.0363 75.3746C28.9565 75.7048 28.3504 76.8426 28.6827 77.9159C29.8019 81.5315 29.5249 84.9574 27.5383 88.0604C26.2621 90.0536 25.0131 91.0575 24.1713 91.2789C23.8449 91.3647 23.5872 91.3359 23.3034 91.1785C22.9678 90.9925 22.4608 90.5444 21.8938 89.53C21.4989 88.8235 20.743 88.4422 19.9821 88.4874C19.8599 88.3032 19.7051 88.1358 19.5191 87.9939C18.6227 87.3104 17.3385 87.4787 16.6509 88.3696C16.1018 89.081 15.0099 90.4699 13.8265 91.4287C13.2255 91.9155 12.7621 92.1561 12.4686 92.2295C12.3176 92.2674 12.3102 92.2512 12.3032 92.2359C12.3016 92.2324 12.3001 92.229 12.2969 92.2263C12.211 92.1513 12.0124 91.8724 11.9083 91.2232C11.8104 90.6127 11.8418 89.9364 11.9387 89.4333C12.3005 87.5556 13.6919 86.1133 15.5991 84.2176C16.398 83.4236 16.398 82.1362 15.5991 81.3421C14.8003 80.5481 13.505 80.5481 12.7062 81.3421L12.5028 81.5439L12.5024 81.5443C12.3153 81.7298 12.1209 81.9225 11.9224 82.1228C11.7119 82.1275 11.5044 82.1333 11.2995 82.139H11.2994C10.2223 82.169 9.21454 82.1971 8.19383 82.0617C6.80911 81.8781 6.08446 81.4558 5.70559 80.7913C5.44024 80.3258 5.43022 79.7881 5.8849 78.9818C6.28324 78.2753 6.94241 77.5731 7.63656 76.9969C8.15307 77.1439 8.72672 77.0896 9.22786 76.8C10.2046 76.2356 10.536 74.991 9.96815 74.0202C8.91045 72.212 8.24019 70.6486 8.1219 69.2665C8.01572 68.026 8.33925 66.8047 9.64616 65.5056Z" fill="#8B2AB9"/>
<path d="M9.97705 65.2524L9.77837 64.8094L9.77837 64.8094L9.97705 65.2524ZM9.64616 65.5056L9.98841 65.85L9.64616 65.5056ZM10.0149 65.2388L9.91631 64.7634L9.91626 64.7634L10.0149 65.2388ZM10.019 65.2382L9.97967 64.7543L9.97953 64.7543L10.019 65.2382ZM10.0233 65.238L10.0164 65.7235L10.0165 65.7235L10.0233 65.238ZM10.59 65.5206L10.3068 65.9149L10.3068 65.9149L10.59 65.5206ZM12.4265 67.4225L12.8057 67.1192L12.8 67.1124L12.4265 67.4225ZM12.4265 67.4225L12.0474 67.7259L12.0527 67.7323L12.4265 67.4225ZM12.4266 67.4227L12.0529 67.7325L12.0531 67.7328L12.4266 67.4227ZM13.0574 68.1726L13.4251 67.8556L13.4251 67.8556L13.0574 68.1726ZM15.9419 68.3932L15.6271 68.0236V68.0236L15.9419 68.3932ZM16.1638 65.5262L15.7961 65.8432V65.8432L16.1638 65.5262ZM15.7916 65.0795L15.4144 65.3851L15.4166 65.3878L15.7916 65.0795ZM15.7916 65.0794L16.1688 64.7738L16.1666 64.7711L15.7916 65.0794ZM12.986 62.2243L13.2691 61.83L12.986 62.2243ZM10.0806 61.1719L10.0739 61.6573L10.0806 61.1719ZM6.75319 62.6302L7.09544 62.9745L6.75319 62.6302ZM4.04534 69.6112L4.52906 69.5698V69.5698L4.04534 69.6112ZM5.20366 73.7211L5.50733 74.0998L5.80118 73.8643L5.64605 73.5211L5.20366 73.7211ZM2.3159 76.9936L1.89301 76.7552L2.3159 76.9936ZM2.14608 82.7961L2.56784 82.5557H2.56784L2.14608 82.7961ZM7.65278 86.0925L7.7166 85.6113L7.65278 86.0925ZM8.78118 86.1948L9.21391 86.4149L9.55165 85.7509L8.80784 85.71L8.78118 86.1948ZM7.92044 88.6685L8.39716 88.7603L7.92044 88.6685ZM7.86801 91.8634L8.34737 91.7865L7.86801 91.8634ZM9.59747 95.2821L9.9167 94.9163H9.91669L9.59747 95.2821ZM13.4681 96.1729L13.586 96.6438H13.586L13.4681 96.1729ZM16.4113 94.5808L16.7169 94.958L16.4113 94.5808ZM18.7652 92.2436L19.1706 91.9765L18.8167 91.4392L18.3971 91.927L18.7652 92.2436ZM21.3101 94.7298L21.5455 94.3052L21.3101 94.7298ZM25.2177 95.2102L25.3411 95.6797L25.2177 95.2102ZM30.9899 90.2436L30.5811 89.9819L30.9899 90.2436ZM33.1835 84.7301L33.5925 84.4686L32.9269 83.4274L32.7058 84.6432L33.1835 84.7301ZM39.661 93.3034L40.0117 92.9677L39.661 93.3034ZM55.9722 99.8111L56.0432 100.291L55.9722 99.8111ZM68.6085 88.8546L69.0417 89.0737L68.6085 88.8546ZM73.7393 74.0787L74.2086 74.2032L74.2103 74.1964L73.7393 74.0787ZM73.7394 74.0785L73.2701 73.954L73.2684 73.9608L73.7394 74.0785ZM73.8291 73.7404L73.3598 73.6158L73.3598 73.6159L73.8291 73.7404ZM72.3731 71.2556L72.4963 70.786V70.786L72.3731 71.2556ZM69.8732 72.7028L69.404 72.5782V72.5782L69.8732 72.7028ZM69.8141 72.9254L69.3447 72.8008L69.3416 72.8142L69.8141 72.9254ZM69.8141 72.9255L70.2846 73.0456L70.2867 73.0367L69.8141 72.9255ZM69.814 72.9258L70.2833 73.0503L70.2844 73.0459L69.814 72.9258ZM64.9533 87.0277L64.5201 86.8086L64.9533 87.0277ZM55.3702 95.7889L55.2992 95.3086L55.3702 95.7889ZM42.6247 90.4999L42.9753 90.1642L42.6247 90.4999ZM34.4904 79.0979L34.0767 79.3521L34.4904 79.0979ZM34.4898 79.0971L34.0762 79.3512V79.3512L34.4898 79.0971ZM33.2932 77.1581L32.8811 77.4147L33.2932 77.1581ZM32.4681 76.4091L32.0341 76.6266L32.1069 76.772L32.2526 76.8441L32.4681 76.4091ZM30.0363 75.3746L30.1783 75.8389L30.0363 75.3746ZM28.6827 77.9159L29.1465 77.7724L29.1465 77.7723L28.6827 77.9159ZM27.5383 88.0604L27.1294 87.7986V87.7986L27.5383 88.0604ZM24.1713 91.2789L24.0478 90.8094L24.1713 91.2789ZM23.3034 91.1785L23.0679 91.6031L23.0679 91.6031L23.3034 91.1785ZM21.8938 89.53L21.4701 89.7669H21.4701L21.8938 89.53ZM19.9821 88.4874L19.5776 88.7559L19.732 88.9886L20.0109 88.9721L19.9821 88.4874ZM19.5191 87.9939L19.2247 88.38L19.5191 87.9939ZM16.6509 88.3696L16.2666 88.073L16.6509 88.3696ZM13.8265 91.4287L13.5209 91.0514H13.5209L13.8265 91.4287ZM12.4686 92.2295L12.5866 92.7005L12.5866 92.7005L12.4686 92.2295ZM12.3032 92.2359L12.7444 92.0333L12.7444 92.0333L12.3032 92.2359ZM12.2969 92.2263L11.9777 92.5921L11.9778 92.5922L12.2969 92.2263ZM11.9083 91.2232L12.3876 91.1463L11.9083 91.2232ZM11.9387 89.4333L12.4154 89.5252L11.9387 89.4333ZM15.5991 84.2176L15.9414 84.5619L15.5991 84.2176ZM15.5991 81.3421L15.9414 80.9978L15.5991 81.3421ZM12.7062 81.3421L13.0481 81.6868L13.0484 81.6865L12.7062 81.3421ZM12.5028 81.5439L12.8438 81.8895L12.8447 81.8885L12.5028 81.5439ZM12.5024 81.5443L12.1613 81.1988L12.1606 81.1996L12.5024 81.5443ZM11.9224 82.1228L11.9333 82.6082L12.1293 82.6038L12.2672 82.4645L11.9224 82.1228ZM11.2995 82.139V82.6247L11.313 82.6243L11.2995 82.139ZM11.2994 82.139V81.6533L11.2859 81.6537L11.2994 82.139ZM8.19383 82.0617L8.25766 81.5804H8.25766L8.19383 82.0617ZM5.70559 80.7913L5.28383 81.0317H5.28383L5.70559 80.7913ZM5.8849 78.9818L5.46201 78.7433H5.46201L5.8849 78.9818ZM7.63656 76.9969L7.7694 76.53L7.52333 76.46L7.32648 76.6234L7.63656 76.9969ZM9.22786 76.8L9.47077 77.2203L9.22786 76.8ZM9.96815 74.0202L10.3872 73.7751L9.96815 74.0202ZM8.1219 69.2665L7.63818 69.3079L8.1219 69.2665ZM9.77837 64.8094C9.67034 64.8578 9.50967 64.9568 9.30391 65.1613L9.98841 65.85C10.126 65.7132 10.1921 65.688 10.1757 65.6953L9.77837 64.8094ZM9.91626 64.7634C9.87816 64.7713 9.83259 64.7851 9.77837 64.8094L10.1757 65.6953C10.1726 65.6967 10.1652 65.6999 10.1538 65.7036C10.1481 65.7054 10.1416 65.7074 10.1342 65.7093C10.1263 65.7114 10.1192 65.713 10.1136 65.7141L9.91626 64.7634ZM9.97953 64.7543C9.9509 64.7566 9.92842 64.7609 9.91631 64.7634L10.1135 65.7141C10.1098 65.7149 10.1022 65.7165 10.0922 65.718C10.0817 65.7197 10.0705 65.7211 10.0585 65.722L9.97953 64.7543ZM10.0301 64.7526C10.0188 64.7524 10.0011 64.7525 9.97967 64.7543L10.0584 65.722C10.0393 65.7236 10.0242 65.7236 10.0164 65.7235L10.0301 64.7526ZM10.8731 65.1263C10.4562 64.8268 10.1845 64.7548 10.03 64.7526L10.0165 65.7235C9.89693 65.7218 9.97646 65.6777 10.3068 65.9149L10.8731 65.1263ZM12.8 67.1124C12.1766 66.3615 11.572 65.6282 10.8731 65.1263L10.3068 65.9149C10.884 66.3294 11.4065 66.9539 12.053 67.7326L12.8 67.1124ZM12.8056 67.1193L12.8056 67.1192L12.0474 67.7258L12.0474 67.7258L12.8056 67.1193ZM12.8004 67.1129L12.8003 67.1127L12.0527 67.7323L12.0529 67.7325L12.8004 67.1129ZM13.4251 67.8556C13.208 67.6038 13.0021 67.3558 12.8002 67.1126L12.0531 67.7328C12.2542 67.9751 12.4658 68.2299 12.6898 68.4897L13.4251 67.8556ZM15.6271 68.0236C14.9722 68.5816 13.9857 68.5057 13.4251 67.8556L12.6898 68.4897C13.5997 69.5448 15.196 69.6664 16.2567 68.7627L15.6271 68.0236ZM15.7961 65.8432C16.3552 66.4916 16.2802 67.4672 15.6271 68.0236L16.2567 68.7627C17.3192 67.8576 17.4428 66.266 16.5314 65.2091L15.7961 65.8432ZM15.4166 65.3878C15.5587 65.5605 15.6878 65.7176 15.7961 65.8432L16.5314 65.2091C16.4322 65.094 16.3112 64.9469 16.1666 64.7711L15.4166 65.3878ZM15.4144 65.385L15.4144 65.3851L16.1689 64.7739L16.1688 64.7738L15.4144 65.385ZM12.7028 62.6187C13.7603 63.3782 14.7544 64.5825 15.4166 65.3878L16.1666 64.7711C15.5207 63.9856 14.4479 62.6765 13.2691 61.83L12.7028 62.6187ZM10.0739 61.6573C11.1227 61.672 12.0165 62.1259 12.7028 62.6187L13.2691 61.83C12.4989 61.2769 11.4125 60.7049 10.0874 60.6865L10.0739 61.6573ZM7.09544 62.9745C7.95831 62.1168 8.96752 61.6419 10.0739 61.6573L10.0874 60.6865C8.66843 60.6667 7.41907 61.2838 6.41094 62.2858L7.09544 62.9745ZM4.52906 69.5698C4.3316 67.2629 5.04869 65.0089 7.09544 62.9745L6.41094 62.2858C4.1642 64.519 3.33919 67.054 3.56162 69.6526L4.52906 69.5698ZM5.64605 73.5211C5.07053 72.2478 4.64461 70.9199 4.52906 69.5698L3.56162 69.6526C3.68957 71.1474 4.15768 72.5857 4.76127 73.921L5.64605 73.5211ZM4.89999 73.3423C3.86866 74.169 2.69141 75.3392 1.89301 76.7552L2.7388 77.2321C3.45536 75.9612 4.53253 74.8813 5.50733 74.0998L4.89999 73.3423ZM1.89301 76.7552C0.961212 78.4077 0.402272 80.7177 1.72432 83.0366L2.56784 82.5557C1.47358 80.6363 1.90697 78.7073 2.7388 77.2321L1.89301 76.7552ZM1.72432 83.0366C3.1402 85.5201 5.61473 86.312 7.58896 86.5738L7.7166 85.6113C5.86311 85.3655 3.76193 84.6502 2.56784 82.5557L1.72432 83.0366ZM7.58896 86.5738C7.97084 86.6244 8.36318 86.658 8.75453 86.6795L8.80784 85.71C8.43559 85.6895 8.06868 85.6579 7.7166 85.6113L7.58896 86.5738ZM8.34846 85.9747C7.94594 86.766 7.6259 87.631 7.44372 88.5767L8.39716 88.7603C8.55997 87.9153 8.84698 87.1362 9.21391 86.4149L8.34846 85.9747ZM7.44372 88.5767C7.25803 89.5405 7.19809 90.7521 7.38865 91.9403L8.34737 91.7865C8.17669 90.7222 8.2305 89.6254 8.39716 88.7603L7.44372 88.5767ZM7.38865 91.9403C7.57147 93.0802 8.04799 94.5742 9.27824 95.6478L9.91669 94.9163C8.93046 94.0556 8.51337 92.8215 8.34737 91.7865L7.38865 91.9403ZM9.27824 95.6478C10.6215 96.8202 12.2137 96.9875 13.586 96.6438L13.3502 95.7019C12.2257 95.9835 10.9772 95.8418 9.9167 94.9163L9.27824 95.6478ZM13.586 96.6438C14.8256 96.3334 15.9035 95.617 16.7169 94.958L16.1057 94.2036C15.3379 94.8257 14.39 95.4416 13.3502 95.7019L13.586 96.6438ZM16.7169 94.958C17.644 94.207 18.4834 93.3157 19.1332 92.5602L18.3971 91.927C17.7665 92.6601 16.9698 93.5036 16.1057 94.2036L16.7169 94.958ZM18.3597 92.5106C19.099 93.633 19.992 94.554 21.0747 95.1544L21.5455 94.3052C20.6349 93.8002 19.8487 93.006 19.1706 91.9765L18.3597 92.5106ZM21.0747 95.1544C22.4582 95.9215 23.9431 96.0473 25.3411 95.6797L25.0942 94.7407C23.9219 95.0489 22.6961 94.9432 21.5455 94.3052L21.0747 95.1544ZM25.3411 95.6797C27.9044 95.0057 29.9574 92.7568 31.3988 90.5054L30.5811 89.9819C29.1753 92.1776 27.2932 94.1624 25.0942 94.7407L25.3411 95.6797ZM31.3988 90.5054C32.5693 88.6772 33.3066 86.7666 33.6611 84.817L32.7058 84.6432C32.3742 86.4668 31.6843 88.2587 30.5811 89.9819L31.3988 90.5054ZM32.7744 84.9916C34.6633 87.9462 36.8208 91.0391 39.3104 93.6392L40.0117 92.9677C37.5879 90.4363 35.4706 87.4064 33.5925 84.4686L32.7744 84.9916ZM39.3104 93.6392C43.4783 97.9921 48.9382 101.342 56.0432 100.291L55.9012 99.3309C49.2295 100.317 44.0641 97.1999 40.0117 92.9677L39.3104 93.6392ZM56.0432 100.291C62.3987 99.3517 66.435 94.2266 69.0417 89.0737L68.1753 88.6354C65.6067 93.7129 61.7709 98.463 55.9012 99.3309L56.0432 100.291ZM69.0417 89.0737C71.6156 83.986 73.1626 78.1468 74.2086 74.2032L73.2701 73.9542C72.2206 77.9109 70.6961 83.6526 68.1753 88.6354L69.0417 89.0737ZM74.2103 74.1964L74.2104 74.1963L73.2684 73.9608L73.2683 73.9609L74.2103 74.1964ZM74.2086 74.203L74.2983 73.8649L73.3598 73.6159L73.2701 73.954L74.2086 74.203ZM74.2983 73.865C74.6562 72.5171 73.8462 71.1401 72.4963 70.786L72.2499 71.7252C73.0848 71.9442 73.5786 72.7921 73.3598 73.6158L74.2983 73.865ZM72.4963 70.786C71.1474 70.4322 69.7615 71.2315 69.404 72.5782L70.3425 72.8274C70.5614 72.0025 71.414 71.506 72.2499 71.7252L72.4963 70.786ZM69.404 72.5782L69.3449 72.8008L70.2834 73.0499L70.3425 72.8273L69.404 72.5782ZM69.3416 72.8142L69.3415 72.8143L70.2867 73.0367L70.2867 73.0366L69.3416 72.8142ZM69.3437 72.8054L69.3437 72.8057L70.2844 73.0459L70.2845 73.0456L69.3437 72.8054ZM69.3448 72.8012C68.2777 76.8219 66.8453 82.2123 64.5201 86.8086L65.3865 87.2469C67.7652 82.5449 69.2204 77.0551 70.2833 73.0503L69.3448 72.8012ZM64.5201 86.8086C62.1107 91.5713 59.1171 94.7441 55.2992 95.3086L55.4412 96.2691C59.7434 95.633 62.9377 92.0876 65.3865 87.2469L64.5201 86.8086ZM55.2992 95.3086C50.4607 96.024 46.5403 93.8874 42.9753 90.1642L42.274 90.8357C45.9565 94.6816 50.1713 97.0483 55.4412 96.2691L55.2992 95.3086ZM42.9753 90.1642C39.8667 86.9176 37.312 82.7632 34.904 78.8438L34.0767 79.3521C36.4731 83.2526 39.0808 87.5007 42.274 90.8357L42.9753 90.1642ZM34.904 78.8438L34.9035 78.8429L34.0762 79.3512L34.0767 79.3521L34.904 78.8438ZM34.9035 78.8429C34.5003 78.1867 34.1013 77.5372 33.7053 76.9014L32.8811 77.4147C33.2752 78.0476 33.6727 78.6945 34.0762 79.3512L34.9035 78.8429ZM33.7053 76.9014C33.4485 76.4891 33.0906 76.1756 32.6836 75.974L32.2526 76.8441C32.5032 76.9682 32.7227 77.1605 32.8811 77.4147L33.7053 76.9014ZM32.9022 76.1916C32.3587 75.1071 31.0935 74.5436 29.8943 74.9103L30.1783 75.8389C30.9201 75.612 31.7008 75.9615 32.0341 76.6266L32.9022 76.1916ZM29.8943 74.9103C28.5597 75.3185 27.8065 76.7272 28.2189 78.0595L29.1465 77.7723C28.8944 76.958 29.3533 76.0912 30.1783 75.8389L29.8943 74.9103ZM28.2189 78.0595C29.3025 81.5598 29.0277 84.8336 27.1294 87.7986L27.9471 88.3222C30.0222 85.0811 30.3014 81.5032 29.1465 77.7724L28.2189 78.0595ZM27.1294 87.7986C26.5092 88.7673 25.9041 89.482 25.3642 89.9759C24.818 90.4755 24.3635 90.7263 24.0478 90.8094L24.2947 91.7484C24.8209 91.6101 25.4118 91.2482 26.0196 90.6923C26.6337 90.1306 27.2912 89.3468 27.9471 88.3222L27.1294 87.7986ZM24.0478 90.8094C23.8354 90.8652 23.7071 90.8472 23.5388 90.7539L23.0679 91.6031C23.4674 91.8246 23.8545 91.8642 24.2947 91.7484L24.0478 90.8094ZM23.5388 90.7539C23.3074 90.6256 22.857 90.2582 22.3176 89.2932L21.4701 89.7669C22.0646 90.8306 22.6282 91.3593 23.0679 91.6031L23.5388 90.7539ZM22.3176 89.2932C21.8279 88.417 20.892 87.947 19.9533 88.0028L20.0109 88.9721C20.5941 88.9374 21.1699 89.2299 21.4701 89.7669L22.3176 89.2932ZM20.3866 88.219C20.2348 87.9902 20.043 87.7829 19.8134 87.6079L19.2247 88.38C19.3673 88.4887 19.4849 88.6162 19.5776 88.7559L20.3866 88.219ZM19.8134 87.6079C18.7053 86.7629 17.1178 86.9701 16.2666 88.073L17.0352 88.6663C17.5593 87.9872 18.5401 87.858 19.2247 88.38L19.8134 87.6079ZM16.2666 88.073C15.7154 88.7871 14.6547 90.1329 13.5209 91.0514L14.1321 91.8059C15.3652 90.8069 16.4883 89.3749 17.0352 88.6663L16.2666 88.073ZM13.5209 91.0514C12.9422 91.5202 12.544 91.7102 12.3507 91.7586L12.5866 92.7005C12.9803 92.6019 13.5089 92.3108 14.1321 91.8059L13.5209 91.0514ZM12.3507 91.7586C12.3204 91.7662 12.3061 91.7688 12.3025 91.7694C12.2952 91.7706 12.3194 91.7657 12.3593 91.7679C12.3989 91.7702 12.5017 91.7819 12.6049 91.8604C12.7088 91.9395 12.7491 92.0436 12.7444 92.0333L11.862 92.4385C11.8621 92.4386 11.8632 92.4411 11.8645 92.4438C11.8659 92.4468 11.868 92.4513 11.8707 92.4567C11.8761 92.4675 11.8848 92.4838 11.8969 92.5028C11.9227 92.5432 11.961 92.5906 12.0167 92.633C12.1279 92.7177 12.2433 92.7339 12.3046 92.7374C12.4088 92.7433 12.5146 92.7185 12.5866 92.7005L12.3507 91.7586ZM12.7444 92.0333C12.7443 92.0331 12.7434 92.0311 12.7424 92.0289C12.7412 92.0265 12.7395 92.0228 12.7373 92.0183C12.7329 92.0095 12.7259 91.9958 12.7161 91.9797C12.6958 91.946 12.664 91.9023 12.616 91.8604L11.9778 92.5922C11.8914 92.5168 11.8557 92.4249 11.862 92.4385L12.7444 92.0333ZM12.6161 91.8605C12.6512 91.8911 12.483 91.7411 12.3876 91.1463L11.4289 91.3001C11.5418 92.0038 11.7707 92.4115 11.9777 92.5921L12.6161 91.8605ZM12.3876 91.1463C12.2997 90.5978 12.328 89.9788 12.4154 89.5252L11.462 89.3415C11.3555 89.894 11.3211 90.6277 11.4289 91.3001L12.3876 91.1463ZM12.4154 89.5252C12.7436 87.8215 14.0071 86.4845 15.9414 84.5619L15.2569 83.8733C13.3767 85.7421 11.8573 87.2897 11.462 89.3415L12.4154 89.5252ZM15.9414 84.5619C16.9312 83.5781 16.9312 81.9817 15.9414 80.9978L15.2569 81.6865C15.8648 82.2907 15.8648 83.2691 15.2569 83.8733L15.9414 84.5619ZM15.9414 80.9978C14.9532 80.0155 13.3521 80.0155 12.3639 80.9978L13.0484 81.6865C13.6579 81.0806 14.6474 81.0806 15.2569 81.6865L15.9414 80.9978ZM12.3642 80.9975L12.1608 81.1993L12.8447 81.8885L13.0481 81.6868L12.3642 80.9975ZM12.1618 81.1984L12.1613 81.1988L12.8434 81.8899L12.8438 81.8895L12.1618 81.1984ZM12.1606 81.1996C11.9737 81.3848 11.7778 81.579 11.5776 81.7811L12.2672 82.4645C12.464 82.266 12.6569 82.0748 12.8441 81.8891L12.1606 81.1996ZM11.9115 81.6374C11.6995 81.6422 11.4907 81.648 11.286 81.6537L11.313 82.6243C11.5181 82.6186 11.7243 82.6129 11.9333 82.6082L11.9115 81.6374ZM11.2995 81.6535H11.2994V82.6245H11.2995V81.6535ZM11.2859 81.6537C10.2022 81.6839 9.23341 81.7098 8.25766 81.5804L8.13001 82.543C9.19566 82.6843 10.2425 82.6541 11.313 82.6243L11.2859 81.6537ZM8.25766 81.5804C6.93825 81.4055 6.39689 81.0236 6.12735 80.5508L5.28383 81.0317C5.77203 81.8881 6.67998 82.3507 8.13001 82.543L8.25766 81.5804ZM6.12735 80.5508C6.03723 80.3928 5.99592 80.237 6.00946 80.0493C6.02378 79.8508 6.10202 79.5852 6.3078 79.2202L5.46201 78.7433C5.2131 79.1847 5.06901 79.5912 5.041 79.9794C5.01222 80.3786 5.10859 80.7244 5.28383 81.0317L6.12735 80.5508ZM6.3078 79.2202C6.66669 78.5837 7.27826 77.9253 7.94663 77.3705L7.32648 76.6234C6.60655 77.2209 5.89979 77.9669 5.46201 78.7433L6.3078 79.2202ZM8.98495 76.3796C8.60235 76.6007 8.16491 76.6425 7.7694 76.53L7.50372 77.4639C8.14124 77.6453 8.85109 77.5784 9.47077 77.2203L8.98495 76.3796ZM9.54909 74.2654C9.98035 75.0027 9.72983 75.9492 8.98495 76.3796L9.47077 77.2203C10.6793 76.522 11.0916 74.9794 10.3872 73.7751L9.54909 74.2654ZM7.63818 69.3079C7.76604 70.8017 8.48282 72.4425 9.54909 74.2654L10.3872 73.7751C9.33809 71.9815 8.71435 70.4955 8.60562 69.2251L7.63818 69.3079ZM9.30391 65.1613C7.89693 66.5598 7.51952 67.9216 7.63818 69.3079L8.60562 69.2251C8.51191 68.1303 8.78158 67.0495 9.98841 65.85L9.30391 65.1613Z" fill="#8B2AB9"/>
<path fill-rule="evenodd" clip-rule="evenodd" d="M350.281 36.6491C349.506 35.3883 348.426 34.5756 347.161 34.2094C345.955 33.8603 344.741 33.9624 343.698 34.2084C341.654 34.6907 339.688 35.8735 338.512 36.6178C337.558 37.2207 337.278 38.4774 337.884 39.4248C338.491 40.3722 339.755 40.6515 340.708 40.0486C341.885 39.3042 343.336 38.4733 344.643 38.165C345.276 38.0157 345.722 38.0283 346.017 38.1138C346.254 38.1824 346.519 38.3287 346.79 38.7696C348.1 40.9004 347.669 43.6271 345.991 44.7612C345.056 45.3926 344.814 46.6573 345.449 47.5859C346.085 48.5145 347.357 48.7554 348.291 48.1239C348.829 47.7606 349.296 47.3486 349.696 46.8991C349.85 46.9192 350.008 46.9222 350.169 46.9062C353.65 46.5602 356.451 46.4807 359.127 47.8106C359.76 48.1255 360.184 48.455 360.382 48.7207C360.465 48.8331 360.477 48.8916 360.479 48.9031L360.479 48.9033C360.479 48.9064 360.491 48.9609 360.436 49.1018C360.352 49.3169 360.138 49.5828 359.554 49.8706C358.953 50.1664 358.213 50.3637 357.377 50.5667C356.976 50.6642 356.596 50.7673 356.224 50.8682L356.223 50.8683C355.49 51.0672 354.788 51.2576 354.018 51.3796C353.636 51.4402 353.315 51.4677 353.048 51.4716C352.716 51.3123 352.356 51.2498 352.005 51.2769C351.054 50.6754 349.792 50.9521 349.184 51.8963C348.575 52.8422 348.852 54.0996 349.804 54.705C350.383 55.0735 351.004 55.2938 351.624 55.4146C352.269 55.891 353.047 56.5439 353.596 57.2262C353.966 57.6867 354.106 58.0096 354.14 58.1766L354.144 58.1923L354.146 58.2025C354.149 58.2146 354.151 58.2211 354.149 58.227C354.148 58.2339 354.142 58.2399 354.131 58.2529C354.126 58.2587 354.12 58.2659 354.112 58.2752C353.738 58.7207 352.912 59.0129 351.133 58.3938C349.477 57.8173 347.819 56.686 346.99 55.8933C346.176 55.115 344.881 55.1402 344.097 55.9496C343.677 56.3838 343.49 56.9555 343.532 57.5123C343.504 57.8687 343.57 58.2371 343.742 58.5802C344.231 59.5508 344.109 61.1027 343.296 62.36C342.527 63.5474 341.506 63.981 340.425 63.6477C339.879 63.4791 339.406 63.0707 339.015 62.198C338.608 61.2863 338.374 60.028 338.306 58.5437C338.186 55.9194 338.603 53.0534 338.963 51.2551C339.103 50.7723 339.242 50.29 339.38 49.8082C339.691 48.7285 339.062 47.6031 337.975 47.2946C336.889 46.9861 335.757 47.6113 335.446 48.691L335.289 49.237C335.207 49.3934 335.143 49.5633 335.103 49.7442C335.065 49.9118 335.026 50.0939 334.986 50.2892C332.912 57.4595 330.751 64.5549 327.907 71.3402C326.791 74.0018 325.535 76.7589 323.894 79.1008C322.26 81.4332 320.335 83.2213 317.937 84.1152C312.536 86.1285 308.365 85.0244 304.844 82.3746C301.181 79.6172 298.195 75.1494 295.59 70.4184C295.048 69.4333 293.805 69.0717 292.814 69.6107C291.823 70.1497 291.459 71.3853 292.001 72.3704C294.651 77.184 297.979 82.3079 302.374 85.6164C306.913 89.0324 312.544 90.4683 319.374 87.9228C322.815 86.6402 325.337 84.1576 327.252 81.4246C329.16 78.701 330.554 75.5981 331.683 72.9042C332.966 69.8439 334.111 66.7302 335.168 63.5951C335.203 63.6808 335.239 63.7658 335.277 63.8501C335.996 65.4562 337.228 66.9192 339.213 67.5315C342.552 68.5617 345.292 66.7935 346.737 64.5594C347.324 63.6523 347.76 62.5828 347.975 61.459C348.557 61.7533 349.165 62.0175 349.781 62.2319C351.925 62.9782 355.136 63.4059 357.255 60.8785C358.159 59.8001 358.388 58.5477 358.151 57.3761C357.955 56.4062 357.459 55.5597 356.948 54.8877C357.166 54.8304 357.374 54.7744 357.566 54.7225L357.567 54.7221L357.567 54.7221C357.872 54.64 358.138 54.568 358.348 54.517C359.15 54.3223 360.31 54.0366 361.37 53.5145C362.446 52.9845 363.654 52.0976 364.249 50.5757C364.895 48.9264 364.507 47.4251 363.671 46.3022C362.917 45.2889 361.832 44.6086 360.956 44.1734C357.779 42.5941 354.57 42.4921 351.563 42.7028C351.838 40.5864 351.341 38.373 350.281 36.6491Z" fill="#8B2AB9"/>
<path d="M347.161 34.2094L347.296 33.7431V33.7431L347.161 34.2094ZM350.281 36.6491L350.695 36.3948V36.3948L350.281 36.6491ZM343.698 34.2084L343.587 33.7359V33.7359L343.698 34.2084ZM338.512 36.6178L338.771 37.0281V37.0281L338.512 36.6178ZM337.884 39.4248L338.293 39.163V39.163L337.884 39.4248ZM340.708 40.0486L340.968 40.4589V40.4589L340.708 40.0486ZM344.643 38.165L344.532 37.6925L344.643 38.165ZM346.017 38.1138L345.882 38.5802L346.017 38.1138ZM346.79 38.7696L347.204 38.5154L347.204 38.5154L346.79 38.7696ZM345.991 44.7612L345.719 44.3589L345.991 44.7612ZM345.449 47.5859L345.85 47.3117V47.3117L345.449 47.5859ZM348.291 48.1239L348.019 47.7217L348.291 48.1239ZM349.696 46.8991L349.759 46.4177L349.505 46.3844L349.334 46.5761L349.696 46.8991ZM350.169 46.9062L350.121 46.4231L350.169 46.9062ZM359.127 47.8106L359.343 47.3759V47.3759L359.127 47.8106ZM360.382 48.7207L359.992 49.0106L360.382 48.7207ZM360.479 48.9031L360 48.9826L360.002 48.9959L360.005 49.0092L360.479 48.9031ZM360.479 48.9033L360.953 48.7999L360.952 48.7973L360.479 48.9033ZM360.436 49.1018L359.984 48.9249V48.9249L360.436 49.1018ZM359.554 49.8706L359.339 49.435L359.554 49.8706ZM357.377 50.5667L357.491 51.0385L357.377 50.5667ZM356.224 50.8682L356.096 50.3997L356.094 50.4005L356.224 50.8682ZM356.223 50.8683L356.35 51.3369L356.353 51.3361L356.223 50.8683ZM354.018 51.3796L354.094 51.8591L354.018 51.3796ZM353.048 51.4716L352.839 51.9094L352.941 51.9587L353.056 51.9571L353.048 51.4716ZM352.005 51.2769L351.745 51.6872L351.881 51.7733L352.042 51.7609L352.005 51.2769ZM349.184 51.8963L348.776 51.6335L348.776 51.6335L349.184 51.8963ZM349.804 54.705L350.065 54.2953H350.065L349.804 54.705ZM351.624 55.4146L351.912 55.0241L351.824 54.959L351.717 54.9381L351.624 55.4146ZM353.596 57.2262L353.217 57.5303L353.596 57.2262ZM354.14 58.1766L353.664 58.2727L353.666 58.2798L354.14 58.1766ZM354.144 58.1923L353.669 58.2955L353.671 58.3051L354.144 58.1923ZM354.146 58.2025L353.674 58.3153L353.674 58.3174L354.146 58.2025ZM354.149 58.227L353.675 58.1247L353.675 58.1249L354.149 58.227ZM354.131 58.2529L354.495 58.5741L354.495 58.5741L354.131 58.2529ZM354.112 58.2752L353.74 57.9633V57.9633L354.112 58.2752ZM351.133 58.3938L350.973 58.8523L351.133 58.3938ZM346.99 55.8933L346.654 56.2443L346.99 55.8933ZM344.097 55.9496L344.446 56.2872L344.097 55.9496ZM343.532 57.5123L344.016 57.5508L344.019 57.5132L344.016 57.4756L343.532 57.5123ZM343.742 58.5802L344.176 58.362V58.362L343.742 58.5802ZM343.296 62.36L342.888 62.0963L343.296 62.36ZM340.425 63.6477L340.568 63.1838V63.1838L340.425 63.6477ZM339.015 62.198L338.572 62.3962V62.3962L339.015 62.198ZM338.306 58.5437L337.821 58.5658L338.306 58.5437ZM338.963 51.2551L338.497 51.1204L338.491 51.1398L338.487 51.1597L338.963 51.2551ZM339.38 49.8082L339.847 49.9423V49.9423L339.38 49.8082ZM337.975 47.2946L338.108 46.8276L337.975 47.2946ZM335.446 48.691L335.913 48.8253L335.913 48.8252L335.446 48.691ZM335.289 49.237L335.718 49.4642L335.742 49.4196L335.756 49.3712L335.289 49.237ZM335.103 49.7442L334.629 49.6383L334.629 49.6383L335.103 49.7442ZM334.986 50.2892L335.452 50.4241L335.457 50.4057L335.461 50.387L334.986 50.2892ZM327.907 71.3402L328.355 71.5279L327.907 71.3402ZM323.894 79.1008L324.292 79.3793L323.894 79.1008ZM317.937 84.1152L318.107 84.5701L317.937 84.1152ZM304.844 82.3746L305.136 81.9867H305.136L304.844 82.3746ZM295.59 70.4184L295.165 70.6526H295.165L295.59 70.4184ZM292.814 69.6107L293.046 70.0372L292.814 69.6107ZM292.001 72.3704L291.576 72.6046H291.576L292.001 72.3704ZM302.374 85.6164L302.082 86.0043L302.374 85.6164ZM319.374 87.9228L319.204 87.4679L319.374 87.9228ZM327.252 81.4246L326.854 81.1461L327.252 81.4246ZM331.683 72.9042L331.236 72.7165L331.683 72.9042ZM335.168 63.5951L335.617 63.4103L335.122 62.2093L334.708 63.4401L335.168 63.5951ZM335.277 63.8501L335.72 63.6518L335.72 63.6518L335.277 63.8501ZM339.213 67.5315L339.356 67.0676L339.213 67.5315ZM346.737 64.5594L347.144 64.8231V64.8231L346.737 64.5594ZM347.975 61.459L348.194 61.0257L347.619 60.7352L347.498 61.3678L347.975 61.459ZM349.781 62.2319L349.94 61.7734L349.781 62.2319ZM357.255 60.8785L356.883 60.5666L356.883 60.5666L357.255 60.8785ZM358.151 57.3761L358.627 57.28V57.28L358.151 57.3761ZM356.948 54.8877L356.825 54.4182L356.122 54.6032L356.562 55.1816L356.948 54.8877ZM357.566 54.7225L357.441 54.2534L357.44 54.2537L357.566 54.7225ZM357.567 54.7221L357.693 55.1911L357.702 55.1885L357.712 55.1855L357.567 54.7221ZM357.567 54.7221L357.441 54.2534L357.432 54.2558L357.423 54.2587L357.567 54.7221ZM358.348 54.517L358.463 54.9888L358.348 54.517ZM361.37 53.5145L361.155 53.079V53.079L361.37 53.5145ZM364.249 50.5757L363.797 50.3988L364.249 50.5757ZM363.671 46.3022L364.06 46.0124L363.671 46.3022ZM360.956 44.1734L360.74 44.6081H360.74L360.956 44.1734ZM351.563 42.7028L351.082 42.6403L351.005 43.2286L351.597 43.1871L351.563 42.7028ZM347.026 34.6758C348.17 35.0067 349.153 35.7405 349.868 36.9034L350.695 36.3948C349.859 35.0361 348.683 34.1444 347.296 33.7431L347.026 34.6758ZM343.81 34.6809C344.804 34.4463 345.927 34.3577 347.026 34.6758L347.296 33.7431C345.982 33.3628 344.678 33.4785 343.587 33.7359L343.81 34.6809ZM338.771 37.0281C339.947 36.2842 341.852 35.1427 343.81 34.6809L343.587 33.7359C341.455 34.2387 339.429 35.4629 338.252 36.2075L338.771 37.0281ZM338.293 39.163C337.832 38.4433 338.045 37.4877 338.771 37.0281L338.252 36.2075C337.072 36.9536 336.723 38.5115 337.475 39.6866L338.293 39.163ZM340.449 39.6383C339.72 40.099 338.755 39.8845 338.293 39.163L337.475 39.6866C338.226 40.8599 339.79 41.2039 340.968 40.4589L340.449 39.6383ZM344.532 37.6925C343.137 38.0214 341.625 38.8942 340.449 39.6383L340.968 40.4589C342.145 39.7141 343.535 38.9252 344.754 38.6375L344.532 37.6925ZM346.152 37.6475C345.749 37.5309 345.213 37.5317 344.532 37.6925L344.754 38.6375C345.339 38.4996 345.694 38.5257 345.882 38.5802L346.152 37.6475ZM347.204 38.5154C346.872 37.9759 346.51 37.7511 346.152 37.6475L345.882 38.5802C345.954 38.601 346.022 38.6304 346.094 38.6862C346.169 38.744 346.266 38.8433 346.377 39.0239L347.204 38.5154ZM346.263 45.1634C348.208 43.8488 348.615 40.8104 347.204 38.5154L346.377 39.0239C347.586 40.9905 347.13 43.4053 345.719 44.3589L346.263 45.1634ZM345.85 47.3117C345.367 46.6062 345.551 45.6447 346.263 45.1634L345.719 44.3589C344.562 45.1405 344.261 46.7084 345.049 47.86L345.85 47.3117ZM348.019 47.7217C347.306 48.2041 346.334 48.0191 345.85 47.3117L345.049 47.86C345.835 49.0098 347.408 49.3066 348.563 48.5261L348.019 47.7217ZM349.334 46.5761C348.96 46.9954 348.524 47.3809 348.019 47.7217L348.563 48.5261C349.134 48.1403 349.631 47.7017 350.059 47.2222L349.334 46.5761ZM349.633 47.3805C349.823 47.4054 350.019 47.409 350.217 47.3893L350.121 46.4231C349.997 46.4354 349.876 46.433 349.759 46.4177L349.633 47.3805ZM350.217 47.3893C353.696 47.0435 356.37 46.9829 358.911 48.2454L359.343 47.3759C356.531 45.9785 353.604 46.0769 350.121 46.4231L350.217 47.3893ZM358.911 48.2454C359.516 48.5463 359.861 48.8341 359.992 49.0106L360.771 48.4309C360.507 48.0759 360.005 47.7048 359.343 47.3759L358.911 48.2454ZM359.992 49.0106C360.016 49.0431 360.021 49.0557 360.018 49.0489C360.016 49.0453 360.013 49.0371 360.009 49.0245C360.007 49.0181 360.006 49.0111 360.004 49.0033C360.002 48.9952 360.001 48.988 360 48.9826L360.958 48.8237C360.941 48.7229 360.892 48.5937 360.771 48.4309L359.992 49.0106ZM360.005 49.0092L360.005 49.0093L360.952 48.7973L360.952 48.7971L360.005 49.0092ZM360.004 49.0067C360.004 49.0069 360.004 49.0061 360.004 49.0051C360.004 49.0041 360.004 49.0029 360.003 49.0016C360.003 48.9988 360.002 48.9958 360.002 48.9926C360 48.9862 359.999 48.9798 359.998 48.9733C359.997 48.9605 359.996 48.9488 359.995 48.9382C359.994 48.917 359.995 48.9015 359.996 48.8928C359.998 48.8759 360 48.8846 359.984 48.9249L360.888 49.2787C360.928 49.1782 360.951 49.0891 360.96 49.009C360.965 48.9686 360.967 48.9301 360.965 48.8934C360.964 48.8751 360.963 48.8575 360.96 48.8405C360.959 48.832 360.958 48.824 360.956 48.8164C360.956 48.8126 360.955 48.8091 360.954 48.8059C360.954 48.8043 360.954 48.8029 360.953 48.8018C360.953 48.8007 360.953 48.7998 360.953 48.7999L360.004 49.0067ZM359.984 48.9249C359.96 48.9853 359.863 49.1769 359.339 49.435L359.768 50.3061C360.413 49.9887 360.744 49.6485 360.888 49.2787L359.984 48.9249ZM359.339 49.435C358.793 49.7039 358.103 49.8907 357.262 50.095L357.491 51.0385C358.322 50.8367 359.113 50.6288 359.768 50.3061L359.339 49.435ZM357.262 50.095C356.854 50.1942 356.468 50.299 356.096 50.3997L356.351 51.3368C356.723 51.2357 357.097 51.1342 357.491 51.0385L357.262 50.095ZM356.094 50.4005L356.093 50.4005L356.353 51.3361L356.353 51.336L356.094 50.4005ZM356.096 50.3997C355.36 50.5995 354.683 50.7828 353.942 50.9001L354.094 51.8591C354.894 51.7324 355.62 51.5349 356.35 51.3368L356.096 50.3997ZM353.942 50.9001C353.578 50.9578 353.281 50.9827 353.041 50.9862L353.056 51.9571C353.35 51.9528 353.693 51.9226 354.094 51.8591L353.942 50.9001ZM353.258 51.0339C352.847 50.8365 352.401 50.7594 351.967 50.7928L352.042 51.7609C352.311 51.7402 352.585 51.788 352.839 51.9094L353.258 51.0339ZM352.264 50.8666C351.089 50.1232 349.529 50.4641 348.776 51.6335L349.592 52.1592C350.055 51.4401 351.018 51.2275 351.745 51.6872L352.264 50.8666ZM348.776 51.6335C348.02 52.8066 348.366 54.3654 349.543 55.1146L350.065 54.2953C349.339 53.8338 349.129 52.8777 349.592 52.1592L348.776 51.6335ZM349.543 55.1146C350.182 55.5209 350.861 55.7607 351.531 55.8911L351.717 54.9381C351.146 54.8268 350.584 54.626 350.065 54.2953L349.543 55.1146ZM351.335 55.8051C351.967 56.2718 352.707 56.8957 353.217 57.5303L353.974 56.9222C353.387 56.1921 352.57 55.5102 351.912 55.0241L351.335 55.8051ZM353.217 57.5303C353.564 57.9625 353.652 58.214 353.664 58.2727L354.616 58.0805C354.56 57.8052 354.367 57.411 353.974 56.9222L353.217 57.5303ZM353.666 58.2798L353.669 58.2955L354.618 58.0891L354.615 58.0734L353.666 58.2798ZM353.671 58.3051L353.674 58.3153L354.618 58.0897L354.616 58.0795L353.671 58.3051ZM353.674 58.3174C353.675 58.3215 353.675 58.32 353.674 58.3176C353.674 58.3152 353.672 58.3054 353.67 58.292C353.665 58.2646 353.658 58.2022 353.675 58.1247L354.624 58.3293C354.642 58.246 354.634 58.1774 354.629 58.1421C354.626 58.1249 354.623 58.1109 354.621 58.1036C354.62 58.0965 354.618 58.0896 354.618 58.0876L353.674 58.3174ZM353.675 58.1249C353.694 58.0331 353.737 57.9719 353.753 57.9491C353.762 57.9379 353.768 57.9302 353.769 57.9292C353.77 57.9281 353.771 57.9276 353.767 57.9318L354.495 58.5741C354.497 58.5717 354.503 58.5656 354.508 58.5595C354.513 58.5534 354.523 58.5414 354.534 58.5262C354.557 58.4954 354.603 58.4277 354.624 58.3291L353.675 58.1249ZM353.767 57.9318C353.762 57.9379 353.752 57.949 353.74 57.9633L354.484 58.5871C354.487 58.5829 354.49 58.5796 354.495 58.5741L353.767 57.9318ZM353.74 57.9633C353.568 58.1687 353.014 58.5345 351.293 57.9353L350.973 58.8523C352.809 59.4912 353.909 59.2727 354.484 58.5871L353.74 57.9633ZM351.293 57.9353C349.708 57.3839 348.11 56.292 347.325 55.5423L346.654 56.2443C347.529 57.08 349.245 58.2507 350.973 58.8523L351.293 57.9353ZM347.325 55.5423C346.318 54.5796 344.717 54.6107 343.749 55.6121L344.446 56.2872C345.044 55.6697 346.033 55.6503 346.654 56.2443L347.325 55.5423ZM343.749 55.6121C343.228 56.1498 342.996 56.8592 343.048 57.549L344.016 57.4756C343.984 57.0517 344.127 56.6179 344.446 56.2872L343.749 55.6121ZM343.048 57.4737C343.013 57.9163 343.095 58.3738 343.309 58.7983L344.176 58.362C344.044 58.1004 343.995 57.821 344.016 57.5508L343.048 57.4737ZM343.309 58.7983C343.703 59.5819 343.63 60.9495 342.888 62.0963L343.703 62.6237C344.588 61.2559 344.758 59.5196 344.176 58.362L343.309 58.7983ZM342.888 62.0963C342.541 62.6321 342.16 62.9624 341.781 63.1301C341.409 63.2949 341.004 63.3183 340.568 63.1838L340.282 64.1116C340.927 64.3105 341.574 64.2837 342.174 64.0181C342.768 63.7555 343.282 63.2753 343.703 62.6237L342.888 62.0963ZM340.568 63.1838C340.19 63.067 339.809 62.7821 339.459 61.9997L338.572 62.3962C339.003 63.3594 339.567 63.8911 340.282 64.1116L340.568 63.1838ZM339.459 61.9998C339.086 61.1667 338.857 59.9768 338.791 58.5215L337.821 58.5658C337.89 60.0792 338.129 61.4059 338.572 62.3962L339.459 61.9998ZM338.791 58.5215C338.674 55.9534 339.082 53.1311 339.439 51.3506L338.487 51.1597C338.123 52.9757 337.699 55.8853 337.821 58.5658L338.791 58.5215ZM339.43 51.3899C339.569 50.9068 339.708 50.4242 339.847 49.9423L338.914 49.6741C338.775 50.1557 338.636 50.6378 338.497 51.1204L339.43 51.3899ZM339.847 49.9423C340.232 48.6021 339.45 47.2088 338.108 46.8276L337.843 47.7616C338.673 47.9973 339.149 48.8549 338.914 49.6741L339.847 49.9423ZM338.108 46.8276C336.767 46.4466 335.365 47.2178 334.98 48.5569L335.913 48.8252C336.149 48.0048 337.011 47.5256 337.843 47.7616L338.108 46.8276ZM334.98 48.5568L334.823 49.1027L335.756 49.3712L335.913 48.8253L334.98 48.5568ZM334.86 49.0098C334.757 49.2041 334.679 49.4147 334.629 49.6383L335.576 49.8501C335.607 49.7119 335.656 49.5828 335.718 49.4642L334.86 49.0098ZM334.629 49.6383C334.591 49.8086 334.551 49.9935 334.51 50.1915L335.461 50.387C335.501 50.1943 335.539 50.0149 335.576 49.8501L334.629 49.6383ZM334.519 50.1543C332.446 57.323 330.292 64.3951 327.459 71.1525L328.355 71.5279C331.211 64.7147 333.378 57.596 335.452 50.4241L334.519 50.1543ZM327.459 71.1525C326.345 73.8103 325.105 76.526 323.497 78.8222L324.292 79.3793C325.965 76.9918 327.237 74.1933 328.355 71.5279L327.459 71.1525ZM323.497 78.8222C321.896 81.1065 320.043 82.8123 317.768 83.6603L318.107 84.5701C320.628 83.6302 322.624 81.7598 324.292 79.3793L323.497 78.8222ZM317.768 83.6603C315.135 84.6416 312.828 84.8545 310.764 84.5145C308.699 84.1743 306.848 83.2752 305.136 81.9867L304.552 82.7624C306.361 84.1238 308.355 85.1017 310.606 85.4726C312.859 85.8438 315.338 85.6021 318.107 84.5701L317.768 83.6603ZM305.136 81.9867C301.56 79.2949 298.615 74.9054 296.016 70.1843L295.165 70.6526C297.775 75.3934 300.802 79.9395 304.552 82.7624L305.136 81.9867ZM296.016 70.1843C295.344 68.9638 293.806 68.5183 292.582 69.1842L293.046 70.0372C293.804 69.6251 294.752 69.9028 295.165 70.6526L296.016 70.1843ZM292.582 69.1842C291.356 69.8511 290.903 71.3824 291.576 72.6046L292.427 72.1363C292.015 71.3882 292.29 70.4484 293.046 70.0372L292.582 69.1842ZM291.576 72.6046C294.231 77.4283 297.6 82.6303 302.082 86.0043L302.666 85.2285C298.358 81.9856 295.071 76.9397 292.427 72.1363L291.576 72.6046ZM302.082 86.0043C306.741 89.511 312.545 90.986 319.543 88.3777L319.204 87.4679C312.543 89.9506 307.084 88.5538 302.666 85.2285L302.082 86.0043ZM319.543 88.3777C323.108 87.0491 325.701 84.4841 327.649 81.7032L326.854 81.1461C324.973 83.8312 322.522 86.2313 319.204 87.4679L319.543 88.3777ZM327.649 81.7032C329.589 78.934 331 75.7898 332.131 73.0919L331.236 72.7165C330.108 75.4064 328.73 78.4681 326.854 81.1461L327.649 81.7032ZM332.131 73.0919C333.419 70.0185 334.569 66.8935 335.628 63.7501L334.708 63.4401C333.654 66.5669 332.513 69.6693 331.236 72.7165L332.131 73.0919ZM334.719 63.7799C334.756 63.87 334.794 63.9595 334.834 64.0483L335.72 63.6518C335.685 63.5721 335.65 63.4916 335.617 63.4103L334.719 63.7799ZM334.834 64.0483C335.591 65.7418 336.914 67.3305 339.07 67.9954L339.356 67.0676C337.542 66.508 336.4 65.1707 335.72 63.6518L334.834 64.0483ZM339.07 67.9954C342.679 69.1087 345.62 67.1793 347.144 64.8231L346.329 64.2957C344.963 66.4076 342.426 68.0148 339.356 67.0676L339.07 67.9954ZM347.144 64.8231C347.765 63.8637 348.225 62.7356 348.452 61.5502L347.498 61.3678C347.295 62.4299 346.882 63.4409 346.329 64.2957L347.144 64.8231ZM347.756 61.8923C348.355 62.195 348.982 62.468 349.621 62.6904L349.94 61.7734C349.348 61.567 348.76 61.3116 348.194 61.0257L347.756 61.8923ZM349.621 62.6904C351.803 63.4499 355.299 63.9673 357.627 61.1905L356.883 60.5666C354.973 62.8445 352.047 62.5066 349.94 61.7734L349.621 62.6904ZM357.627 61.1905C358.633 59.9898 358.891 58.5843 358.627 57.28L357.676 57.4723C357.885 58.511 357.684 59.6104 356.883 60.5666L357.627 61.1905ZM358.627 57.28C358.411 56.211 357.869 55.297 357.335 54.5939L356.562 55.1816C357.049 55.8223 357.5 56.6013 357.676 57.4723L358.627 57.28ZM357.072 55.3572C357.291 55.2995 357.5 55.2431 357.693 55.1912L357.44 54.2537C357.247 54.3057 357.041 54.3614 356.825 54.4182L357.072 55.3572ZM357.691 55.1915L357.693 55.1911L357.442 54.2531L357.441 54.2534L357.691 55.1915ZM357.712 55.1855L357.712 55.1855L357.423 54.2587L357.423 54.2587L357.712 55.1855ZM357.694 55.1908C358 55.1081 358.26 55.038 358.463 54.9888L358.234 54.0452C358.016 54.0981 357.743 54.1719 357.441 54.2534L357.694 55.1908ZM358.463 54.9888C359.261 54.7949 360.47 54.4988 361.584 53.9501L361.155 53.079C360.149 53.5744 359.038 53.8497 358.234 54.0452L358.463 54.9888ZM361.584 53.9501C362.718 53.3918 364.045 52.4313 364.701 50.7526L363.797 50.3988C363.263 51.7639 362.174 52.5771 361.155 53.079L361.584 53.9501ZM364.701 50.7526C365.416 48.9257 364.981 47.2498 364.06 46.0124L363.281 46.5921C364.032 47.6004 364.373 48.9272 363.797 50.3988L364.701 50.7526ZM364.06 46.0124C363.24 44.91 362.077 44.188 361.173 43.7386L360.74 44.6081C361.587 45.0291 362.593 45.6678 363.281 46.5921L364.06 46.0124ZM361.173 43.7386C357.88 42.1024 354.568 42.0055 351.529 42.2185L351.597 43.1871C354.572 42.9786 357.677 43.0859 360.74 44.6081L361.173 43.7386ZM349.868 36.9034C350.87 38.5331 351.342 40.6347 351.082 42.6403L352.044 42.7653C352.334 40.5381 351.813 38.2129 350.695 36.3948L349.868 36.9034Z" fill="#8B2AB9"/>
<path fill-rule="evenodd" clip-rule="evenodd" d="M149.252 14.1394C156.906 9.45852 164.028 9.9096 170.708 12.9068C177.508 15.958 183.804 21.6372 189.502 27.3711C190.21 28.0825 191.36 28.0861 192.071 27.3789C192.782 26.6718 192.786 25.5218 192.079 24.8104C191.423 24.1509 190.755 23.4866 190.074 22.8223C190.403 22.8753 190.75 22.8386 191.079 22.6973C191.81 22.3831 192.545 22.0597 193.286 21.7341L193.287 21.7337C196.338 20.393 199.474 19.0147 202.691 18.0892C206.658 16.9478 210.496 16.5796 214.078 17.7792C215.211 18.1584 215.449 18.58 215.508 18.7298C215.584 18.9234 215.62 19.3255 215.306 20.0466C214.663 21.5244 213.027 23.2173 211.651 24.2104C204.598 29.2979 196.026 32.5567 187.644 35.7431L187.165 35.925C172.464 41.5152 157.233 44.3048 141.554 43.8944C141.286 43.5075 140.869 43.2245 140.368 43.1385C140.09 43.0906 139.768 42.9153 139.431 42.2358C139.078 41.5219 138.837 40.4775 138.714 39.2065C138.471 36.6854 138.742 33.8714 138.888 32.4941C139.236 29.2149 140.426 25.4532 142.268 22.0671C144.117 18.6693 146.541 15.7974 149.252 14.1394ZM139.768 46.721C139.763 46.7202 139.758 46.7194 139.753 46.7185C137.957 46.4099 136.833 45.173 136.176 43.8486C135.537 42.5585 135.238 41.0072 135.098 39.555C134.816 36.6299 135.13 33.4874 135.276 32.1115C135.678 28.3113 137.031 24.0931 139.077 20.331C141.118 16.5805 143.93 13.1358 147.356 11.0405C156.198 5.63346 164.61 6.18925 172.195 9.59264C178.187 12.281 183.686 16.7512 188.58 21.3859C188.414 20.5615 188.841 19.7055 189.644 19.3601C190.317 19.0709 191.013 18.7647 191.728 18.4501C194.792 17.1022 198.21 15.5983 201.687 14.5983C206.005 13.3559 210.667 12.8063 215.232 14.3347C216.968 14.9163 218.3 15.9053 218.888 17.3993C219.459 18.8495 219.147 20.3243 218.637 21.4965C217.632 23.8055 215.427 25.965 213.776 27.1564C206.329 32.528 197.366 35.9343 189.123 39.0669L188.456 39.3203C173.269 45.0954 157.489 47.9774 141.221 47.5192C140.614 47.502 140.084 47.1885 139.768 46.721Z" fill="#8B2AB9"/>
</svg>
