<svg width="32" height="34" viewBox="0 0 32 34" fill="none" xmlns="http://www.w3.org/2000/svg">
<path d="M2.09395 25.3677C3.57686 29.8698 8.14221 33.1024 12.7714 32.9975C18.4937 32.8678 24.0942 27.5625 23.0044 21.4039C21.6483 13.7405 12.7147 10.9229 6.3716 14.0719C3.5464 15.4745 1.34649 18.475 1.0551 21.7132C0.912835 23.2941 1.04411 24.824 1.47175 26.3529C2.00071 28.2442 3.08227 29.5621 4.29184 31.036L4.29388 31.0385M8.28557 20.3209C8.66743 20.7146 8.73663 21.6368 8.90163 22.1472M15.9093 19.0505C16.1112 19.0765 15.9863 21.0193 15.9863 21.2737M11.7509 26.9112C12.7925 26.5395 13.9045 26.3401 14.9852 26.1172M22.8714 9.5072C21.5524 9.25416 19.8395 8.52586 19.8191 6.86483C19.7967 5.04294 22.1543 5.99586 22.9652 6.51036M23.0589 6.51037C23.4697 5.19776 23.8504 3.86449 24.3663 2.58977C24.5197 2.21084 24.7012 1.83089 24.9862 1.53712C25.2291 1.28663 25.5909 0.918286 25.9706 1.01616C26.8257 1.23658 27.0621 2.703 27.1842 3.41686M27.278 3.51353C28.2545 2.98051 29.1021 2.6957 30.2105 3.21814C31.4431 3.7991 31.1793 5.35848 30.5595 6.31702M23.2982 9.58303C23.3782 11.1506 23.2856 12.6641 23.2343 14.2371C23.1452 16.9724 23.134 19.7086 23.134 22.4453" stroke="#58405C" stroke-width="1.5" stroke-linecap="round"/>
</svg>
