<svg width="24" height="24" viewBox="0 0 24 24" fill="none" xmlns="http://www.w3.org/2000/svg">
<g clip-path="url(#clip0_91_2939)">
<path d="M2.32 5.53C2.51305 5.54482 2.70695 5.54482 2.9 5.53C3.08987 5.53996 3.28013 5.53996 3.47 5.53C3.92365 5.48598 4.3744 5.41586 4.82 5.32C4.90581 5.32004 4.98827 5.28665 5.04988 5.22691C5.11148 5.16717 5.1474 5.08578 5.15 5C5.1487 4.95534 5.13862 4.91138 5.12033 4.87063C5.10203 4.82987 5.07589 4.79312 5.04338 4.76247C5.01088 4.73182 4.97265 4.70788 4.93089 4.69201C4.88913 4.67615 4.84465 4.66867 4.8 4.67C4.38 4.67 3.98 4.55 3.56 4.49C3.64095 4.10351 3.70104 3.71295 3.74 3.32C3.8 2.77 3.82 2.22 3.86 1.71C3.88349 1.33189 3.85997 0.952322 3.79 0.58C3.72828 0.364339 3.58474 0.181327 3.39 0.07C3.3017 0.00937292 3.1971 -0.0230789 3.09 -0.0230789C2.98289 -0.0230789 2.87829 0.00937292 2.79 0.07L2.46 0.44L1.25 1.63C1.21848 1.65364 1.19193 1.68325 1.17185 1.71715C1.15178 1.75105 1.13858 1.78857 1.13301 1.82757C1.12744 1.86657 1.1296 1.90629 1.13938 1.94445C1.14916 1.98262 1.16636 2.01848 1.19 2.05C1.21363 2.08152 1.24325 2.10807 1.27715 2.12814C1.31105 2.14821 1.34857 2.16141 1.38757 2.16698C1.42657 2.17256 1.46629 2.17039 1.50445 2.16061C1.54261 2.15084 1.57848 2.13364 1.61 2.11L2.77 1.39V3.91V4.43C2.6235 4.42 2.47649 4.42 2.33 4.43C1.87 4.43 1.45 4.56 0.999996 4.62C0.960264 4.61725 0.920392 4.62272 0.882866 4.63606C0.84534 4.6494 0.810963 4.67032 0.781879 4.69753C0.752795 4.72474 0.729627 4.75765 0.713819 4.7942C0.69801 4.83075 0.689901 4.87017 0.689996 4.91C0.68548 4.95227 0.690311 4.99501 0.704148 5.0352C0.717984 5.0754 0.740488 5.11206 0.770065 5.14259C0.799642 5.17312 0.835569 5.19678 0.875303 5.21188C0.915037 5.22699 0.957606 5.23317 0.999996 5.23C1.45 5.33 1.87 5.46 2.32 5.53Z" fill="#8B2AB9"/>
<path d="M2.35999 14.51C2.93976 14.4635 3.49128 14.2401 3.93999 13.87C4.16999 14.05 4.39999 14.24 4.63999 14.4C4.67534 14.4278 4.71586 14.4484 4.75921 14.4604C4.80256 14.4725 4.84787 14.4758 4.89252 14.4703C4.93717 14.4647 4.98026 14.4503 5.01931 14.4279C5.05836 14.4056 5.09258 14.3757 5.11999 14.34C5.17258 14.2664 5.19467 14.1754 5.18162 14.0859C5.16858 13.9964 5.1214 13.9155 5.04999 13.86C4.82999 13.68 4.62999 13.49 4.41999 13.3C4.60628 12.9944 4.72875 12.6542 4.77999 12.3C4.86491 11.5634 4.75096 10.8176 4.44999 10.14C4.34207 9.88813 4.18963 9.65778 3.99999 9.46C3.82279 9.25737 3.60001 9.09971 3.34999 9C3.13219 8.90407 2.89315 8.86653 2.65643 8.89107C2.41971 8.91562 2.19347 9.00142 1.99999 9.14C1.82203 9.26444 1.67222 9.42489 1.56024 9.61094C1.44827 9.79699 1.37663 10.0045 1.34999 10.22C1.34016 10.26 1.3387 10.3017 1.34568 10.3423C1.35267 10.383 1.36796 10.4217 1.39059 10.4562C1.41323 10.4906 1.44273 10.5201 1.47724 10.5426C1.51176 10.5652 1.55056 10.5804 1.59121 10.5873C1.63186 10.5942 1.6735 10.5926 1.71352 10.5827C1.75354 10.5728 1.79109 10.5547 1.82382 10.5296C1.85655 10.5045 1.88375 10.473 1.90374 10.4369C1.92373 10.4008 1.93607 10.361 1.93999 10.32C1.96877 10.1967 2.0227 10.0806 2.09842 9.97908C2.17413 9.87756 2.26999 9.79276 2.37999 9.73C2.47515 9.67836 2.58171 9.65131 2.68999 9.65131C2.79826 9.65131 2.90482 9.67836 2.99999 9.73C3.13012 9.80101 3.24284 9.90007 3.32999 10.02C3.42554 10.153 3.49665 10.302 3.53999 10.46C3.68162 10.9019 3.73264 11.3679 3.68999 11.83C3.66904 12.1084 3.59433 12.3801 3.46999 12.63C3.17762 12.5118 2.86533 12.4507 2.54999 12.45C2.35405 12.4521 2.15916 12.4789 1.96999 12.53C1.764 12.5802 1.56793 12.6647 1.38999 12.78C1.24348 12.8786 1.12056 13.0084 1.02999 13.16C0.988402 13.2457 0.966797 13.3397 0.966797 13.435C0.966797 13.5303 0.988402 13.6243 1.02999 13.71C1.13877 13.9667 1.32606 14.1824 1.56499 14.3261C1.80392 14.4698 2.08222 14.5342 2.35999 14.51Z" fill="#8B2AB9"/>
<path d="M4.66999 20.24L4.57999 20.16C4.68795 20.0455 4.77585 19.9137 4.83999 19.77C4.91864 19.5832 4.95916 19.3826 4.95916 19.18C4.95916 18.9774 4.91864 18.7768 4.83999 18.59C4.75484 18.3613 4.62146 18.1536 4.44891 17.9811C4.27635 17.8085 4.06868 17.6751 3.83999 17.59C3.52669 17.4969 3.19726 17.471 2.87327 17.5141C2.54929 17.5572 2.23806 17.6683 1.95999 17.84C1.76561 17.9422 1.58144 18.0628 1.40999 18.2C1.2717 18.3226 1.16531 18.4771 1.09999 18.65C1.08568 18.6874 1.079 18.7273 1.08034 18.7673C1.08168 18.8073 1.09101 18.8466 1.10778 18.8829C1.12456 18.9193 1.14843 18.9519 1.17801 18.9789C1.20758 19.0058 1.24226 19.0266 1.27999 19.04C1.31737 19.0543 1.35724 19.061 1.39724 19.0596C1.43725 19.0583 1.47658 19.049 1.51293 19.0322C1.54927 19.0154 1.58189 18.9915 1.60886 18.962C1.63584 18.9324 1.65662 18.8977 1.66999 18.86C1.71328 18.77 1.78796 18.6989 1.87999 18.66C2.00723 18.5846 2.14113 18.521 2.27999 18.47C2.59285 18.3274 2.94227 18.2855 3.27999 18.35C3.41616 18.3912 3.53846 18.469 3.63364 18.5747C3.72882 18.6805 3.79326 18.8102 3.81999 18.95C3.85961 19.0165 3.88053 19.0926 3.88053 19.17C3.88053 19.2474 3.85961 19.3235 3.81999 19.39C3.63987 19.5583 3.42472 19.6847 3.18999 19.76C3.10383 19.7962 3.02832 19.8538 2.97058 19.9272C2.91284 20.0007 2.87478 20.0877 2.85999 20.18C2.83966 20.2755 2.84466 20.3746 2.87448 20.4676C2.9043 20.5606 2.95791 20.6441 3.02999 20.71C3.33999 21.01 4.02999 20.8 4.29999 21.64C4.38053 21.8221 4.4049 22.024 4.36999 22.22C4.29509 22.4551 4.15628 22.6647 3.96909 22.8254C3.78189 22.9861 3.55369 23.0916 3.30999 23.13C3.04875 23.2149 2.77163 23.2391 2.49962 23.201C2.2276 23.1629 1.96783 23.0634 1.73999 22.91C1.67626 22.8465 1.58996 22.8108 1.49999 22.8108C1.41002 22.8108 1.32371 22.8465 1.25999 22.91C1.19586 22.9754 1.15994 23.0634 1.15994 23.155C1.15994 23.2466 1.19586 23.3346 1.25999 23.4C1.5635 23.6481 1.91811 23.8261 2.29844 23.9212C2.67877 24.0163 3.07541 24.0261 3.45999 23.95C3.87962 23.9021 4.27797 23.7396 4.61135 23.4803C4.94474 23.221 5.20029 22.8749 5.34999 22.48C5.48135 22.0771 5.48135 21.6429 5.34999 21.24C5.21928 20.8506 4.98404 20.5047 4.66999 20.24Z" fill="#8B2AB9"/>
<path d="M23 2C21.23 1.84 19.45 1.71 17.66 1.7C16.59 1.7 15.52 1.7 14.45 1.8C13.74 1.85 13.03 1.94 12.32 2.02C11.61 2.1 10.68 2.02 9.85998 2.1C9.4843 2.10655 9.10976 2.14333 8.73998 2.21C8.66113 2.22466 8.59103 2.26932 8.54441 2.33459C8.49779 2.39985 8.47828 2.48065 8.48998 2.56C8.50462 2.6369 8.54781 2.70541 8.61087 2.75178C8.67394 2.79816 8.75222 2.81895 8.82998 2.81C9.16269 2.78116 9.49727 2.78116 9.82998 2.81C10.68 2.86 11.53 3.01 12.38 2.99H13.86C14.59 2.99 15.33 2.99 16.07 2.91C17.31 2.86 18.54 2.79 19.77 2.76C20.83 2.76 21.89 2.71 22.95 2.76C23.0385 2.76275 23.1246 2.73086 23.19 2.67109C23.2553 2.61133 23.2948 2.52842 23.3 2.44C23.3152 2.3911 23.3191 2.33941 23.3116 2.28877C23.304 2.23814 23.2851 2.18987 23.2562 2.14757C23.2274 2.10526 23.1893 2.07002 23.145 2.04447C23.1006 2.01892 23.051 2.00371 23 2Z" fill="#8B2AB9"/>
<path d="M8.35 12H10.15C11.53 11.94 12.89 11.8 14.27 11.79C15.09 11.79 15.91 11.73 16.73 11.71C17.55 11.69 18.37 11.63 19.19 11.62H22.47C22.5612 11.6255 22.651 11.5952 22.7202 11.5354C22.7893 11.4756 22.8323 11.3911 22.84 11.3C22.8427 11.2553 22.8366 11.2106 22.8219 11.1683C22.8073 11.126 22.7845 11.087 22.7547 11.0536C22.725 11.0201 22.689 10.9929 22.6487 10.9734C22.6084 10.9539 22.5647 10.9426 22.52 10.94C20.87 10.75 19.21 10.61 17.52 10.58C16.41 10.58 15.3 10.58 14.19 10.64C12.61 10.8 11.06 11.12 9.49 11.29C9.1 11.34 8.72 11.37 8.33 11.39C8.25043 11.39 8.17413 11.4216 8.11787 11.4779C8.06161 11.5341 8.03 11.6104 8.03 11.69C8.03 11.7696 8.06161 11.8459 8.11787 11.9021C8.17413 11.9584 8.25043 11.99 8.33 11.99L8.35 12Z" fill="#8B2AB9"/>
<path d="M22.84 19.25C22.5618 19.2094 22.2811 19.1894 22 19.19H20.15C18.92 19.19 17.69 19.11 16.46 19.19C15.23 19.27 14 19.37 12.77 19.51L9.99999 19.91C9.66846 19.9575 9.33467 19.9875 8.99999 20C8.81118 20.0301 8.6188 20.0301 8.42999 20C8.39257 19.9875 8.35304 19.9824 8.31367 19.9852C8.2743 19.988 8.23586 19.9985 8.20056 20.0162C8.16526 20.0338 8.13379 20.0582 8.10795 20.0881C8.08211 20.1179 8.06242 20.1525 8.04999 20.19C8.03766 20.2281 8.03308 20.2682 8.0365 20.3081C8.03992 20.348 8.05129 20.3867 8.06992 20.4221C8.08856 20.4576 8.11409 20.4889 8.14502 20.5143C8.17594 20.5397 8.21163 20.5586 8.24999 20.57C8.49182 20.653 8.7445 20.7002 8.99999 20.71C9.33306 20.7287 9.66692 20.7287 9.99999 20.71L12.79 20.54L20.07 20.12C20.68 20.12 21.31 20.01 21.94 19.98C22.1896 19.96 22.4404 19.96 22.69 19.98C22.7813 19.9884 22.8723 19.9607 22.9434 19.9027C23.0144 19.8447 23.0599 19.7612 23.07 19.67C23.0948 19.5838 23.0845 19.4913 23.0415 19.4126C22.9984 19.334 22.926 19.2755 22.84 19.25Z" fill="#8B2AB9"/>
</g>
<defs>
<clipPath id="clip0_91_2939">
<rect width="24" height="24" fill="white"/>
</clipPath>
</defs>
</svg>
