<svg width="248" height="191" viewBox="0 0 248 191" fill="none" xmlns="http://www.w3.org/2000/svg">
<path d="M58.8365 28.3976C38.8342 34.8115 22.2143 47.3687 12.611 66.2067C0.300545 90.3551 1.4887 121.262 14.2619 144.996C27.6559 169.883 54.5958 181.307 81.1723 185.537C99.3582 188.432 117.491 186.591 135.604 183.829C153.484 181.104 171.586 175.859 187.705 167.535C215.034 153.421 243.153 129.261 243.981 95.5758C244.656 68.1128 227.117 42.4592 205.67 26.8365C177.81 6.54208 140.801 1.19265 107.344 5.27313C91.4754 7.20851 76.0068 11.4106 61.5556 18.3477C47.3103 25.186 37.0759 35.2866 26.4981 46.8387M79.0462 76.7466C83.7789 76.2183 72.9115 67.8621 71.5688 66.3444C67.5704 61.8249 65.481 51.604 70.1047 46.9584C77.9418 39.0843 84.6934 49.7383 84.6934 57.2031C84.6934 58.3882 85.4203 54.9469 85.8437 53.8407C86.7687 51.4245 89.2818 48.6535 91.2295 47.0635C94.5741 44.3332 102.319 41.499 105.87 45.0671C111.182 50.4042 104.061 61.3152 100.903 65.7139C95.9571 72.6031 88.9105 76.2848 81.8698 80.5292M167.519 83.3662C155.077 91.7004 142.309 52.3567 158.63 49.3752C162.792 48.6148 166.068 53.5156 167.937 56.4676C170.116 59.9074 167.976 63.3906 169.872 59.1995C171.606 55.3662 173.655 50.1266 178.082 48.5871C182.984 46.8822 186.215 49.0116 186.343 54.0509C186.682 67.3421 176.926 77.3808 166.578 84.3119M55.516 97.5512C53.655 108.069 52.6921 116.713 57.8167 126.551C69.3291 148.652 95.5479 152.253 118.158 149.93C132.521 148.454 146.636 142.636 157.584 133.171C168.449 123.778 172.348 109.228 175.049 95.6599" stroke="#8B2AB9" stroke-width="7" stroke-linecap="round"/>
</svg>
