<svg width="33" height="33" viewBox="0 0 33 33" fill="none" xmlns="http://www.w3.org/2000/svg">
<path d="M9.71134 15.559C7.62806 16.2239 5.89706 17.5256 4.89686 19.4784C3.61469 21.9816 3.73844 25.1855 5.0688 27.6458C6.46381 30.2256 9.26966 31.4099 12.0377 31.8484C13.9318 32.1484 15.8204 31.9576 17.7068 31.6714C19.569 31.3888 21.4544 30.8451 23.1332 29.9822C25.9797 28.5192 28.9083 26.0147 28.9946 22.5228C29.0649 19.676 27.2382 17.0167 25.0044 15.3972C22.1027 13.2934 18.2482 12.7389 14.7635 13.1619C13.1108 13.3625 11.4997 13.7981 9.99455 14.5172C8.51087 15.2261 7.44493 16.2731 6.34322 17.4706" stroke="#58405C" stroke-width="0.98566" stroke-linecap="round"/>
<path d="M14.4767 20.7366C14.7721 21.4218 14.9096 21.5905 15.6415 21.7831C16.1845 21.926 16.742 21.8367 17.2704 21.665C18.3273 21.3214 18.8824 20.6927 18.8824 19.5972" stroke="#58405C" stroke-width="0.98566" stroke-linecap="round"/>
<path d="M22.2246 19.2173C22.6078 19.9611 23.1893 20.6605 24.0856 20.6605C25.0619 20.6605 25.5216 19.7615 25.6428 18.9135" stroke="#58405C" stroke-width="0.98566" stroke-linecap="round"/>
<path fill-rule="evenodd" clip-rule="evenodd" d="M19.2333 0.444362C19.2601 0.1735 19.5014 -0.0243595 19.7722 0.00242897C20.3686 0.0614097 20.9631 0.124202 21.5627 0.207484C21.5753 0.209237 21.5946 0.21141 21.6191 0.214161C21.7263 0.226214 21.9323 0.249368 22.1059 0.296971C22.2963 0.349173 22.7027 0.494266 22.8179 0.92646C22.8679 1.11389 22.8293 1.28471 22.7838 1.40415C22.7374 1.52585 22.6682 1.63588 22.5994 1.72861C22.4616 1.91434 22.275 2.09707 22.0949 2.25488C21.8602 2.46063 21.6015 2.654 21.3995 2.79237C22.1322 2.84634 22.8852 2.8456 23.6431 2.84484H23.6432L23.9102 2.84467C24.1823 2.84467 24.403 3.06531 24.403 3.3375C24.403 3.60968 24.1823 3.83033 23.9102 3.83033L23.6289 3.83057C22.5106 3.83201 21.3028 3.83358 20.1528 3.63531L20.1486 3.63458C20.0925 3.62493 19.8989 3.59165 19.7571 3.53423C19.7196 3.51902 19.6503 3.48862 19.5831 3.43522C19.5325 3.39504 19.3502 3.23446 19.3823 2.96089C19.4119 2.70849 19.602 2.58958 19.6506 2.56083C19.7231 2.51793 19.7991 2.49244 19.8567 2.476C20.1002 2.40642 20.3698 2.26291 20.6488 2.10411C20.7651 2.03788 21.1281 1.79159 21.4453 1.51358C21.5639 1.40964 21.6647 1.31113 21.7402 1.22466C21.7116 1.21966 21.6813 1.21509 21.6493 1.21082C21.6124 1.20589 21.5764 1.20172 21.539 1.19744L21.5334 1.1968C21.4997 1.19293 21.4615 1.18856 21.4271 1.18377C20.8473 1.10325 20.2685 1.04198 19.6752 0.983304C19.4043 0.956515 19.2065 0.715223 19.2333 0.444362ZM20.1149 3.42768C20.1149 3.42767 20.1155 3.42742 20.1169 3.42696L20.1149 3.42768ZM15.6183 4.66171C15.6934 4.44353 15.9312 4.32757 16.1494 4.40271C16.6297 4.56813 17.1078 4.73633 17.5861 4.92244C17.5962 4.92635 17.6117 4.93192 17.6313 4.93897L17.6313 4.939L17.6314 4.939C17.7174 4.96993 17.8828 5.02936 18.0167 5.10262C18.1635 5.18296 18.4703 5.38221 18.4807 5.76128C18.4852 5.92567 18.42 6.05902 18.359 6.14863C18.2969 6.23994 18.2183 6.31714 18.1434 6.38016C17.9933 6.50637 17.8037 6.62057 17.6242 6.71548C17.3903 6.83922 17.1391 6.94809 16.9454 7.02268C17.5392 7.21066 18.1604 7.35748 18.7858 7.50528L19.0061 7.55741C19.2306 7.61071 19.3694 7.83592 19.3161 8.06043C19.2628 8.28494 19.0376 8.42374 18.8131 8.37045L18.581 8.31558L18.581 8.31557C17.6582 8.09779 16.6617 7.86258 15.752 7.47387L15.7486 7.47244C15.7042 7.45349 15.5511 7.38813 15.4453 7.31301C15.4173 7.29311 15.3662 7.25448 15.3212 7.19726C15.2873 7.15422 15.1684 6.98606 15.2484 6.76669C15.3223 6.56429 15.5023 6.50342 15.5481 6.48922C15.6162 6.46803 15.684 6.4619 15.7347 6.4596C15.9492 6.4499 16.1997 6.38431 16.4609 6.30795C16.5698 6.2761 16.9174 6.14401 17.2335 5.97681C17.3517 5.9143 17.4541 5.85276 17.5333 5.79622C17.5108 5.7865 17.4866 5.7768 17.4611 5.76702C17.4316 5.75573 17.4027 5.74523 17.3727 5.73438L17.3683 5.73276C17.3412 5.72296 17.3106 5.71189 17.2831 5.7012C16.8206 5.52125 16.3552 5.35738 15.8773 5.1928C15.6591 5.11767 15.5431 4.87989 15.6183 4.66171ZM15.7614 7.29518C15.7613 7.29517 15.7619 7.29509 15.7631 7.29498L15.7614 7.29518ZM21.5386 6.70703C21.1979 6.72416 20.9356 7.01425 20.9527 7.35497C20.9698 7.6957 21.2599 7.95803 21.6006 7.9409C22.347 7.9034 23.0758 7.87179 23.8095 7.86388C23.853 7.86341 23.9011 7.86174 23.9436 7.86027L23.9437 7.86027L23.9507 7.86003C23.9978 7.8584 24.0433 7.85687 24.0899 7.85612C24.1303 7.85547 24.1688 7.85549 24.2051 7.85639C24.1276 7.9776 24.021 8.11844 23.8933 8.26931C23.5517 8.67286 23.1476 9.0456 23.0157 9.14931C22.6994 9.39797 22.3919 9.62596 22.1029 9.75745C22.0347 9.78854 21.9451 9.83427 21.8632 9.90091C21.8083 9.94558 21.5948 10.1283 21.605 10.4467C21.6161 10.7917 21.8719 10.9569 21.9421 10.9973C22.0353 11.051 22.1268 11.0758 22.1761 11.0877C22.3626 11.1325 22.6087 11.1378 22.6801 11.1393L22.6855 11.1395C24.1477 11.1715 25.6445 10.9452 27.0305 10.7356H27.0305C27.1475 10.7179 27.2637 10.7003 27.3791 10.6831C27.7165 10.6325 27.949 10.318 27.8984 9.98059C27.8478 9.64321 27.5333 9.4107 27.1959 9.46127L26.865 9.5111L26.865 9.51111C25.9255 9.65288 24.9924 9.79371 24.0742 9.86294C24.2988 9.6539 24.5835 9.36614 24.8363 9.06748C25.0302 8.83842 25.2275 8.57724 25.3638 8.32141C25.4319 8.19368 25.4972 8.04444 25.5321 7.88496C25.5663 7.72845 25.5824 7.50954 25.4856 7.2865C25.2625 6.77219 24.7318 6.66785 24.4861 6.63851C24.2621 6.61177 24.0025 6.62134 23.8673 6.62632H23.8673C23.8365 6.62745 23.8121 6.62835 23.7961 6.62852C23.0374 6.63671 22.2888 6.66933 21.5386 6.70703ZM24.3254 7.62001C24.3253 7.62027 24.3253 7.62063 24.3252 7.62109L24.3252 7.62092C24.3255 7.61944 24.3256 7.61916 24.3254 7.62001ZM22.5999 10.8891C22.5999 10.8891 22.6006 10.8887 22.6022 10.8879L22.5999 10.8891Z" fill="#58405C"/>
</svg>
