<svg width="32" height="34" viewBox="0 0 32 34" fill="none" xmlns="http://www.w3.org/2000/svg">
<path d="M6.1402 14.2847C8.72988 18.0528 13.6546 19.3787 17.9011 18.0689C20.2096 17.3569 22.3419 15.9358 23.4473 13.723C24.6426 11.3304 24.6047 8.63132 23.5984 6.15848C21.2097 0.2885 13.0645 -0.125953 8.26206 2.68556C5.75959 4.15059 4.50648 6.67361 4.1467 9.49477C4.00494 10.6063 3.98786 11.7111 4.29772 12.7969C4.70059 14.2086 5.35505 15.0909 6.41204 16.0611M14.0478 8.44017C14.7163 8.77441 15.0248 9.50891 15.367 10.1362M21.2089 7.05821C21.6158 7.10608 21.3719 8.66954 21.3345 9.00552M13.2312 7.24666C14.2276 7.06686 15.1722 6.99539 16.1836 6.99539M19.45 6.49286C19.9594 6.228 20.4174 5.8689 20.8948 5.55061M17.4399 13.3399C18.4768 12.9201 19.4918 12.4814 20.5807 12.2092M9.25677 26.4135C9.59691 25.5631 11.497 26.7957 11.3805 27.5849C11.1716 29.0014 9.30571 29.1209 8.22822 28.642M7.54251 28.5563C7.61414 29.2009 7.69912 29.8664 7.54251 30.5277C7.36781 31.2653 7.21594 32.4154 6.55205 32.9086C6.0168 33.3062 5.31866 32.2984 5.09494 31.9562C4.67666 31.3165 4.62828 30.6229 4.62828 29.8848C4.62828 29.3404 4.48679 30.1274 4.414 30.3134C4.20925 30.8366 3.99999 31.7955 3.34258 31.9324C2.60511 32.0861 2.24198 30.7566 2.15213 30.2848C1.97391 29.3492 1.87218 28.5829 2.31403 27.6992M2.82831 27.6992C2.41102 26.0764 2.145 24.4876 2.0569 22.8135M27.4279 16.1279C27.8052 17.8935 27.8544 19.6428 27.9422 21.4421M28.4564 21.4421C27.948 21.2029 29.0163 21.4577 29.1374 21.485C29.6943 21.6103 30.3192 22.0159 30.4088 22.6231C30.642 24.2037 28.1502 24.6059 27.085 24.4421M26.5422 24.4802C26.5422 25.3224 26.7311 27.0386 25.8939 27.5968C25.5367 27.8349 25.0984 27.4608 24.8182 27.2652C24.3157 26.9144 24.0821 26.3358 24.0225 25.7401" stroke="#58405C" stroke-width="1.5" stroke-linecap="round"/>
</svg>
