<svg width="306" height="96" viewBox="0 0 306 96" fill="none" xmlns="http://www.w3.org/2000/svg">
<path d="M2.95898 54.9949C20.7434 54.9949 36.1028 53.6494 53.9382 53.6494C65.2395 53.6494 78.5916 54.9949 91.1085 53.9484C97.5037 52.3039 104.255 53.6494 109.947 53.6494C115.858 53.6494 121.768 53.6494 127.678 53.6494C136.424 53.6494 145.606 54.995 154.24 54.995" stroke="#8B2AB9" stroke-width="0.931933" stroke-linecap="round" stroke-linejoin="round"/>
<path d="M2.95898 54.063C20.7415 54.063 34.3634 53.222 52.9358 54.063C64.2359 54.063 73.8721 53.2204 87.0416 53.2204C93.4362 53.0195 104.65 53.2204 110.342 53.2204C116.251 53.2204 121.992 53.2204 127.901 53.2204C136.646 53.2204 145.607 54.063 154.24 54.063" stroke="#8B2AB9" stroke-width="4.65967" stroke-linecap="round" stroke-linejoin="round"/>
<g opacity="0.4">
<path d="M151.76 54.9949C169.545 54.9949 184.904 53.6494 202.739 53.6494C214.041 53.6494 227.393 54.9949 239.91 53.9484C246.305 52.3039 253.056 53.6494 258.749 53.6494C264.659 53.6494 270.569 53.6494 276.479 53.6494C285.225 53.6494 294.407 54.995 303.042 54.995" stroke="#8B2AB9" stroke-width="0.931933" stroke-linecap="round" stroke-linejoin="round"/>
<path d="M151.76 54.063C169.543 54.063 183.165 53.222 201.737 54.063C213.037 54.063 222.673 53.2204 235.843 53.2204C242.237 53.0195 253.451 53.2204 259.143 53.2204C265.053 53.2204 270.793 53.2204 276.702 53.2204C285.447 53.2204 294.408 54.063 303.042 54.063" stroke="#8B2AB9" stroke-width="4.65967" stroke-linecap="round" stroke-linejoin="round"/>
</g>
<path d="M140.885 51.6745C141.953 46.9574 144.204 43.3746 149.463 42.3008C152.164 41.7494 153.87 41.7494 156.997 42.99C158.142 43.3071 159.758 45.0203 160.53 45.8104C162.317 47.6398 163.252 50.9327 163.252 53.4665C163.252 55.9693 162.487 57.9959 160.793 59.8221C157.282 63.6047 149.215 64.8449 144.993 61.2051C143.404 59.835 141.906 58.5245 141.503 56.2235C141.353 55.3662 140.224 51.3988 141.503 50.4338" stroke="#8B2AB9" stroke-width="3.72773" stroke-linecap="round" stroke-linejoin="round"/>
<path d="M157.982 61.0158C154.073 61.9714 150.215 61.7272 146.229 58.5657C144.181 56.9422 143.128 55.7933 142.053 53.2463C141.564 52.3627 141.747 50.6657 141.815 49.8653C141.972 48.012 143.663 46.2132 145.409 45.3136C147.133 44.4249 149.001 44.2202 151.305 44.7134C156.078 45.735 161.912 50.7283 162.012 54.8649C162.049 56.4219 162.071 57.8958 160.734 58.9843C160.236 59.3898 158.2 61.5591 156.746 61.04" stroke="#8B2AB9" stroke-width="3.72773" stroke-linecap="round" stroke-linejoin="round"/>
<circle cx="152.069" cy="53.1311" r="8.3874" fill="white"/>
<path fill-rule="evenodd" clip-rule="evenodd" d="M129.186 3.14522C133.678 1.39817 139.4 3.33882 143.47 6.16325C147.651 9.06421 150.486 13.5204 152.495 18.2733C152.744 18.8642 153.433 19.1437 154.032 18.8974C154.632 18.6512 154.915 17.9726 154.665 17.3817C154.349 16.6326 154.01 15.8847 153.647 15.1434C154.162 15.0469 154.672 14.9412 155.181 14.8356L155.181 14.8356C156.272 14.6094 157.362 14.3836 158.494 14.2486C160.181 14.0474 161.701 14.0929 162.974 14.6215C163.523 14.8494 163.641 15.0607 163.669 15.126C163.7 15.1988 163.729 15.3575 163.609 15.6746C163.349 16.3603 162.618 17.1794 161.903 17.7982C157.683 21.4493 152.127 23.4111 146.605 25.2405C139.748 27.5116 132.696 29.2623 125.599 30.7803C121.341 31.6912 117.063 32.319 112.767 32.319C112.635 32.319 112.496 32.3198 112.353 32.3206C111.581 32.3251 110.664 32.3304 109.787 32.217C108.673 32.0728 108.065 31.7834 107.843 31.4815C107.843 31.4806 107.842 31.4796 107.841 31.4784L107.841 31.4784C107.829 31.467 107.799 31.4373 107.861 31.2681C107.947 31.0342 108.163 30.7128 108.525 30.3294C109.154 29.6627 109.97 29.0673 110.5 28.6806L110.5 28.6806C110.575 28.626 110.644 28.5755 110.706 28.5296C112.435 27.2515 114.804 26.1392 116.907 25.3328C117.211 25.2164 117.437 24.9894 117.558 24.7167C117.748 25.5934 118.022 26.5005 118.458 27.2823C118.771 27.8432 119.486 28.0478 120.055 27.7393C120.624 27.4308 120.832 26.726 120.519 26.1651C120.188 25.5722 119.955 24.7707 119.779 23.8444C119.642 23.1193 119.552 22.3876 119.465 21.6803L119.464 21.6798C119.441 21.4861 119.417 21.2942 119.393 21.1047C119.047 18.4189 119.32 15.1201 120.144 12.5793C121.56 8.2146 124.883 4.81845 129.186 3.14522ZM117.329 23.4491C117.248 22.9166 117.183 22.3943 117.125 21.9216L117.125 21.9213C117.103 21.7381 117.081 21.5623 117.06 21.3963C116.674 18.3958 116.97 14.7551 117.905 11.8731C119.543 6.82146 123.388 2.9077 128.323 0.988706C133.924 -1.18973 140.523 1.2829 144.824 4.26756C148.144 6.57141 150.646 9.70201 152.567 13.0918C152.701 12.9977 152.859 12.9302 153.032 12.8986C153.499 12.8134 154.012 12.7073 154.554 12.5953L154.554 12.5953C155.705 12.3576 156.984 12.0935 158.212 11.9471C160.056 11.7272 162.058 11.7259 163.887 12.485C164.797 12.8628 165.502 13.432 165.841 14.2373C166.177 15.0349 166.058 15.8368 165.812 16.4854C165.34 17.7311 164.236 18.8645 163.454 19.5407C158.828 23.5426 152.825 25.6256 147.354 27.438C140.385 29.7462 133.241 31.5178 126.098 33.0458C121.746 33.9766 117.29 34.6373 112.767 34.6373C112.657 34.6373 112.535 34.6381 112.403 34.639H112.403C111.639 34.6442 110.534 34.6517 109.481 34.5155C108.321 34.3654 106.785 33.9958 105.937 32.8388C105.362 32.0536 105.389 31.1878 105.65 30.4772C105.895 29.8135 106.357 29.2221 106.804 28.7496C107.597 27.91 108.607 27.1755 109.12 26.8031L109.12 26.803C109.187 26.7538 109.246 26.7109 109.295 26.675C111.273 25.2125 113.87 24.0097 116.055 23.1722C116.51 22.9974 117.01 23.122 117.329 23.4491Z" fill="#8B2AB9"/>
<path fill-rule="evenodd" clip-rule="evenodd" d="M227.002 77.9461C228.104 77.4368 229.26 76.9377 230.247 76.8474C230.711 76.805 231.02 76.8672 231.225 76.9703C231.401 77.0591 231.632 77.2418 231.842 77.7218C232.32 78.819 232.437 80.3645 232.233 82.084C232.033 83.7763 231.543 85.4612 230.988 86.7233C229.904 89.1901 228.336 90.6652 226.58 91.4545C224.798 92.2555 222.694 92.4065 220.488 91.981C216.025 91.1204 211.519 87.9718 209.268 84.0855C208.831 83.3313 207.868 83.0754 207.117 83.5137C206.366 83.9521 206.11 84.9189 206.547 85.673C209.271 90.3754 214.568 94.056 219.894 95.0832C222.582 95.6015 225.368 95.461 227.867 94.3375C230.392 93.2024 232.495 91.1198 233.867 87.9982C234.545 86.457 235.12 84.4687 235.359 82.457C235.594 80.4726 235.522 78.2835 234.724 76.4546C234.261 75.3914 233.553 74.6078 232.634 74.1458C231.743 73.6981 230.799 73.625 229.962 73.7015C228.348 73.849 226.707 74.6047 225.686 75.0768L225.479 75.1722C222.536 76.5334 219.111 78.1173 216.342 78.3473L216.338 78.3478C216.299 78.353 216.084 78.3814 215.59 77.549C215.418 77.2594 215.27 76.9653 215.101 76.6316C215.038 76.506 214.971 76.3749 214.9 76.2363C214.675 75.7992 214.365 75.2175 213.958 74.7662C213.875 74.6745 213.787 74.5698 213.678 74.4385L213.645 74.3987C213.549 74.2831 213.437 74.1482 213.321 74.0158C213.067 73.7254 212.722 73.3589 212.286 73.0619C211.831 72.752 211.243 72.4947 210.53 72.4804C209.822 72.4661 209.148 72.6945 208.519 73.0806C206.701 74.198 205.774 75.75 205.616 77.5101C205.468 79.1548 206.008 80.7967 206.683 82.2001C207.061 82.9857 208.002 83.3151 208.784 82.9358C209.567 82.5566 209.895 81.6123 209.517 80.8268C208.942 79.6296 208.677 78.6043 208.75 77.7941C208.813 77.0993 209.131 76.4086 210.163 75.7746C210.33 75.6717 210.425 75.6461 210.458 75.6402C210.47 75.6454 210.489 75.656 210.519 75.676C210.62 75.7449 210.755 75.8705 210.955 76.099C211.043 76.1998 211.129 76.3035 211.229 76.4233L211.262 76.4625C211.369 76.5917 211.494 76.7417 211.625 76.8865C211.722 76.9936 211.866 77.2244 212.104 77.6866C212.151 77.7766 212.201 77.8765 212.255 77.9831C212.435 78.3407 212.654 78.7743 212.886 79.1646C213.447 80.1118 214.571 81.6642 216.602 81.4955C219.943 81.2178 223.814 79.4239 226.583 78.1403L227.002 77.9461Z" fill="#8B2AB9"/>
<path fill-rule="evenodd" clip-rule="evenodd" d="M68.9158 74.0705C70.0794 70.7149 68.0347 67.3157 65.697 65.12C64.469 63.9666 63.021 62.9972 61.5437 62.3564C60.0863 61.7243 58.4766 61.3595 56.9718 61.586C55.8532 61.7544 54.8843 62.136 54.143 62.7853C53.3826 63.4513 52.9737 64.3021 52.8332 65.1865C52.5689 66.8509 53.247 68.5924 54.0416 69.8949C54.8153 71.1631 55.2763 71.9338 55.377 72.5969C55.4155 72.8508 55.3881 73.0416 55.2958 73.2339C55.1927 73.4487 54.9551 73.7737 54.3951 74.1832C52.6476 75.461 51.7266 76.1154 49.7428 76.8984C47.9507 77.6056 45.8433 78.7916 45.0069 81.1983C43.0331 86.8778 46.3609 92.3917 51.4136 94.6949C57.5402 97.4875 65.1909 95.5665 69.7288 91.1364C72.0996 88.8221 72.5927 85.7267 72.3578 82.88C72.1234 80.0395 71.1507 77.2012 70.2897 75.0575C70.0539 74.4704 69.5065 74.1032 68.9158 74.0705ZM67.3707 76.2386C67.2229 75.8706 67.223 75.4796 67.3429 75.132C67.1988 75.124 67.0534 75.0959 66.9103 75.0458C66.0897 74.7584 65.6565 73.8578 65.9427 73.0342C66.4689 71.5202 65.6294 69.3829 63.5465 67.4265C62.5637 66.5034 61.4168 65.7426 60.2952 65.2561C59.1536 64.761 58.1605 64.6014 57.4385 64.71C56.7301 64.8166 56.379 65.0194 56.2124 65.1653C56.0649 65.2945 55.9784 65.4498 55.9412 65.6838C55.8503 66.2562 56.0884 67.2007 56.7256 68.2453C56.7725 68.3221 56.8209 68.401 56.8705 68.4817C57.489 69.4887 58.2856 70.7857 58.4884 72.1211C58.6096 72.92 58.5335 73.7664 58.1314 74.6045C57.74 75.4203 57.0922 76.1194 56.2483 76.7364C54.4418 78.0574 53.2601 78.9045 50.8945 79.8382C49.3177 80.4605 48.3434 81.189 47.9785 82.2388C46.663 86.024 48.7804 90.0251 52.715 91.8186C57.5081 94.0034 63.7979 92.5197 67.5345 88.8719C68.9654 87.4751 69.4155 85.4938 69.2213 83.1408C69.0266 80.7818 68.1977 78.2976 67.3707 76.2386Z" fill="#8B2AB9"/>
</svg>
